<svg width="420" height="720" viewBox="0 0 420 720" fill="none" xmlns="http://www.w3.org/2000/svg">
<rect x="8" y="8" width="404" height="704" rx="42" fill="#D8DBF2"/>
<path d="M0 50C0 22.3858 22.3858 0 50 0H370C397.614 0 420 22.3858 420 50V120H0V50Z" fill="#211C2F"/>
<path d="M0 600H420V670C420 697.614 397.614 720 370 720H50C22.3858 720 0 697.614 0 670V600Z" fill="#211C2F"/>
<rect x="4" y="4" width="412" height="712" rx="46" stroke="#262626" stroke-width="8"/>
<circle cx="210" cy="360" r="160" fill="#07071C"/>
<path d="M210 210C190.302 210 170.796 213.88 152.597 221.418C134.399 228.956 117.863 240.005 103.934 253.934C90.0052 267.863 78.9563 284.399 71.4181 302.598C63.8799 320.796 60 340.302 60 360L210 360L210 210Z" fill="#4228C0"/>
<path d="M60 360C60 379.698 63.8799 399.204 71.4181 417.403C78.9563 435.601 90.0052 452.137 103.934 466.066C117.863 479.995 134.399 491.044 152.597 498.582C170.796 506.12 190.302 510 210 510L210 360L60 360Z" fill="#FBD003"/>
<path d="M210 510C229.698 510 249.204 506.12 267.403 498.582C285.601 491.044 302.137 479.995 316.066 466.066C329.995 452.137 341.044 435.601 348.582 417.403C356.12 399.204 360 379.698 360 360L210 360L210 510Z" fill="#02753A"/>
<path d="M360 360C360 340.302 356.12 320.796 348.582 302.597C341.044 284.399 329.995 267.863 316.066 253.934C302.137 240.005 285.601 228.956 267.402 221.418C249.204 213.88 229.698 210 210 210L210 360H360Z" fill="#E91802"/>
</svg>
