<svg width="420" height="720" viewBox="0 0 420 720" fill="none" xmlns="http://www.w3.org/2000/svg">
<path d="M105.962 56.2281C107.652 64.0941 107.274 72.2575 104.863 79.9374C102.453 87.6174 98.0921 94.5571 92.1968 100.093C86.3016 105.628 79.0695 109.574 71.1923 111.554C63.3151 113.533 55.0564 113.48 47.2061 111.399C39.3558 109.317 32.1765 105.278 26.355 99.6662C20.5334 94.0548 16.2643 87.0593 13.9561 79.3487C11.6478 71.6382 11.3776 63.4706 13.1712 55.6272C14.9649 47.7838 18.7624 40.527 24.2006 34.5509L32.9549 42.3503C28.8654 46.8443 26.0096 52.3014 24.6608 58.1997C23.3119 64.0979 23.5152 70.2399 25.251 76.0382C26.9868 81.8366 30.1971 87.0972 34.5749 91.317C38.9527 95.5368 44.3516 98.5745 50.255 100.14C56.1584 101.705 62.369 101.745 68.2926 100.256C74.2162 98.7679 79.6548 95.8003 84.088 91.6376C88.5213 87.4749 91.8009 82.2563 93.6133 76.481C95.4257 70.7056 95.7101 64.5668 94.4394 58.6516L105.962 56.2281Z" fill="#07071C"/>
<path d="M128.284 80.2843L100 52L71.7157 80.2843" stroke="#07071C" stroke-width="12" stroke-linecap="round" stroke-linejoin="round"/>
<circle cx="28" cy="39" r="6" fill="#07071C"/>
<path d="M314.322 662.772C312.632 654.906 313.011 646.743 315.421 639.063C317.831 631.383 322.192 624.443 328.087 618.907C333.983 613.372 341.215 609.426 349.092 607.446C356.969 605.467 365.228 605.52 373.078 607.601C380.928 609.683 388.108 613.722 393.929 619.334C399.751 624.945 404.02 631.941 406.328 639.651C408.636 647.362 408.907 655.529 407.113 663.373C405.319 671.216 401.522 678.473 396.084 684.449L387.329 676.65C391.419 672.156 394.275 666.699 395.623 660.8C396.972 654.902 396.769 648.76 395.033 642.962C393.297 637.163 390.087 631.903 385.709 627.683C381.331 623.463 375.933 620.425 370.029 618.86C364.126 617.295 357.915 617.255 351.992 618.744C346.068 620.232 340.629 623.2 336.196 627.362C331.763 631.525 328.483 636.744 326.671 642.519C324.859 648.294 324.574 654.433 325.845 660.348L314.322 662.772Z" fill="#07071C"/>
<path d="M292 638.716L320.284 667L348.568 638.716" stroke="#07071C" stroke-width="12" stroke-linecap="round" stroke-linejoin="round"/>
<circle cx="392.284" cy="680" r="6" transform="rotate(-180 392.284 680)" fill="#07071C"/>
</svg>
