<svg width="420" height="720" viewBox="0 0 420 720" fill="none" xmlns="http://www.w3.org/2000/svg">
<path d="M52.208 97.92C47.24 97.92 42.916 96.8467 39.236 94.7C35.556 92.5533 32.1213 88.8733 28.932 83.66L39.144 77.312C40.4933 79.4587 41.904 81.2067 43.376 82.556C44.848 83.844 46.3507 84.7947 47.884 85.408C49.4787 86.0213 51.1347 86.328 52.852 86.328C54.692 86.328 56.3787 85.8987 57.912 85.04C59.5067 84.1813 60.764 82.9853 61.684 81.452C62.6653 79.8573 63.156 78.048 63.156 76.024C63.156 74 62.7573 72.2827 61.96 70.872C61.1627 69.4613 60.028 68.388 58.556 67.652C57.084 66.916 55.2747 66.548 53.128 66.548C52.208 66.548 51.196 66.6707 50.092 66.916C49.0493 67.1 47.9147 67.376 46.688 67.744C45.4613 68.112 44.204 68.572 42.916 69.124L39.696 60.568L56.624 41.984L60.12 44.468L33.164 44.192V32.232H71.804L74.38 37.292L53.22 60.2L50.092 56.52C50.5827 56.336 51.38 56.152 52.484 55.968C53.588 55.7227 54.6 55.6 55.52 55.6C58.28 55.6 60.8867 56.1213 63.34 57.164C65.7933 58.1453 67.9707 59.556 69.872 61.396C71.7733 63.236 73.2453 65.3827 74.288 67.836C75.392 70.2893 75.944 72.9267 75.944 75.748C75.944 79.98 74.8707 83.7827 72.724 87.156C70.6387 90.468 67.7867 93.1053 64.168 95.068C60.6107 96.9693 56.624 97.92 52.208 97.92Z" fill="#343434"/>
<path d="M367.792 622.08C372.76 622.08 377.084 623.153 380.764 625.3C384.444 627.447 387.879 631.127 391.068 636.34L380.856 642.688C379.507 640.541 378.096 638.793 376.624 637.444C375.152 636.156 373.649 635.205 372.116 634.592C370.521 633.979 368.865 633.672 367.148 633.672C365.308 633.672 363.621 634.101 362.088 634.96C360.493 635.819 359.236 637.015 358.316 638.548C357.335 640.143 356.844 641.952 356.844 643.976C356.844 646 357.243 647.717 358.04 649.128C358.837 650.539 359.972 651.612 361.444 652.348C362.916 653.084 364.725 653.452 366.872 653.452C367.792 653.452 368.804 653.329 369.908 653.084C370.951 652.9 372.085 652.624 373.312 652.256C374.539 651.888 375.796 651.428 377.084 650.876L380.304 659.432L363.376 678.016L359.88 675.532L386.836 675.808V687.768H348.196L345.62 682.708L366.78 659.8L369.908 663.48C369.417 663.664 368.62 663.848 367.516 664.032C366.412 664.277 365.4 664.4 364.48 664.4C361.72 664.4 359.113 663.879 356.66 662.836C354.207 661.855 352.029 660.444 350.128 658.604C348.227 656.764 346.755 654.617 345.712 652.164C344.608 649.711 344.056 647.073 344.056 644.252C344.056 640.02 345.129 636.217 347.276 632.844C349.361 629.532 352.213 626.895 355.832 624.932C359.389 623.031 363.376 622.08 367.792 622.08Z" fill="#343434"/>
</svg>
