<svg width="420" height="720" viewBox="0 0 420 720" fill="none" xmlns="http://www.w3.org/2000/svg">
<path d="M53.68 97C50.368 97 47.2707 96.4173 44.388 95.252C41.5667 94.0867 39.0827 92.4613 36.936 90.376C34.8507 88.2907 33.1947 85.8373 31.968 83.016C30.8027 80.1947 30.22 77.1587 30.22 73.908C30.2813 71.2093 30.7107 68.4187 31.508 65.536C32.3667 62.6533 33.5627 59.648 35.096 56.52C36.6907 53.3307 38.592 49.9267 40.8 46.308L49.54 31.588H62.328L62.788 32.508L51.104 51.184C49.448 53.944 47.976 56.5813 46.688 59.096C45.4613 61.5493 44.3573 63.9413 43.376 66.272C42.456 68.5413 41.5973 70.8413 40.8 73.172L38.132 65.536C39.1747 62.776 40.708 60.384 42.732 58.36C44.756 56.336 46.9947 54.772 49.448 53.668C51.9627 52.5027 54.4467 51.92 56.9 51.92C60.5187 51.92 63.8307 52.9013 66.836 54.864C69.8413 56.7653 72.2333 59.3107 74.012 62.5C75.852 65.6893 76.772 69.1853 76.772 72.988C76.772 77.588 75.76 81.6973 73.736 85.316C71.7733 88.9347 69.044 91.7867 65.548 93.872C62.1133 95.9573 58.1573 97 53.68 97ZM53.772 85.316C55.8573 85.316 57.6973 84.856 59.292 83.936C60.948 82.9547 62.236 81.6053 63.156 79.888C64.076 78.1093 64.536 76.1467 64.536 74C64.536 72.0987 64.0453 70.32 63.064 68.664C62.144 66.9467 60.8867 65.5667 59.292 64.524C57.6973 63.4813 55.888 62.96 53.864 62.96C51.7173 62.96 49.816 63.4507 48.16 64.432C46.504 65.4133 45.1853 66.732 44.204 68.388C43.284 70.044 42.824 71.884 42.824 73.908C42.824 76.0547 43.284 77.9867 44.204 79.704C45.1853 81.4213 46.4733 82.8013 48.068 83.844C49.724 84.8253 51.6253 85.316 53.772 85.316Z" fill="#07071C"/>
<path d="M366.32 623C369.632 623 372.729 623.583 375.612 624.748C378.433 625.913 380.917 627.539 383.064 629.624C385.149 631.709 386.805 634.163 388.032 636.984C389.197 639.805 389.78 642.841 389.78 646.092C389.719 648.791 389.289 651.581 388.492 654.464C387.633 657.347 386.437 660.352 384.904 663.48C383.309 666.669 381.408 670.073 379.2 673.692L370.46 688.412H357.672L357.212 687.492L368.896 668.816C370.552 666.056 372.024 663.419 373.312 660.904C374.539 658.451 375.643 656.059 376.624 653.728C377.544 651.459 378.403 649.159 379.2 646.828L381.868 654.464C380.825 657.224 379.292 659.616 377.268 661.64C375.244 663.664 373.005 665.228 370.552 666.332C368.037 667.497 365.553 668.08 363.1 668.08C359.481 668.08 356.169 667.099 353.164 665.136C350.159 663.235 347.767 660.689 345.988 657.5C344.148 654.311 343.228 650.815 343.228 647.012C343.228 642.412 344.24 638.303 346.264 634.684C348.227 631.065 350.956 628.213 354.452 626.128C357.887 624.043 361.843 623 366.32 623ZM366.228 634.684C364.143 634.684 362.303 635.144 360.708 636.064C359.052 637.045 357.764 638.395 356.844 640.112C355.924 641.891 355.464 643.853 355.464 646C355.464 647.901 355.955 649.68 356.936 651.336C357.856 653.053 359.113 654.433 360.708 655.476C362.303 656.519 364.112 657.04 366.136 657.04C368.283 657.04 370.184 656.549 371.84 655.568C373.496 654.587 374.815 653.268 375.796 651.612C376.716 649.956 377.176 648.116 377.176 646.092C377.176 643.945 376.716 642.013 375.796 640.296C374.815 638.579 373.527 637.199 371.932 636.156C370.276 635.175 368.375 634.684 366.228 634.684Z" fill="#07071C"/>
</svg>
