<svg width="420" height="720" viewBox="0 0 420 720" fill="none" xmlns="http://www.w3.org/2000/svg">
<path d="M46.688 97L46.32 96.08L66.192 55.324L68.032 61.672C66.9893 64.3707 65.4253 66.7627 63.34 68.848C61.316 70.872 59.016 72.4667 56.44 73.632C53.9253 74.736 51.472 75.288 49.08 75.288C45.584 75.288 42.364 74.3373 39.42 72.436C36.476 70.5347 34.1147 68.02 32.336 64.892C30.5573 61.764 29.668 58.3907 29.668 54.772C29.668 50.2947 30.7107 46.308 32.796 42.812C34.8813 39.2547 37.672 36.4333 41.168 34.348C44.7253 32.2627 48.7427 31.22 53.22 31.22C56.4093 31.22 59.4147 31.8027 62.236 32.968C65.0573 34.072 67.5413 35.636 69.688 37.66C71.8347 39.684 73.4907 42.0453 74.656 44.744C75.8827 47.3813 76.496 50.2027 76.496 53.208C76.496 55.1707 76.312 57.164 75.944 59.188C75.6373 61.1507 75.0853 63.236 74.288 65.444C73.552 67.5907 72.632 69.952 71.528 72.528C70.424 75.0427 69.136 77.8947 67.664 81.084L59.66 97H46.688ZM52.3 63.88C54.3853 63.88 56.2253 63.4507 57.82 62.592C59.4147 61.672 60.672 60.4453 61.592 58.912C62.512 57.3173 62.972 55.5693 62.972 53.668C62.972 51.5827 62.512 49.7427 61.592 48.148C60.7333 46.492 59.5067 45.204 57.912 44.284C56.3173 43.3027 54.508 42.812 52.484 42.812C50.5213 42.812 48.7733 43.272 47.24 44.192C45.768 45.112 44.6027 46.3693 43.744 47.964C42.8853 49.5587 42.456 51.4293 42.456 53.576C42.456 55.3547 42.8853 57.0413 43.744 58.636C44.664 60.2307 45.86 61.5187 47.332 62.5C48.8653 63.42 50.5213 63.88 52.3 63.88Z" fill="#343434"/>
<path d="M373.312 623L373.68 623.92L353.808 664.676L351.968 658.328C353.011 655.629 354.575 653.237 356.66 651.152C358.684 649.128 360.984 647.533 363.56 646.368C366.075 645.264 368.528 644.712 370.92 644.712C374.416 644.712 377.636 645.663 380.58 647.564C383.524 649.465 385.885 651.98 387.664 655.108C389.443 658.236 390.332 661.609 390.332 665.228C390.332 669.705 389.289 673.692 387.204 677.188C385.119 680.745 382.328 683.567 378.832 685.652C375.275 687.737 371.257 688.78 366.78 688.78C363.591 688.78 360.585 688.197 357.764 687.032C354.943 685.928 352.459 684.364 350.312 682.34C348.165 680.316 346.509 677.955 345.344 675.256C344.117 672.619 343.504 669.797 343.504 666.792C343.504 664.829 343.688 662.836 344.056 660.812C344.363 658.849 344.915 656.764 345.712 654.556C346.448 652.409 347.368 650.048 348.472 647.472C349.576 644.957 350.864 642.105 352.336 638.916L360.34 623H373.312ZM367.7 656.12C365.615 656.12 363.775 656.549 362.18 657.408C360.585 658.328 359.328 659.555 358.408 661.088C357.488 662.683 357.028 664.431 357.028 666.332C357.028 668.417 357.488 670.257 358.408 671.852C359.267 673.508 360.493 674.796 362.088 675.716C363.683 676.697 365.492 677.188 367.516 677.188C369.479 677.188 371.227 676.728 372.76 675.808C374.232 674.888 375.397 673.631 376.256 672.036C377.115 670.441 377.544 668.571 377.544 666.424C377.544 664.645 377.115 662.959 376.256 661.364C375.336 659.769 374.14 658.481 372.668 657.5C371.135 656.58 369.479 656.12 367.7 656.12Z" fill="#343434"/>
</svg>
