<svg width="420" height="720" viewBox="0 0 420 720" fill="none" xmlns="http://www.w3.org/2000/svg">
<path d="M54.14 97.276C49.908 97.276 46.044 96.448 42.548 94.792C39.052 93.0747 36.2613 90.8053 34.176 87.984C32.0907 85.1013 31.048 81.8813 31.048 78.324C31.048 76.0547 31.324 74.0307 31.876 72.252C32.4893 70.412 33.3787 68.756 34.544 67.284C35.7707 65.812 37.212 64.524 38.868 63.42C40.5853 62.316 42.548 61.3653 44.756 60.568L43.836 63.696C41.628 62.8373 39.696 61.7027 38.04 60.292C36.4453 58.8813 35.188 57.2867 34.268 55.508C33.4093 53.668 32.98 51.6747 32.98 49.528C32.98 46.1547 33.9307 43.1493 35.832 40.512C37.7333 37.8747 40.2787 35.7893 43.468 34.256C46.6573 32.7227 50.2147 31.956 54.14 31.956C58.0653 31.956 61.6227 32.7227 64.812 34.256C68.0627 35.7893 70.608 37.8747 72.448 40.512C74.3493 43.1493 75.3 46.1547 75.3 49.528C75.3 51.6747 74.8707 53.6373 74.012 55.416C73.2147 57.1947 71.988 58.7893 70.332 60.2C68.7373 61.5493 66.744 62.7147 64.352 63.696L63.708 60.936C66.4067 61.7333 68.768 62.96 70.792 64.616C72.816 66.2107 74.4107 68.1733 75.576 70.504C76.7413 72.8347 77.324 75.4413 77.324 78.324C77.324 81.8813 76.2813 85.1013 74.196 87.984C72.1107 90.8667 69.32 93.136 65.824 94.792C62.3893 96.448 58.4947 97.276 54.14 97.276ZM54.14 85.96C56.0413 85.96 57.728 85.592 59.2 84.856C60.7333 84.12 61.9293 83.108 62.788 81.82C63.6467 80.532 64.076 79.0907 64.076 77.496C64.076 75.7787 63.6467 74.276 62.788 72.988C61.9293 71.6387 60.764 70.596 59.292 69.86C57.82 69.0627 56.1027 68.664 54.14 68.664C52.3 68.664 50.644 69.0627 49.172 69.86C47.7 70.596 46.504 71.6387 45.584 72.988C44.7253 74.276 44.296 75.7787 44.296 77.496C44.296 79.0907 44.7253 80.532 45.584 81.82C46.504 83.0467 47.7 84.0587 49.172 84.856C50.644 85.592 52.3 85.96 54.14 85.96ZM54.14 57.348C55.796 57.348 57.268 57.0413 58.556 56.428C59.9053 55.8147 60.948 54.956 61.684 53.852C62.42 52.748 62.788 51.4907 62.788 50.08C62.788 48.608 62.42 47.32 61.684 46.216C60.948 45.112 59.9053 44.2533 58.556 43.64C57.268 42.9653 55.8267 42.628 54.232 42.628C52.5147 42.628 51.012 42.9653 49.724 43.64C48.436 44.2533 47.424 45.112 46.688 46.216C45.952 47.32 45.584 48.608 45.584 50.08C45.584 51.4907 45.952 52.748 46.688 53.852C47.424 54.956 48.436 55.8147 49.724 56.428C51.012 57.0413 52.484 57.348 54.14 57.348Z" fill="#343434"/>
<path d="M365.86 622.724C370.092 622.724 373.956 623.552 377.452 625.208C380.948 626.925 383.739 629.195 385.824 632.016C387.909 634.899 388.952 638.119 388.952 641.676C388.952 643.945 388.676 645.969 388.124 647.748C387.511 649.588 386.621 651.244 385.456 652.716C384.229 654.188 382.788 655.476 381.132 656.58C379.415 657.684 377.452 658.635 375.244 659.432L376.164 656.304C378.372 657.163 380.304 658.297 381.96 659.708C383.555 661.119 384.812 662.713 385.732 664.492C386.591 666.332 387.02 668.325 387.02 670.472C387.02 673.845 386.069 676.851 384.168 679.488C382.267 682.125 379.721 684.211 376.532 685.744C373.343 687.277 369.785 688.044 365.86 688.044C361.935 688.044 358.377 687.277 355.188 685.744C351.937 684.211 349.392 682.125 347.552 679.488C345.651 676.851 344.7 673.845 344.7 670.472C344.7 668.325 345.129 666.363 345.988 664.584C346.785 662.805 348.012 661.211 349.668 659.8C351.263 658.451 353.256 657.285 355.648 656.304L356.292 659.064C353.593 658.267 351.232 657.04 349.208 655.384C347.184 653.789 345.589 651.827 344.424 649.496C343.259 647.165 342.676 644.559 342.676 641.676C342.676 638.119 343.719 634.899 345.804 632.016C347.889 629.133 350.68 626.864 354.176 625.208C357.611 623.552 361.505 622.724 365.86 622.724ZM365.86 634.04C363.959 634.04 362.272 634.408 360.8 635.144C359.267 635.88 358.071 636.892 357.212 638.18C356.353 639.468 355.924 640.909 355.924 642.504C355.924 644.221 356.353 645.724 357.212 647.012C358.071 648.361 359.236 649.404 360.708 650.14C362.18 650.937 363.897 651.336 365.86 651.336C367.7 651.336 369.356 650.937 370.828 650.14C372.3 649.404 373.496 648.361 374.416 647.012C375.275 645.724 375.704 644.221 375.704 642.504C375.704 640.909 375.275 639.468 374.416 638.18C373.496 636.953 372.3 635.941 370.828 635.144C369.356 634.408 367.7 634.04 365.86 634.04ZM365.86 662.652C364.204 662.652 362.732 662.959 361.444 663.572C360.095 664.185 359.052 665.044 358.316 666.148C357.58 667.252 357.212 668.509 357.212 669.92C357.212 671.392 357.58 672.68 358.316 673.784C359.052 674.888 360.095 675.747 361.444 676.36C362.732 677.035 364.173 677.372 365.768 677.372C367.485 677.372 368.988 677.035 370.276 676.36C371.564 675.747 372.576 674.888 373.312 673.784C374.048 672.68 374.416 671.392 374.416 669.92C374.416 668.509 374.048 667.252 373.312 666.148C372.576 665.044 371.564 664.185 370.276 663.572C368.988 662.959 367.516 662.652 365.86 662.652Z" fill="#343434"/>
</svg>
