<svg width="512" height="512" viewBox="0 0 512 512" fill="none" xmlns="http://www.w3.org/2000/svg">
<rect width="512" height="512" fill="#E6E5E3"/>
<path d="M496 256C496 388.548 388.548 496 256 496C123.452 496 16 388.548 16 256C16 123.452 123.452 16 256 16C388.548 16 496 123.452 496 256ZM34.5484 256C34.5484 378.304 133.696 477.452 256 477.452C378.304 477.452 477.452 378.304 477.452 256C477.452 133.696 378.304 34.5484 256 34.5484C133.696 34.5484 34.5484 133.696 34.5484 256Z" fill="url(#paint0_linear_541_1406)"/>
<path d="M135 148L153.906 166.838L155.758 168.683L159.177 152.792L160.208 148H135Z" fill="#E50402"/>
<path d="M351.782 335.5C351.782 346.5 348.329 349.476 338.61 349.446L354.565 359.65L362.127 364.487L360.671 356.092L356.329 331.055L351.782 329.945V335.5Z" fill="#78078B"/>
<path d="M362.127 364.487L377 374V352.308L360.671 356.092L362.127 364.487Z" fill="#78078B"/>
<path d="M153.906 166.838L135 148V180.033L153.906 166.838Z" fill="#E50402"/>
<path d="M193.818 157.585L183.652 148H160.208L159.177 152.792L180.879 159.931L191.973 163.581L193.818 157.585Z" fill="#E50402"/>
<path d="M162.158 181.295V175.06L155.758 168.683L153.906 166.838L135 180.033V192.393L143.823 188.787L162.158 181.295Z" fill="#E50402"/>
<path d="M213.182 158.846L219.952 148H183.652L193.818 157.585L206.504 169.546L213.182 158.846Z" fill="#E50402"/>
<path d="M162.158 197.61L166.016 203.743L173.79 216.103L189.45 215.284L205.583 197.61H162.158Z" fill="#FE8C01"/>
<path d="M177.602 222.164H207.406C214.077 219.801 218.815 217.053 222.038 213.58L189.45 215.284L173.79 216.103L177.602 222.164Z" fill="#FE8C01"/>
<path d="M222.038 213.58C225.859 209.464 227.552 204.33 227.815 197.61H205.583L189.45 215.284L222.038 213.58Z" fill="#FE8C01"/>
<path d="M203.062 175.06L206.504 169.546L193.818 157.585L191.973 163.581L188.442 175.06H203.062Z" fill="#FE8C01"/>
<path d="M253.761 160.864C254.967 156.505 256.339 151.435 257.26 148H235.329L253.761 160.864Z" fill="#E50402"/>
<path d="M308.685 148L318.517 154.19L332.633 163.079C332.835 161.307 336.919 152.288 338.935 148H308.685Z" fill="#E50402"/>
<path d="M229.783 163.581C220.673 161.032 213.838 159.096 213.182 158.846L206.504 169.546L203.062 175.06H232.808L229.783 163.581Z" fill="#E50402"/>
<path d="M271.125 175.06C268.508 174.337 265.516 173.51 262.302 172.62C258.803 171.652 255.04 170.609 251.21 169.546C243.852 167.505 236.245 165.389 229.783 163.581L232.808 175.06H271.125Z" fill="#FE8C01"/>
<path d="M258.537 209.04L255.273 197.61L245.243 212.319L248.69 211.469L258.537 209.04Z" fill="#FE8C01"/>
<path d="M281.946 197.61H264.823C264.61 198.726 264.355 200.05 264.077 201.473L272.174 212.319L281.946 197.61Z" fill="#FE8C01"/>
<path d="M260.771 216.859L258.537 209.04L248.69 211.469L246.808 226.192L261.635 219.886L260.771 216.859Z" fill="#FE8C01"/>
<path d="M264.077 201.473C262.823 207.906 261.113 216.364 260.771 216.859L261.635 219.886L263.292 225.688L272.174 212.319L264.077 201.473Z" fill="#FE8C01"/>
<path d="M356.329 159.65L346.246 165.333L346.703 170.953H361.751L377 148L356.329 159.65Z" fill="#E50402"/>
<path d="M340.952 168.317L328.988 175.06L322.454 184.826L327.34 184.533L347.709 183.312L346.703 170.953L346.246 165.333L340.952 168.317Z" fill="#E50402"/>
<path d="M307.929 223.565L310.702 223.731L323.81 224.511L317.091 201.479C314.641 203.692 312.664 205.344 312.065 205.509C310.194 213.568 308.077 222.739 307.929 223.565Z" fill="#FE8C01"/>
<path d="M306.067 234.768L310.702 223.731L307.929 223.565L296.974 222.913L293.056 228.769L298.943 242.587L300.878 247.127L306.067 234.768Z" fill="#F9E803"/>
<path d="M298.943 242.587L293.056 228.769L281.449 246.118L298.943 242.587Z" fill="#F9E803"/>
<path d="M222.038 251.036C221.041 250.808 220.108 250.595 219.273 250.406L211.129 262.35L217.431 261.693L231.876 260.189L230.792 253.087C227.868 252.385 224.722 251.652 222.038 251.036Z" fill="#F9E803"/>
<path d="M273.18 258.478L273.558 263.775L289.275 257.674L297.846 254.348L300.878 247.127L298.943 242.587L281.449 246.118L273.18 258.478Z" fill="#F9E803"/>
<path d="M240.371 260.189L240.449 255.703C240.453 255.476 235.97 254.33 230.792 253.087L231.876 260.189L233.464 270.585L240.371 260.189Z" fill="#F9E803"/>
<path d="M217.431 261.693L211.129 262.35L204.482 272.098L208.86 271.1L224.526 267.526L217.431 261.693Z" fill="#F9E803"/>
<path d="M233.464 270.585L231.876 260.189L217.431 261.693L224.526 267.526L231.621 273.359L233.464 270.585Z" fill="#F9E803"/>
<path d="M185.908 299.339L176.105 313.717L175.812 317.5L191.971 305.851L196.456 302.618L193.987 299.339H185.908Z" fill="#027828"/>
<path d="M276.126 299.836L274.761 280.674L259.297 302.618L254.487 309.442L252.605 312.113L269.108 303.499L276.126 299.836Z" fill="#034DFC"/>
<path d="M204.809 313.717L196.456 302.618L191.971 305.851L193.13 319.013L193.418 322.292L203.315 315.966L204.809 313.717Z" fill="#027828"/>
<path d="M191.971 305.851L175.812 317.5L175.15 326.076L181.635 323.528L193.13 319.013L191.971 305.851Z" fill="#027828"/>
<path d="M135 374L151.091 365.424C151.112 364.791 151.283 360.595 151.458 356.344C151.562 353.818 151.667 351.274 151.742 349.446L135 374Z" fill="#034DFC"/>
<path d="M151.091 365.424L135 374H159.704L156.771 362.397L151.091 365.424Z" fill="#034DFC"/>
<path d="M165.25 351.375L184.365 344.489L186.879 340.705L183.4 340.327L174.128 339.318L161.376 337.931L158.444 349.446L165.25 351.375Z" fill="#034DFC"/>
<path d="M204.37 366.802L205.052 355.083L192.475 349.444C185.341 349.445 181.072 349.446 181.072 349.446L177.098 351.564C178.512 352.925 180.227 354.578 182.054 356.344C188.911 362.97 197.357 371.187 197.517 371.553L204.37 366.802Z" fill="#034DFC"/>
<path d="M193.987 374L197.517 371.553C197.357 371.187 188.911 362.97 182.054 356.344L170.544 371.093L168.275 374H193.987Z" fill="#78078B"/>
<path d="M182.054 356.344C180.227 354.578 178.512 352.925 177.098 351.564L174.282 353.065L169.283 355.729L170.544 371.093L182.054 356.344Z" fill="#034DFC"/>
<path d="M278.724 374L285.002 366.802L280.766 355.083L266.335 351.286L261.954 365.424L259.297 374H278.724Z" fill="#78078B"/>
<path d="M297.342 374L319.777 361.909L297.342 352.655L285.002 366.802L278.724 374H297.342Z" fill="#78078B"/>
<path d="M297.342 374H327.592L326.826 358.109L319.777 361.909L297.342 374Z" fill="#78078B"/>
<path d="M339.944 374L344.481 369.547L326.547 352.308L326.826 358.109L327.592 374H339.944Z" fill="#78078B"/>
<path d="M377 374L362.127 364.487L354.565 359.65L344.481 369.547L339.944 374H377Z" fill="#78078B"/>
<path d="M354.565 359.65L338.61 349.446C336.99 349.441 331.531 349.437 323.558 349.435L326.547 352.308L344.481 369.547L354.565 359.65Z" fill="#78078B"/>
<path d="M377 344.741V316.996L370.449 320.022L374.551 335.5L377 344.741Z" fill="#78078B"/>
<path d="M297.342 352.655L289.527 349.432C286.006 349.432 282.393 349.432 278.724 349.433L280.766 355.083L285.002 366.802L297.342 352.655Z" fill="#034DFC"/>
<path d="M266.335 351.286L259.297 349.434L248.369 349.435C242.762 351.284 231.296 354.894 230.287 354.548L242.64 358.79L261.954 365.424L266.335 351.286Z" fill="#034DFC"/>
<path d="M280.766 355.083L278.724 349.433C272.36 349.433 265.825 349.433 259.297 349.434L266.335 351.286L280.766 355.083Z" fill="#034DFC"/>
<path d="M193.987 374H231.548C232.269 373.073 233.141 371.943 234.076 370.721L217.274 357.857L204.37 366.802L197.517 371.553L193.987 374Z" fill="#034DFC"/>
<path d="M377 299.836H327.592C329.949 301.256 332.876 303.02 335.976 304.888C345.913 310.878 357.628 317.949 358.081 318.257L367.54 309.046L377 299.836Z" fill="#034DFC"/>
<path d="M351.782 324.39L358.081 318.257C357.628 317.949 345.913 310.878 335.976 304.888L318.515 320.022L313.475 324.39H351.782Z" fill="#034DFC"/>
<path d="M276.126 299.836L269.108 303.499L278.724 318.257L294.494 309.442L302.641 304.888L297.342 299.836H276.126Z" fill="#027828"/>
<path d="M229.084 324.39L252.605 312.113L254.487 309.442L246.181 298.835L229.084 324.39Z" fill="#027828"/>
<path d="M186.879 340.705L194.085 329.859L193.418 322.292L193.13 319.013L181.635 323.528L183.4 340.327L186.879 340.705Z" fill="#027828"/>
<path d="M313.475 324.39L318.515 320.022L302.641 304.888L294.494 309.442L301.375 324.39H313.475Z" fill="#034DFC"/>
<path d="M162.002 334.4L161.376 337.931L174.128 339.318L175.15 326.076L175.812 317.5L176.105 313.717L162.002 334.4Z" fill="#027828"/>
<path d="M151.742 349.446C151.667 351.274 151.562 353.818 151.458 356.344L158.444 349.446L161.376 337.931L162.002 334.4L151.742 349.446Z" fill="#034DFC"/>
<path d="M208.86 271.1L204.482 272.098L193.475 288.241L200.794 287.255L214.074 285.467L208.86 271.1Z" fill="#F9E803"/>
<path d="M276.126 299.836L285.002 286.475L286.013 279.665L273.989 269.828L274.761 280.674L276.126 299.836Z" fill="#027828"/>
<path d="M240.449 255.703L240.641 244.605L240.768 237.29L222.038 251.036C224.722 251.652 227.868 252.385 230.792 253.087C235.97 254.33 240.453 255.476 240.449 255.703Z" fill="#F9E803"/>
<path d="M146.848 222.164H177.602L173.79 216.103L166.016 203.743L146.07 213.58L146.848 222.164Z" fill="#FE8C01"/>
<path d="M135 192.393V222.164H146.848L146.07 213.58L143.823 188.787L135 192.393Z" fill="#FE8C01"/>
<path d="M155.758 168.683L162.158 175.06H170.796C173.989 170.328 180.476 160.677 180.879 159.931L159.177 152.792L155.758 168.683Z" fill="#E50402"/>
<path d="M188.442 175.06L191.973 163.581L180.879 159.931C180.476 160.677 173.989 170.328 170.796 175.06H188.442Z" fill="#E50402"/>
<path d="M219.952 148L213.182 158.846C213.838 159.096 220.673 161.032 229.783 163.581C236.245 165.389 243.852 167.505 251.21 169.546C251.316 169.576 252.438 165.648 253.761 160.864L235.329 148H219.952Z" fill="#E50402"/>
<path d="M293.852 153.045L293.056 148H257.26C256.339 151.435 254.967 156.505 253.761 160.864C252.438 165.648 251.316 169.576 251.21 169.546C255.04 170.609 258.803 171.652 262.302 172.62L293.852 153.045Z" fill="#E50402"/>
<path d="M318.517 154.19L308.685 148H293.056L293.852 153.045L296.836 171.962L318.517 154.19Z" fill="#E50402"/>
<path d="M356.329 159.65L377 148H365.404C362.127 152.025 355.724 159.991 356.329 159.65Z" fill="#E50402"/>
<path d="M340.952 168.317L346.246 165.333L356.329 159.65C355.724 159.991 362.127 152.025 365.404 148H338.935C336.919 152.288 332.835 161.307 332.633 163.079L340.952 168.317Z" fill="#E50402"/>
<path d="M328.988 175.06L340.952 168.317L332.633 163.079L318.517 154.19L296.836 171.962L293.056 175.06H328.988Z" fill="#FE8C01"/>
<path d="M327.34 184.533L322.454 184.826L313.902 197.61C313.393 199.792 312.745 202.577 312.065 205.509C312.664 205.344 314.641 203.692 317.091 201.479C320.648 198.265 325.202 193.87 327.981 191.132L327.34 184.533Z" fill="#FE8C01"/>
<path d="M348.345 191.132L347.709 183.312L327.34 184.533L327.981 191.132L328.988 201.479C330.263 201.676 338.402 200.717 342.312 200.212L348.345 191.132Z" fill="#FE8C01"/>
<path d="M264.823 197.61H255.273L258.537 209.04L260.771 216.859C261.113 216.364 262.823 207.906 264.077 201.473C264.355 200.05 264.61 198.726 264.823 197.61Z" fill="#FE8C01"/>
<path d="M246.421 229.219L240.875 231.15L240.768 237.29L240.641 244.605L254.235 233.467L246.421 229.219Z" fill="#F9E803"/>
<path d="M297.846 254.348L309.301 249.902L320.36 233.254L306.067 234.768L300.878 247.127L297.846 254.348Z" fill="#F9E803"/>
<path d="M200.794 287.255L193.475 288.241L185.908 299.339H193.987H205.244L203.944 295.808L200.794 287.255Z" fill="#027828"/>
<path d="M175.15 326.076L174.128 339.318L183.4 340.327L181.635 323.528L175.15 326.076Z" fill="#034DFC"/>
<path d="M151.458 356.344C151.283 360.595 151.112 364.791 151.091 365.424L156.771 362.397L169.283 355.729L174.282 353.065L165.25 351.375L158.444 349.446L151.458 356.344Z" fill="#034DFC"/>
<path d="M168.275 374L170.544 371.093L169.283 355.729L156.771 362.397L159.704 374H168.275Z" fill="#034DFC"/>
<path d="M242.64 358.79L230.287 354.548L224.777 352.655L217.274 357.857L234.076 370.721C235.367 369.034 236.778 367.171 238.077 365.424C240.442 362.242 242.432 359.443 242.64 358.79Z" fill="#034DFC"/>
<path d="M259.297 374L261.954 365.424L242.64 358.79C242.432 359.443 240.442 362.242 238.077 365.424L251.463 374H259.297Z" fill="#78078B"/>
<path d="M231.548 374H251.463L238.077 365.424C236.778 367.171 235.367 369.034 234.076 370.721C233.141 371.943 232.269 373.073 231.548 374Z" fill="#78078B"/>
<path d="M377 344.741L374.551 335.5L356.329 331.055L360.671 356.092L377 352.308V344.741Z" fill="#78078B"/>
<path d="M326.547 352.308L323.558 349.435C314.708 349.433 302.76 349.432 289.527 349.432L297.342 352.655L319.777 361.909L326.826 358.109L326.547 352.308Z" fill="#034DFC"/>
<path d="M273.558 263.775L273.18 258.478L258.269 280.767L259.297 302.618L274.761 280.674L273.989 269.828L273.558 263.775Z" fill="#027828"/>
<path d="M259.297 302.618L258.269 280.767L246.181 298.835L254.487 309.442L259.297 302.618Z" fill="#027828"/>
<path d="M208.496 308.167L205.244 299.339H193.987L196.456 302.618L204.809 313.717L208.496 308.167Z" fill="#027828"/>
<path d="M328.988 201.479L330.582 217.868L342.312 200.212C338.402 200.717 330.263 201.676 328.988 201.479Z" fill="#FE8C01"/>
<path d="M326.079 224.646L330.582 217.868L328.988 201.479L327.981 191.132C325.202 193.87 320.648 198.265 317.091 201.479L323.81 224.511L326.079 224.646Z" fill="#F9E803"/>
<path d="M310.702 223.731L306.067 234.768L320.36 233.254L326.079 224.646L323.81 224.511L310.702 223.731Z" fill="#F9E803"/>
<path d="M296.974 222.913L307.929 223.565C308.077 222.739 310.194 213.568 312.065 205.509C312.745 202.577 313.393 199.792 313.902 197.61L296.974 222.913Z" fill="#F9E803"/>
<path d="M309.301 249.902L297.846 254.348L289.275 257.674L286.013 279.665L285.002 286.475L309.301 249.902Z" fill="#027828"/>
<path d="M289.275 257.674L273.558 263.775L273.989 269.828L286.013 279.665L289.275 257.674Z" fill="#027828"/>
<path d="M231.621 273.359L224.526 267.526L208.86 271.1L214.074 285.467L215.905 290.511L217.431 294.718L231.621 273.359Z" fill="#027828"/>
<path d="M214.074 285.467L200.794 287.255L203.944 295.808L215.905 290.511L214.074 285.467Z" fill="#027828"/>
<path d="M224.777 352.655L215.415 349.44C206.324 349.441 198.408 349.442 192.475 349.444L205.052 355.083L204.37 366.802L217.274 357.857L224.777 352.655Z" fill="#034DFC"/>
<path d="M278.724 318.257L282.721 324.39H301.375L294.494 309.442L278.724 318.257Z" fill="#034DFC"/>
<path d="M335.976 304.888C332.876 303.02 329.949 301.256 327.592 299.836H297.342L302.641 304.888L318.515 320.022L335.976 304.888Z" fill="#034DFC"/>
<path d="M377 299.836L367.54 309.046L370.449 320.022L377 316.996V299.836Z" fill="#78078B"/>
<path d="M358.081 318.257L351.782 324.39V329.945L356.329 331.055L374.551 335.5L370.449 320.022L367.54 309.046L358.081 318.257Z" fill="#034DFC"/>
<path d="M252.605 312.113L229.084 324.39H282.721L278.724 318.257L269.108 303.499L252.605 312.113Z" fill="#027828"/>
<path d="M177.098 351.564L181.072 349.446L184.365 344.489L165.25 351.375L174.282 353.065L177.098 351.564Z" fill="#78078B"/>
<path d="M248.369 349.435C236.683 349.437 225.347 349.438 215.415 349.44L224.777 352.655L230.287 354.548C231.296 354.894 242.762 351.284 248.369 349.435Z" fill="#027828"/>
<path d="M162.158 197.61V181.295L143.823 188.787L146.07 213.58L166.016 203.743L162.158 197.61Z" fill="#FE8C01"/>
<path d="M271.125 175.06H293.056L296.836 171.962L293.852 153.045L262.302 172.62C265.516 173.51 268.508 174.337 271.125 175.06Z" fill="#FE8C01"/>
<path d="M240.371 260.189L257.092 235.02L254.235 233.467L240.641 244.605L240.449 255.703L240.371 260.189Z" fill="#F9E803"/>
<path d="M257.092 235.02L263.292 225.688L261.635 219.886L246.808 226.192L246.421 229.219L254.235 233.467L257.092 235.02Z" fill="#F9E803"/>
<path d="M248.69 211.469L245.243 212.319L229.764 235.02L240.875 231.15L246.421 229.219L246.808 226.192L248.69 211.469Z" fill="#F9E803"/>
<path d="M240.875 231.15L229.764 235.02L219.273 250.406C220.108 250.595 221.041 250.808 222.038 251.036L240.768 237.29L240.875 231.15Z" fill="#F9E803"/>
<path d="M193.418 322.292L194.085 329.859L203.315 315.966L193.418 322.292Z" fill="#027828"/>
<path d="M208.496 308.167L217.431 294.718L215.905 290.511L203.944 295.808L205.244 299.339L208.496 308.167Z" fill="#F9E803"/>
<path d="M347.709 183.312L348.345 191.132L361.751 170.953H346.703L347.709 183.312Z" fill="#FE8C01"/>
<defs>
<linearGradient id="paint0_linear_541_1406" x1="466.5" y1="136.5" x2="72.5" y2="413.5" gradientUnits="userSpaceOnUse">
<stop stop-color="#E50402"/>
<stop offset="0.156166" stop-color="#FE8C01"/>
<stop offset="0.344664" stop-color="#F9E803"/>
<stop offset="0.583833" stop-color="#027828"/>
<stop offset="0.824349" stop-color="#034DFC"/>
<stop offset="1" stop-color="#78078B"/>
</linearGradient>
</defs>
</svg>
