<svg width="512" height="512" viewBox="0 0 512 512" fill="none" xmlns="http://www.w3.org/2000/svg">
<rect width="512" height="512" fill="#181521"/>
<path d="M187.152 203.983L196.628 188.978H60.7946L95.5428 134.486C108.179 115.533 119.235 110.795 153.983 110.795H312.719H409.856L338.385 225.306L266.914 339.817H466.716L431.968 394.308C419.333 413.262 408.276 418 373.528 418H122.394L207.685 278.218L260.202 194.506L286.46 152.65" stroke="#36397F" stroke-width="34"/>
<path d="M171.357 188.188L180.834 173.183H45L79.7482 118.692C92.3839 99.7384 103.44 95 138.188 95H296.924H394.061L322.59 209.511L251.12 324.022H450.922L416.174 378.513C403.538 397.467 392.482 402.205 357.734 402.205H106.599L191.89 262.423L244.407 178.711L270.666 136.856" stroke="#29A4E7" stroke-width="34"/>
</svg>
