<svg width="512" height="512" viewBox="0 0 512 512" fill="none" xmlns="http://www.w3.org/2000/svg">
<path d="M186.152 218.983L195.628 203.978H59.7946L94.5428 149.487C107.179 130.533 118.235 125.795 152.983 125.795H311.719H408.856L337.385 240.306L265.914 354.817H465.716L430.968 409.308C418.333 428.262 407.276 433 372.528 433H121.394L206.685 293.218L259.202 209.506L285.46 167.65" stroke="#36397F" stroke-width="34"/>
<path d="M171.357 188.188L180.834 173.183H45L79.7482 118.692C92.3839 99.7384 103.44 95 138.188 95H296.924H394.061L322.59 209.511L251.12 324.022H450.922L416.174 378.513C403.538 397.467 392.482 402.205 357.734 402.205H106.599L191.89 262.423L244.407 178.711L270.666 136.856" stroke="#29A4E7" stroke-width="34"/>
</svg>
