<svg width="512" height="512" viewBox="0 0 512 512" fill="none" xmlns="http://www.w3.org/2000/svg">
<path d="M100.5 179.016H159.614C172.847 174.331 182.244 168.884 188.638 162L124 165.377L92.9382 167L100.5 179.016Z" fill="#2D60B3"/>
<path d="M69.8677 130.341V98L33.5 112.853L37.9569 162L77.5195 142.5L69.8677 130.341Z" fill="#2D60B3"/>
<path d="M53.5 69.342L16 32V95.5L53.5 69.342Z" fill="#2D60B3"/>
<path d="M132.663 51L112.5 32H66L63.9548 41.5L107 55.6517L129.004 62.8859L132.663 51Z" fill="#2D60B3"/>
<path d="M204 62.8859C185.929 57.8336 172.372 53.9964 171.073 53.5L157.826 74.7115L151 85.6408H210L204 62.8859Z" fill="#2D60B3"/>
<path d="M251.56 57.5C253.951 48.8593 256.672 38.8096 258.5 32H215L251.56 57.5Z" fill="#2D60B3"/>
<path d="M360.5 32L380 44.271L408 61.8909C408.4 58.3782 416.5 40.5 420.5 32H360.5Z" fill="#2D60B3"/>
<path d="M400.77 85.6408L424.5 72.2741L408 61.8909L380 44.271L336.996 79.5L329.5 85.6408H400.77Z" fill="#2D60B3"/>
<path d="M424.5 72.2741L400.77 85.6408L387.81 105L397.5 104.42L437.902 102L435.907 77.5L435 66.3597L424.5 72.2741Z" fill="#2D60B3"/>
<path d="M395 183.936L403.932 170.5L400.77 138.011L398.773 117.5C393.261 122.928 384.228 131.641 377.172 138.011L390.5 183.668L395 183.936Z" fill="#2D60B3"/>
<path d="M337.27 180.5L359 181.793C359.293 180.155 363.492 161.976 367.203 146C368.553 140.188 369.838 134.668 370.847 130.341L337.27 180.5Z" fill="#2D60B3"/>
<path d="M290.077 251L290.825 261.5L322 249.407L339 242.813L345.014 228.5L341.177 219.5L306.477 226.5L290.077 251Z" fill="#2D60B3"/>
<path d="M361.72 234L339 242.813L322 249.407L315.529 293L313.525 306.5L361.72 234Z" fill="#2D60B3"/>
<path d="M202.613 381.659L249.267 357.322L253 352.027L236.524 331L202.613 381.659Z" fill="#2D60B3"/>
<path d="M295.92 332.984L282 340.246L301.073 369.5L332.352 352.027L348.511 343L338 332.984H295.92Z" fill="#2D60B3"/>
<path d="M370 381.659L379.996 373L348.511 343L332.352 352.027L346 381.659H370Z" fill="#2D60B3"/>
<path d="M496 332.984H398C402.677 335.8 408.482 339.296 414.631 343C434.339 354.874 457.575 368.89 458.475 369.5L477.237 351.242L496 332.984Z" fill="#2D60B3"/>
<path d="M496 422V367L483.007 373L491.143 403.681L496 422Z" fill="#2D60B3"/>
<path d="M445.98 403.681C445.98 425.487 439.133 431.386 419.855 431.326L451.5 451.554L466.5 461.143L463.612 444.5L455 394.869L445.98 392.67V403.681Z" fill="#2D60B3"/>
<path d="M466.5 461.143L496 480V437L463.612 444.5L466.5 461.143Z" fill="#2D60B3"/>
<path d="M422.5 480L431.5 471.172L395.928 437L396.482 448.5L398 480H422.5Z" fill="#2D60B3"/>
<path d="M338 480L382.5 456.031L338 437.688L313.525 465.732L301.073 480H338Z" fill="#2D60B3"/>
<path d="M276.5 434.974L262.539 431.303L240.863 431.305C229.742 434.97 207 442.127 205 441.44L229.5 449.85L267.81 463L276.5 434.974Z" fill="#2D60B3"/>
<path d="M133 480H207.5C208.93 478.162 210.66 475.922 212.514 473.5L179.187 448L153.594 465.732L140 475.15L133 480Z" fill="#2D60B3"/>
<path d="M153.594 465.732L154.947 442.5L130 431.322C115.85 431.324 107.383 431.326 107.383 431.326L99.5 435.525C102.305 438.223 105.706 441.5 109.33 445C122.93 458.136 139.684 474.424 140 475.15L153.594 465.732Z" fill="#2D60B3"/>
<path d="M47.9166 463L16 480H65L59.1812 457L47.9166 463Z" fill="#2D60B3"/>
<path d="M49.2082 431.326C49.0581 434.95 48.8498 439.994 48.644 445L62.5 431.326L68.3167 408.5L69.5572 401.5L49.2082 431.326Z" fill="#2D60B3"/>
<path d="M76 435.151L113.915 421.5L118.9 414L112 413.25L93.6084 411.25L68.3167 408.5L62.5 431.326L76 435.151Z" fill="#2D60B3"/>
<path d="M118.9 414L133.192 392.5L131.871 377.5L131.298 371L108.5 379.95L112 413.25L118.9 414Z" fill="#2D60B3"/>
<path d="M129 344.909L96.9502 368L95.6367 385L108.5 379.95L131.298 371L129 344.909Z" fill="#2D60B3"/>
<path d="M154.464 360.5L137.895 338.5L129 344.909L131.298 371L131.871 377.5L151.5 364.96L154.464 360.5Z" fill="#2D60B3"/>
<path d="M172.841 304.5L146.5 308.046L152.748 325L176.472 314.5L172.841 304.5Z" fill="#2D60B3"/>
<path d="M179.5 257.375L167 258.676L153.816 278L162.5 276.02L193.572 268.937L179.5 257.375Z" fill="#2D60B3"/>
<path d="M225 254.392L225.154 245.5C225.162 245.049 216.27 242.777 206 240.314L208.151 254.392L211.301 275L225 254.392Z" fill="#2D60B3"/>
<path d="M226 196.829L203.962 204.5L183.153 235C184.809 235.374 186.66 235.796 188.638 236.249L225.789 209L226 196.829Z" fill="#2D60B3"/>
<path d="M265.462 168.5L261.033 153L241.5 157.815L237.767 187L267.177 174.5L265.462 168.5Z" fill="#2D60B3"/>
<path d="M272.021 138C269.534 150.751 266.142 167.517 265.462 168.5L267.177 174.5L270.464 186L288.08 159.5L272.021 138Z" fill="#2D60B3"/>
<path d="M261.033 153L254.557 130.341L234.663 159.5L241.5 157.815L261.033 153Z" fill="#2D60B3"/>
<path d="M16 120V179.016H39.5L37.9569 162L33.5 112.853L16 120Z" fill="#3066BE"/>
<path d="M122 85.6408L129.004 62.8859L107 55.6517C106.2 57.1303 93.3333 76.2605 87 85.6408H122Z" fill="#3066BE"/>
<path d="M39.5 179.016H100.5L92.9382 167L77.5195 142.5L37.9569 162L39.5 179.016Z" fill="#3066BE"/>
<path d="M57.1735 73L69.8677 85.6408H87C93.3333 76.2605 106.2 57.1303 107 55.6517L63.9548 41.5L57.1735 73Z" fill="#3066BE"/>
<path d="M331.078 42L329.5 32H258.5C256.672 38.8096 253.951 48.8593 251.56 57.5C248.936 66.9835 246.709 74.7695 246.5 74.7115C254.097 76.8181 261.56 78.8848 268.5 80.8047L331.078 42Z" fill="#3066BE"/>
<path fill-rule="evenodd" clip-rule="evenodd" d="M473 32H420.5C416.5 40.5 408.4 58.3782 408 61.8909L424.5 72.2741L435 66.3597L455 55.0942C453.8 55.7701 466.5 39.9797 473 32ZM360.5 32L380 44.271L336.996 79.5L331.078 42L329.5 32H360.5ZM246.5 74.7115C231.905 70.6641 216.817 66.4694 204 62.8859C185.929 57.8336 172.372 53.9964 171.073 53.5L184.5 32H215L251.56 57.5C248.936 66.9835 246.709 74.7695 246.5 74.7115Z" fill="#3066BE"/>
<path d="M455 55.0942L496 32H473C466.5 39.9797 453.8 55.7701 455 55.0942Z" fill="#3066BE"/>
<path d="M364.5 182.121L355.307 204L383.657 201L395 183.936L390.5 183.668L364.5 182.121Z" fill="#3066BE"/>
<path d="M290.825 261.5L290.077 251L260.5 295.184L262.539 338.5L293.213 295L291.681 273.5L290.825 261.5Z" fill="#3066BE"/>
<path fill-rule="evenodd" clip-rule="evenodd" d="M295.92 332.984L313.525 306.5L315.529 293L322 249.407L290.825 261.5L291.681 273.5L293.213 295L295.92 332.984ZM339 242.813L361.72 234L383.657 201L355.307 204L345.014 228.5L339 242.813ZM367.203 146C368.392 145.674 372.313 142.398 377.172 138.011C384.228 131.641 393.261 122.928 398.773 117.5L400.77 138.011C403.299 138.402 419.443 136.5 427.198 135.5L439.164 117.5L437.902 102L397.5 104.42L387.81 105L370.847 130.341C369.838 134.668 368.553 140.188 367.203 146Z" fill="#3066BE"/>
<path fill-rule="evenodd" clip-rule="evenodd" d="M445.98 381.659L458.475 369.5L477.237 351.242L483.007 373L491.143 403.681L496 422V437L463.612 444.5L455 394.869L445.98 392.67V381.659ZM309 381.659H346L332.352 352.027L301.073 369.5L309 381.659Z" fill="#3066BE"/>
<path d="M395.928 437L390 431.305C372.446 431.301 348.747 431.299 322.5 431.299L338 437.688L382.5 456.031L396.482 448.5L395.928 437Z" fill="#3066BE"/>
<path fill-rule="evenodd" clip-rule="evenodd" d="M82 480H65L59.1812 457L84 443.781L86.5 474.237L82 480ZM212.514 473.5L179.187 448L194.071 437.688L205 441.44L229.5 449.85L267.81 463L262.539 480H247H207.5C208.93 478.162 210.66 475.922 212.514 473.5Z" fill="#3066BE"/>
<path d="M48.644 445C48.2976 453.427 47.9584 461.745 47.9166 463L59.1812 457L84 443.781L93.9139 438.5L76 435.151L62.5 431.326L48.644 445Z" fill="#3066BE"/>
<path d="M162.5 276.02L153.816 278L131.984 310L146.5 308.046L172.841 304.5L162.5 276.02Z" fill="#3066BE"/>
<path fill-rule="evenodd" clip-rule="evenodd" d="M237.767 187L267.177 174.5L270.464 186L258.166 204.5L252.5 201.422L237 193L237.767 187ZM225.537 223.5L225.789 209L188.638 236.249C193.962 237.47 200.201 238.922 206 240.314C216.27 242.777 225.162 245.049 225.154 245.5L225.537 223.5ZM193.572 268.937L162.5 276.02L172.841 304.5L176.472 314.5L179.5 322.839L207.645 280.5L193.572 268.937ZM152.748 325L155.328 332H133H116.974L131.984 310L146.5 308.046L152.748 325ZM93.6084 411.25L95.6367 385L108.5 379.95L112 413.25L93.6084 411.25ZM76 435.151L113.915 421.5L107.383 431.326L99.5 435.525L93.9139 438.5L76 435.151Z" fill="#3066BE"/>
<path d="M237 193L226 196.829L225.789 209L225.537 223.5L252.5 201.422L237 193Z" fill="#3066BE"/>
<path d="M273.5 130.341H254.557L261.033 153L265.462 168.5C266.142 167.517 269.534 150.751 272.021 138C272.571 135.179 273.077 132.555 273.5 130.341Z" fill="#3066BE"/>
<path d="M69.8677 130.341L77.5195 142.5L92.9382 167L124 165.377L156 130.341H69.8677Z" fill="#336ECC"/>
<path d="M188.638 162C196.215 153.841 199.574 143.663 200.096 130.341H156L124 165.377L188.638 162Z" fill="#336ECC"/>
<path d="M69.8677 98V85.6408L57.1735 73L53.5 69.342L16 95.5V120L33.5 112.853L69.8677 98Z" fill="#336ECC"/>
<path d="M16 32L53.5 69.342L57.1735 73L63.9548 41.5L66 32H16Z" fill="#336ECC"/>
<path fill-rule="evenodd" clip-rule="evenodd" d="M360.5 32L380 44.271L336.996 79.5L329.5 85.6408H286H210L204 62.8859C216.817 66.4694 231.905 70.6641 246.5 74.7115C254.097 76.8181 261.56 78.8848 268.5 80.8047L331.078 42L329.5 32H360.5ZM184.5 32L171.073 53.5L157.826 74.7115L151 85.6408H122L129.004 62.8859L132.663 51L112.5 32H184.5Z" fill="#336ECC"/>
<path fill-rule="evenodd" clip-rule="evenodd" d="M295.92 332.984L282 340.246L249.267 357.322L253 352.027L236.524 331L260.5 295.184L262.539 338.5L293.213 295L295.92 332.984ZM345.014 228.5L355.307 204L364.5 182.121L390.5 183.668L377.172 138.011C372.313 142.398 368.392 145.674 367.203 146C363.492 161.976 359.293 180.155 359 181.793L337.27 180.5L329.5 192.108L306.477 226.5L341.177 219.5L345.014 228.5ZM400.77 138.011L403.932 170.5L427.198 135.5C419.443 136.5 403.299 138.402 400.77 138.011ZM439.164 117.5L465.754 77.5L496 32L455 55.0942L435 66.3597L435.907 77.5L437.902 102L439.164 117.5Z" fill="#336ECC"/>
<path fill-rule="evenodd" clip-rule="evenodd" d="M338 332.984H398C402.677 335.8 408.482 339.296 414.631 343C434.339 354.874 457.575 368.89 458.475 369.5L445.98 381.659H370L379.996 373L348.511 343L338 332.984ZM483.007 373L477.237 351.242L496 332.984V367L483.007 373ZM282 340.246L301.073 369.5L309 381.659H202.613L249.267 357.322L282 340.246Z" fill="#336ECC"/>
<path fill-rule="evenodd" clip-rule="evenodd" d="M133 480H82L86.5 474.237L84 443.781L93.9139 438.5L99.5 435.525C102.305 438.223 105.706 441.5 109.33 445C122.93 458.136 139.684 474.424 140 475.15L133 480ZM154.947 442.5L130 431.322C141.769 431.32 157.469 431.317 175.5 431.314C195.202 431.311 217.686 431.308 240.863 431.305C229.742 434.97 207 442.127 205 441.44L194.071 437.688L179.187 448L153.594 465.732L154.947 442.5ZM262.539 480L267.81 463L276.5 434.974L262.539 431.303C275.487 431.302 288.449 431.301 301.073 431.3C308.351 431.3 315.516 431.3 322.5 431.299L338 437.688L313.525 465.732L301.073 480H262.539ZM395.928 437L390 431.305C405.814 431.309 416.642 431.316 419.855 431.326L451.5 451.554L466.5 461.143L496 480H422.5L431.5 471.172L395.928 437ZM382.5 456.031L396.482 448.5L398 480H338L382.5 456.031Z" fill="#336ECC"/>
<path fill-rule="evenodd" clip-rule="evenodd" d="M273.5 130.341C273.077 132.555 272.571 135.179 272.021 138L288.08 159.5L307.463 130.341H273.5ZM237.767 187L241.5 157.815L234.663 159.5L203.962 204.5L226 196.829L237 193L237.767 187ZM225 254.392L258.166 204.5L252.5 201.422L225.537 223.5L225.154 245.5L225 254.392ZM183.153 235C184.809 235.374 186.66 235.796 188.638 236.249C193.962 237.47 200.201 238.922 206 240.314L208.151 254.392L211.301 275L207.645 280.5L193.572 268.937L179.5 257.375L167 258.676L183.153 235ZM179.5 322.839L176.472 314.5L152.748 325L155.328 332H133H116.974L97.5298 360.5L69.5572 401.5L68.3167 408.5L93.6084 411.25L95.6367 385L96.9502 368L129 344.909L137.895 338.5L154.464 360.5L161.777 349.5L179.5 322.839ZM133.192 392.5L151.5 364.96L131.871 377.5L133.192 392.5ZM49.2082 431.326C49.0581 434.95 48.8498 439.994 48.644 445C48.2976 453.427 47.9584 461.745 47.9166 463L16 480L49.2082 431.326Z" fill="#336ECC"/>
</svg>
