<svg width="512" height="512" viewBox="0 0 512 512" fill="none" xmlns="http://www.w3.org/2000/svg">
<rect width="512" height="512" fill="#DFD8F2"/>
<path d="M217 228L223 218.5H137L159 184C167 172 174 169 196 169H296.5H358L312.75 241.5L267.5 314H394L372 348.5C364 360.5 357 363.5 335 363.5H176L230 275L263.25 222L279.875 195.5" stroke="#36397F" stroke-width="20"/>
<path d="M207 218L213 208.5H127L149 174C157 162 164 159 186 159H286.5H348L302.75 231.5L257.5 304H384L362 338.5C354 350.5 347 353.5 325 353.5H166L220 265L253.25 212L269.875 185.5" stroke="#29A4E7" stroke-width="20"/>
<path d="M496 256C496 388.548 388.548 496 256 496C123.452 496 16 388.548 16 256C16 123.452 123.452 16 256 16C388.548 16 496 123.452 496 256ZM34.5484 256C34.5484 378.304 133.696 477.452 256 477.452C378.304 477.452 477.452 378.304 477.452 256C477.452 133.696 378.304 34.5484 256 34.5484C133.696 34.5484 34.5484 133.696 34.5484 256Z" fill="#315FA4"/>
</svg>
