<svg width="512" height="512" viewBox="0 0 512 512" fill="none" xmlns="http://www.w3.org/2000/svg">
<path d="M496 256C496 388.548 388.548 496 256 496C123.452 496 16 388.548 16 256C16 123.452 123.452 16 256 16C388.548 16 496 123.452 496 256ZM34.5484 256C34.5484 378.304 133.696 477.452 256 477.452C378.304 477.452 477.452 378.304 477.452 256C477.452 133.696 378.304 34.5484 256 34.5484C133.696 34.5484 34.5484 133.696 34.5484 256Z" fill="#3066BE"/>
<path d="M177.602 222.12H207.406C214.077 219.758 218.815 217.012 222.038 213.542L189.45 215.244L173.79 216.062L177.602 222.12Z" fill="#2D60B3"/>
<path d="M162.158 197.58V181.275L143.823 188.763L146.07 213.542L166.016 203.71L162.158 197.58Z" fill="#2D60B3"/>
<path d="M153.906 166.827L135 148V180.015L153.906 166.827Z" fill="#2D60B3"/>
<path d="M193.818 157.579L183.652 148H160.208L159.177 152.79L180.879 159.924L191.973 163.572L193.818 157.579Z" fill="#2D60B3"/>
<path d="M229.783 163.572C220.673 161.024 213.838 159.09 213.182 158.84L206.504 169.534L203.062 175.044H232.808L229.783 163.572Z" fill="#2D60B3"/>
<path d="M253.761 160.856C254.967 156.5 256.339 151.433 257.26 148H235.329L253.761 160.856Z" fill="#2D60B3"/>
<path d="M308.685 148L318.517 154.187L332.633 163.07C332.835 161.299 336.919 152.285 338.935 148H308.685Z" fill="#2D60B3"/>
<path d="M328.988 175.044L340.952 168.305L332.633 163.07L318.517 154.187L296.836 171.948L293.056 175.044H328.988Z" fill="#2D60B3"/>
<path d="M340.952 168.305L328.988 175.044L322.454 184.804L327.34 184.512L347.709 183.292L346.703 170.94L346.246 165.323L340.952 168.305Z" fill="#2D60B3"/>
<path d="M326.079 224.601L330.582 217.827L328.988 201.447L327.981 191.106C325.202 193.843 320.648 198.236 317.091 201.447L323.81 224.466L326.079 224.601Z" fill="#2D60B3"/>
<path d="M296.974 222.869L307.929 223.521C308.077 222.695 310.194 213.53 312.065 205.475C312.745 202.545 313.393 199.762 313.902 197.58L296.974 222.869Z" fill="#2D60B3"/>
<path d="M273.18 258.412L273.558 263.706L289.275 257.61L297.846 254.285L300.878 247.069L298.943 242.531L281.449 246.06L273.18 258.412Z" fill="#2D60B3"/>
<path d="M309.301 249.842L297.846 254.285L289.275 257.61L286.013 279.587L285.002 286.394L309.301 249.842Z" fill="#2D60B3"/>
<path d="M229.084 324.286L252.605 312.016L254.487 309.347L246.181 298.746L229.084 324.286Z" fill="#2D60B3"/>
<path d="M276.126 299.746L269.108 303.407L278.724 318.156L294.494 309.347L302.641 304.796L297.342 299.746H276.126Z" fill="#2D60B3"/>
<path d="M313.475 324.286L318.515 319.921L302.641 304.796L294.494 309.347L301.375 324.286H313.475Z" fill="#2D60B3"/>
<path d="M377 299.746H327.592C329.949 301.166 332.876 302.928 335.976 304.796C345.913 310.782 357.628 317.849 358.081 318.156L367.54 308.951L377 299.746Z" fill="#2D60B3"/>
<path d="M377 344.625V316.896L370.449 319.921L374.551 335.389L377 344.625Z" fill="#2D60B3"/>
<path d="M351.782 335.389C351.782 346.383 348.329 349.357 338.61 349.327L354.565 359.525L362.127 364.359L360.671 355.969L356.329 330.947L351.782 329.838V335.389Z" fill="#2D60B3"/>
<path d="M362.127 364.359L377 373.867V352.188L360.671 355.969L362.127 364.359Z" fill="#2D60B3"/>
<path d="M339.944 373.867L344.481 369.416L326.547 352.188L326.826 357.985L327.592 373.867H339.944Z" fill="#2D60B3"/>
<path d="M297.342 373.867L319.777 361.782L297.342 352.535L285.002 366.673L278.724 373.867H297.342Z" fill="#2D60B3"/>
<path d="M266.335 351.166L259.297 349.315L248.369 349.316C242.762 351.164 231.296 354.772 230.287 354.426L242.64 358.666L261.954 365.296L266.335 351.166Z" fill="#2D60B3"/>
<path d="M193.987 373.867H231.548C232.269 372.94 233.141 371.811 234.076 370.59L217.274 357.733L204.37 366.673L197.517 371.422L193.987 373.867Z" fill="#2D60B3"/>
<path d="M204.37 366.673L205.052 354.96L192.475 349.325C185.341 349.326 181.072 349.327 181.072 349.327L177.098 351.444C178.512 352.804 180.227 354.456 182.054 356.221C188.911 362.843 197.357 371.055 197.517 371.422L204.37 366.673Z" fill="#2D60B3"/>
<path d="M151.091 365.296L135 373.867H159.704L156.771 362.271L151.091 365.296Z" fill="#2D60B3"/>
<path d="M151.742 349.327C151.667 351.154 151.562 353.697 151.458 356.221L158.444 349.327L161.376 337.819L162.002 334.29L151.742 349.327Z" fill="#2D60B3"/>
<path d="M165.25 351.255L184.365 344.373L186.879 340.592L183.4 340.213L174.128 339.205L161.376 337.819L158.444 349.327L165.25 351.255Z" fill="#2D60B3"/>
<path d="M186.879 340.592L194.085 329.752L193.418 322.19L193.13 318.913L181.635 323.425L183.4 340.213L186.879 340.592Z" fill="#2D60B3"/>
<path d="M191.971 305.758L175.812 317.4L175.15 325.971L181.635 323.425L193.13 318.913L191.971 305.758Z" fill="#2D60B3"/>
<path d="M204.809 313.619L196.456 302.527L191.971 305.758L193.13 318.913L193.418 322.19L203.315 315.867L204.809 313.619Z" fill="#2D60B3"/>
<path d="M214.074 285.385L200.794 287.173L203.944 295.721L215.905 290.427L214.074 285.385Z" fill="#2D60B3"/>
<path d="M217.431 261.626L211.129 262.282L204.482 272.025L208.86 271.027L224.526 267.456L217.431 261.626Z" fill="#2D60B3"/>
<path d="M240.371 260.123L240.449 255.64C240.453 255.412 235.97 254.267 230.792 253.025L231.876 260.123L233.464 270.512L240.371 260.123Z" fill="#2D60B3"/>
<path d="M240.875 231.101L229.764 234.969L219.273 250.346C220.108 250.535 221.041 250.747 222.038 250.976L240.768 237.238L240.875 231.101Z" fill="#2D60B3"/>
<path d="M260.771 216.819L258.537 209.004L248.69 211.432L246.808 226.146L261.635 219.844L260.771 216.819Z" fill="#2D60B3"/>
<path d="M264.077 201.442C262.823 207.87 261.113 216.323 260.771 216.819L261.635 219.844L263.292 225.642L272.174 212.281L264.077 201.442Z" fill="#2D60B3"/>
<path d="M258.537 209.004L255.273 197.58L245.243 212.281L248.69 211.432L258.537 209.004Z" fill="#2D60B3"/>
<path d="M135 192.367V222.12H146.848L146.07 213.542L143.823 188.763L135 192.367Z" fill="#3066BE"/>
<path d="M188.442 175.044L191.973 163.572L180.879 159.924C180.476 160.67 173.989 170.315 170.796 175.044H188.442Z" fill="#3066BE"/>
<path d="M146.848 222.12H177.602L173.79 216.062L166.016 203.71L146.07 213.542L146.848 222.12Z" fill="#3066BE"/>
<path d="M155.758 168.671L162.158 175.044H170.796C173.989 170.315 180.476 160.67 180.879 159.924L159.177 152.79L155.758 168.671Z" fill="#3066BE"/>
<path d="M293.852 153.042L293.056 148H257.26C256.339 151.433 254.967 156.5 253.761 160.856C252.438 165.637 251.316 169.563 251.21 169.534C255.04 170.596 258.803 171.638 262.302 172.606L293.852 153.042Z" fill="#3066BE"/>
<path fill-rule="evenodd" clip-rule="evenodd" d="M365.404 148H338.935C336.919 152.285 332.835 161.299 332.633 163.07L340.952 168.305L346.246 165.323L356.329 159.643C355.724 159.984 362.127 152.023 365.404 148ZM308.685 148L318.517 154.187L296.836 171.948L293.852 153.042L293.056 148H308.685ZM251.21 169.534C243.852 167.493 236.245 165.378 229.783 163.572C220.673 161.024 213.838 159.09 213.182 158.84L219.952 148H235.329L253.761 160.856C252.438 165.637 251.316 169.563 251.21 169.534Z" fill="#3066BE"/>
<path d="M356.329 159.643L377 148H365.404C362.127 152.023 355.724 159.984 356.329 159.643Z" fill="#3066BE"/>
<path d="M310.702 223.686L306.067 234.717L320.36 233.204L326.079 224.601L323.81 224.466L310.702 223.686Z" fill="#3066BE"/>
<path d="M273.558 263.706L273.18 258.412L258.269 280.689L259.297 302.527L274.761 280.596L273.989 269.756L273.558 263.706Z" fill="#3066BE"/>
<path fill-rule="evenodd" clip-rule="evenodd" d="M276.126 299.746L285.002 286.394L286.013 279.587L289.275 257.61L273.558 263.706L273.989 269.756L274.761 280.596L276.126 299.746ZM297.846 254.285L309.301 249.842L320.36 233.204L306.067 234.717L300.878 247.069L297.846 254.285ZM312.065 205.475C312.664 205.311 314.641 203.659 317.091 201.447C320.648 198.236 325.202 193.843 327.981 191.106L328.988 201.447C330.263 201.644 338.402 200.685 342.312 200.181L348.345 191.106L347.709 183.292L327.34 184.512L322.454 184.804L313.902 197.58C313.393 199.762 312.745 202.545 312.065 205.475Z" fill="#3066BE"/>
<path fill-rule="evenodd" clip-rule="evenodd" d="M351.782 324.286L358.081 318.156L367.54 308.951L370.449 319.921L374.551 335.389L377 344.625V352.188L360.671 355.969L356.329 330.947L351.782 329.838V324.286ZM282.721 324.286H301.375L294.494 309.347L278.724 318.156L282.721 324.286Z" fill="#3066BE"/>
<path d="M326.547 352.188L323.558 349.316C314.708 349.314 302.76 349.313 289.527 349.313L297.342 352.535L319.777 361.782L326.826 357.985L326.547 352.188Z" fill="#3066BE"/>
<path fill-rule="evenodd" clip-rule="evenodd" d="M168.275 373.867H159.704L156.771 362.271L169.283 355.606L170.544 370.961L168.275 373.867ZM234.076 370.59L217.274 357.733L224.777 352.535L230.287 354.426L242.64 358.666L261.954 365.296L259.297 373.867H251.463H231.548C232.269 372.94 233.141 371.811 234.076 370.59Z" fill="#3066BE"/>
<path d="M151.458 356.221C151.283 360.469 151.112 364.663 151.091 365.296L156.771 362.271L169.283 355.606L174.282 352.944L165.25 351.255L158.444 349.327L151.458 356.221Z" fill="#3066BE"/>
<path d="M208.86 271.027L204.482 272.025L193.475 288.158L200.794 287.173L214.074 285.385L208.86 271.027Z" fill="#3066BE"/>
<path fill-rule="evenodd" clip-rule="evenodd" d="M246.808 226.146L261.635 219.844L263.292 225.642L257.092 234.969L254.235 233.417L246.421 229.171L246.808 226.146ZM240.641 244.548L240.768 237.238L222.038 250.976C224.722 251.591 227.868 252.323 230.792 253.025C235.97 254.267 240.453 255.412 240.449 255.64L240.641 244.548ZM224.526 267.456L208.86 271.027L214.074 285.385L215.905 290.427L217.431 294.631L231.621 273.285L224.526 267.456ZM203.944 295.721L205.244 299.25H193.987H185.908L193.475 288.158L200.794 287.173L203.944 295.721ZM174.128 339.205L175.15 325.971L181.635 323.425L183.4 340.213L174.128 339.205ZM165.25 351.255L184.365 344.373L181.072 349.327L177.098 351.444L174.282 352.944L165.25 351.255Z" fill="#3066BE"/>
<path d="M246.421 229.171L240.875 231.101L240.768 237.238L240.641 244.548L254.235 233.417L246.421 229.171Z" fill="#3066BE"/>
<path d="M264.823 197.58H255.273L258.537 209.004L260.771 216.819C261.113 216.323 262.823 207.87 264.077 201.442C264.355 200.02 264.61 198.696 264.823 197.58Z" fill="#3066BE"/>
<path d="M162.158 197.58L166.016 203.71L173.79 216.062L189.45 215.244L205.583 197.58H162.158Z" fill="#336ECC"/>
<path d="M222.038 213.542C225.859 209.428 227.552 204.297 227.815 197.58H205.583L189.45 215.244L222.038 213.542Z" fill="#336ECC"/>
<path d="M162.158 181.275V175.044L155.758 168.671L153.906 166.827L135 180.015V192.367L143.823 188.763L162.158 181.275Z" fill="#336ECC"/>
<path d="M135 148L153.906 166.827L155.758 168.671L159.177 152.79L160.208 148H135Z" fill="#336ECC"/>
<path fill-rule="evenodd" clip-rule="evenodd" d="M308.685 148L318.517 154.187L296.836 171.948L293.056 175.044H271.125H232.808L229.783 163.572C236.245 165.378 243.852 167.493 251.21 169.534C255.04 170.596 258.803 171.638 262.302 172.606L293.852 153.042L293.056 148H308.685ZM219.952 148L213.182 158.84L206.504 169.534L203.062 175.044H188.442L191.973 163.572L193.818 157.579L183.652 148H219.952Z" fill="#336ECC"/>
<path fill-rule="evenodd" clip-rule="evenodd" d="M276.126 299.746L269.108 303.407L252.605 312.016L254.487 309.347L246.181 298.746L258.269 280.689L259.297 302.527L274.761 280.596L276.126 299.746ZM300.878 247.069L306.067 234.717L310.702 223.686L323.81 224.466L317.091 201.447C314.641 203.659 312.664 205.311 312.065 205.475C310.194 213.53 308.077 222.695 307.929 223.521L296.974 222.869L293.056 228.721L281.449 246.06L298.943 242.531L300.878 247.069ZM328.988 201.447L330.582 217.827L342.312 200.181C338.402 200.685 330.263 201.644 328.988 201.447ZM348.345 191.106L361.751 170.94L377 148L356.329 159.643L346.246 165.323L346.703 170.94L347.709 183.292L348.345 191.106Z" fill="#336ECC"/>
<path fill-rule="evenodd" clip-rule="evenodd" d="M297.342 299.746H327.592C329.949 301.166 332.876 302.928 335.976 304.796C345.913 310.782 357.628 317.849 358.081 318.156L351.782 324.286H313.475L318.515 319.921L302.641 304.796L297.342 299.746ZM370.449 319.921L367.54 308.951L377 299.746V316.896L370.449 319.921ZM269.108 303.407L278.724 318.156L282.721 324.286H229.084L252.605 312.016L269.108 303.407Z" fill="#336ECC"/>
<path fill-rule="evenodd" clip-rule="evenodd" d="M193.987 373.867H168.275L170.544 370.961L169.283 355.606L174.282 352.944L177.098 351.444C178.512 352.804 180.227 354.456 182.054 356.221C188.911 362.843 197.357 371.055 197.517 371.422L193.987 373.867ZM205.052 354.96L192.475 349.325C198.408 349.324 206.324 349.322 215.415 349.321C225.347 349.319 236.683 349.318 248.369 349.316C242.762 351.164 231.296 354.772 230.287 354.426L224.777 352.535L217.274 357.733L204.37 366.673L205.052 354.96ZM259.297 373.867L261.954 365.296L266.335 351.166L259.297 349.315C265.825 349.315 272.36 349.314 278.724 349.314C282.393 349.314 286.006 349.314 289.527 349.313L297.342 352.535L285.002 366.673L278.724 373.867H259.297ZM326.547 352.188L323.558 349.316C331.531 349.318 336.99 349.322 338.61 349.327L354.565 359.525L362.127 364.359L377 373.867H339.944L344.481 369.416L326.547 352.188ZM319.777 361.782L326.826 357.985L327.592 373.867H297.342L319.777 361.782Z" fill="#336ECC"/>
<path fill-rule="evenodd" clip-rule="evenodd" d="M264.823 197.58C264.61 198.696 264.355 200.02 264.077 201.442L272.174 212.281L281.946 197.58H264.823ZM246.808 226.146L248.69 211.432L245.243 212.281L229.764 234.969L240.875 231.101L246.421 229.171L246.808 226.146ZM240.371 260.123L257.092 234.969L254.235 233.417L240.641 244.548L240.449 255.64L240.371 260.123ZM219.273 250.346C220.108 250.535 221.041 250.747 222.038 250.976C224.722 251.591 227.868 252.323 230.792 253.025L231.876 260.123L233.464 270.512L231.621 273.285L224.526 267.456L217.431 261.626L211.129 262.282L219.273 250.346ZM217.431 294.631L215.905 290.427L203.944 295.721L205.244 299.25H193.987H185.908L176.105 313.619L162.002 334.29L161.376 337.819L174.128 339.205L175.15 325.971L175.812 317.4L191.971 305.758L196.456 302.527L204.809 313.619L208.496 308.073L217.431 294.631ZM194.085 329.752L203.315 315.867L193.418 322.19L194.085 329.752ZM151.742 349.327C151.667 351.154 151.562 353.697 151.458 356.221C151.283 360.469 151.112 364.663 151.091 365.296L135 373.867L151.742 349.327Z" fill="#336ECC"/>
</svg>
