<svg width="512" height="512" viewBox="0 0 512 512" fill="none" xmlns="http://www.w3.org/2000/svg">
    <g clip-path="url(#clip0_1001_45)">
        <rect width="512" height="512" fill="#D2D0D9" />
        <path
            d="M207.239 218.724L213.672 208.538H121.467L145.054 171.549C153.631 158.683 161.137 155.467 184.724 155.467H292.475H358.413L309.898 233.198L261.383 310.929H397.01L373.423 347.918C364.845 360.784 357.34 364 333.753 364H163.281L221.177 269.115L256.826 212.291L274.651 183.879"
            stroke="#211C2F" stroke-width="20" />
        <path
            d="M199.772 211.257L206.205 201.072H114L137.587 164.082C146.165 151.216 153.67 148 177.257 148H285.008H350.946L302.431 225.731L253.916 303.462H389.543L365.956 340.451C357.379 353.317 349.873 356.534 326.286 356.534H155.814L213.71 261.648L249.359 204.824L267.184 176.412"
            stroke="url(#paint0_linear_1001_45)" stroke-width="20" />
        <path
            d="M481.137 173.357C526.471 297.911 462.251 435.633 337.696 480.968C213.141 526.302 75.419 462.081 30.0848 337.526C-15.2494 212.972 48.9715 75.2494 173.526 29.9152C298.081 -15.419 435.803 48.8019 481.137 173.357ZM47.5146 331.182C89.3452 446.111 216.424 505.368 331.352 463.538C446.28 421.707 505.538 294.629 463.707 179.7C421.877 64.772 294.799 5.51443 179.87 47.345C64.9417 89.1755 5.6841 216.254 47.5146 331.182Z"
            fill="url(#paint1_linear_1001_45)" />
    </g>
    <defs>
        <linearGradient id="paint0_linear_1001_45" x1="354.298" y1="148" x2="320.456" y2="371.517"
            gradientUnits="userSpaceOnUse">
            <stop stop-color="#E50402" />
            <stop offset="0.21631" stop-color="#FE8C01" />
            <stop offset="0.329771" stop-color="#F9E803" />
            <stop offset="0.489355" stop-color="#12B90F" />
            <stop offset="0.640292" stop-color="#02772D" />
            <stop offset="0.788703" stop-color="#034DFC" />
            <stop offset="0.991562" stop-color="#78078B" />
        </linearGradient>
        <linearGradient id="paint1_linear_1001_45" x1="412.545" y1="71.1529" x2="137.046"
            y2="466.204" gradientUnits="userSpaceOnUse">
            <stop stop-color="#E50402" />
            <stop offset="0.156166" stop-color="#FE8C01" />
            <stop offset="0.344664" stop-color="#F9E803" />
            <stop offset="0.583833" stop-color="#027828" />
            <stop offset="0.824349" stop-color="#034DFC" />
            <stop offset="0.97835" stop-color="#78078B" />
        </linearGradient>
        <clipPath id="clip0_1001_45">
            <rect width="512" height="512" fill="white" />
        </clipPath>
    </defs>
</svg>