<svg width="480" height="720" viewBox="0 0 480 720" fill="none" xmlns="http://www.w3.org/2000/svg">
<path d="M80 2H400C443.078 2 478 36.9218 478 80V640C478 683.078 443.078 718 400 718H80C36.9218 718 2 683.078 2 640V80C2 36.9218 36.9218 2 80 2Z" fill="white" stroke="black" stroke-width="4"/>
<path d="M400 40H80C57.9086 40 40 57.9086 40 80V640C40 662.091 57.9086 680 80 680H400C422.091 680 440 662.091 440 640V80C440 57.9086 422.091 40 400 40Z" fill="black"/>
<path fill-rule="evenodd" clip-rule="evenodd" d="M360 159.999C183.269 159.999 40 303.268 40 479.999C40 524.182 75.8172 559.999 120 559.999C296.731 559.999 440 416.731 440 239.999C440 195.817 404.183 159.999 360 159.999Z" fill="white"/>
<path fill-rule="evenodd" clip-rule="evenodd" d="M240 240C195.817 240 160 275.817 160 320V400C160 444.183 195.817 480 240 480C284.183 480 320 444.183 320 400V320C320 275.817 284.183 240 240 240ZM240 280C262.091 280 280 297.909 280 320V400C280 422.091 262.091 440 240 440C217.909 440 200 422.091 200 400V320C200 297.909 217.909 280 240 280Z" fill="black"/>
<path fill-rule="evenodd" clip-rule="evenodd" d="M100 60C77.9086 60 60 77.9086 60 100V140C60 162.091 77.9086 180 100 180C122.091 180 140 162.091 140 140V100C140 77.9086 122.091 60 100 60ZM100 80C111.046 80 120 88.9543 120 100V140C120 151.046 111.046 160 100 160C88.9543 160 80 151.046 80 140V100C80 88.9543 88.9543 80 100 80Z" fill="white"/>
<path fill-rule="evenodd" clip-rule="evenodd" d="M380 540C357.909 540 340 557.909 340 580V620C340 642.091 357.909 660 380 660C402.091 660 420 642.091 420 620V580C420 557.909 402.091 540 380 540ZM380 560C391.046 560 400 568.954 400 580V620C400 631.046 391.046 640 380 640C368.954 640 360 631.046 360 620V580C360 568.954 368.954 560 380 560Z" fill="white"/>
</svg>
