<svg width="476" height="716" viewBox="0 0 476 716" fill="none" xmlns="http://www.w3.org/2000/svg">
<path d="M79.3333 2H396.667C439.371 2 474 36.7175 474 79.5556V636.444C474 679.282 439.371 714 396.667 714H79.3333C36.6286 714 2 679.282 2 636.444V79.5556C2 36.7175 36.6286 2 79.3333 2Z" fill="red" stroke="black" stroke-width="4"/>
<path d="M396.667 39.7778H79.3337C57.4264 39.7778 39.667 57.5869 39.667 79.5556V636.444C39.667 658.413 57.4264 676.222 79.3337 676.222H396.667C418.574 676.222 436.334 658.413 436.334 636.444V79.5556C436.334 57.5869 418.574 39.7778 396.667 39.7778Z" fill="black"/>
<ellipse cx="238.119" cy="358.492" rx="193.262" ry="123.178" transform="rotate(-27 238.119 358.492)" fill="white"/>
</svg>
