<svg width="720" height="420" viewBox="0 0 720 420" fill="none" xmlns="http://www.w3.org/2000/svg">
<g clip-path="url(#clip0_1047_467)">
<rect width="720" height="420" fill="#0EA5E9"/>
<rect x="8" y="8" width="704" height="404" rx="42" fill="#404148"/>
<path d="M387.775 173.219L395.417 178.046V108.863L423.171 126.561C432.824 132.997 435.237 138.628 435.237 156.326V237.173V286.647L376.915 250.246L318.592 213.844V315.607L290.838 297.909C281.185 291.474 278.772 285.843 278.772 268.145V140.237L349.965 183.677L392.601 210.425L413.919 223.799" stroke="#D8DBF2" stroke-width="20"/>
<path d="M393.377 167.617L401.02 172.444V103.261L428.773 120.959C438.426 127.394 440.84 133.025 440.84 150.723V231.571V281.044L382.517 244.643L324.194 208.242V310.005L296.441 292.307C286.787 285.871 284.374 280.24 284.374 262.542V134.634L355.568 178.075L398.204 204.823L419.522 218.197" stroke="url(#paint0_linear_1047_467)" stroke-width="20"/>
<path d="M421.395 379.022C327.94 413.036 224.605 364.851 190.59 271.395C156.575 177.94 204.761 74.6046 298.216 40.5896C391.672 6.57459 495.007 54.7606 529.022 148.216C563.037 241.671 514.851 345.007 421.395 379.022ZM302.976 53.6674C216.743 85.0536 172.282 180.402 203.668 266.635C235.054 352.868 330.403 397.33 416.635 365.944C502.868 334.558 547.33 239.209 515.944 152.976C484.558 66.7432 389.209 22.2813 302.976 53.6674Z" fill="url(#paint1_linear_1047_467)"/>
</g>
<defs>
<linearGradient id="paint0_linear_1047_467" x1="440.84" y1="283.56" x2="273.132" y2="258.168" gradientUnits="userSpaceOnUse">
<stop stop-color="#E50402"/>
<stop offset="0.21631" stop-color="#FE8C01"/>
<stop offset="0.329771" stop-color="#F9E803"/>
<stop offset="0.489355" stop-color="#12B90F"/>
<stop offset="0.640292" stop-color="#02772D"/>
<stop offset="0.788703" stop-color="#034DFC"/>
<stop offset="0.991562" stop-color="#78078B"/>
</linearGradient>
<linearGradient id="paint1_linear_1047_467" x1="498.08" y1="327.556" x2="201.667" y2="120.844" gradientUnits="userSpaceOnUse">
<stop stop-color="#E50402"/>
<stop offset="0.156166" stop-color="#FE8C01"/>
<stop offset="0.344664" stop-color="#F9E803"/>
<stop offset="0.583833" stop-color="#027828"/>
<stop offset="0.824349" stop-color="#034DFC"/>
<stop offset="0.97835" stop-color="#78078B"/>
</linearGradient>
<clipPath id="clip0_1047_467">
<rect width="720" height="420" rx="50" fill="white"/>
</clipPath>
</defs>
</svg>
