<svg width="420" height="720" viewBox="0 0 420 720" fill="none" xmlns="http://www.w3.org/2000/svg">
<g clip-path="url(#clip0_2_37)">
<rect width="420" height="720" fill="#242743"/>
<rect x="8" y="8" width="404" height="704" rx="42" fill="#404148"/>
<path d="M91.5067 301.231H136.634C146.736 297.654 153.91 293.496 158.791 288.241L109.446 290.819L85.7341 292.058L91.5067 301.231Z" fill="#2D60B3" fill-opacity="0.45"/>
<path d="M68.1222 264.073V239.384L40.3594 250.723L43.7618 288.241L73.9636 273.355L68.1222 264.073Z" fill="#2D60B3" fill-opacity="0.45"/>
<path d="M55.6272 217.507L27 189V237.475L55.6272 217.507Z" fill="#2D60B3" fill-opacity="0.45"/>
<path d="M116.06 203.504L100.667 189H65.1696L63.6084 196.252L96.4688 207.056L113.267 212.578L116.06 203.504Z" fill="#2D60B3" fill-opacity="0.45"/>
<path d="M170.518 212.578C156.723 208.721 146.373 205.792 145.381 205.413L135.269 221.606L130.058 229.949H175.098L170.518 212.578Z" fill="#2D60B3" fill-opacity="0.45"/>
<path d="M206.825 208.467C208.65 201.87 210.728 194.198 212.123 189H178.915L206.825 208.467Z" fill="#2D60B3" fill-opacity="0.45"/>
<path d="M289.989 189L304.875 198.368L326.25 211.819C326.555 209.137 332.739 195.489 335.792 189H289.989Z" fill="#2D60B3" fill-opacity="0.45"/>
<path d="M320.73 229.949L338.846 219.745L326.25 211.819L304.875 198.368L272.046 225.261L266.324 229.949H320.73Z" fill="#2D60B3" fill-opacity="0.45"/>
<path d="M338.846 219.745L320.73 229.949L310.837 244.728L318.234 244.285L349.077 242.438L347.554 223.734L346.862 215.23L338.846 219.745Z" fill="#2D60B3" fill-opacity="0.45"/>
<path d="M316.326 304.987L323.144 294.73L320.73 269.928L319.206 254.27C314.998 258.414 308.103 265.065 302.716 269.928L312.891 304.783L316.326 304.987Z" fill="#2D60B3" fill-opacity="0.45"/>
<path d="M272.255 302.364L288.844 303.351C289.068 302.1 292.273 288.223 295.106 276.027C296.136 271.59 297.117 267.376 297.887 264.073L272.255 302.364Z" fill="#2D60B3" fill-opacity="0.45"/>
<path d="M236.228 356.183L236.8 364.199L260.598 354.967L273.576 349.933L278.167 339.007L275.238 332.136L248.748 337.48L236.228 356.183Z" fill="#2D60B3" fill-opacity="0.45"/>
<path d="M290.92 343.205L273.576 349.933L260.598 354.967L255.659 388.246L254.129 398.551L290.92 343.205Z" fill="#2D60B3" fill-opacity="0.45"/>
<path d="M169.459 455.927L205.074 437.348L207.924 433.306L195.347 417.254L169.459 455.927Z" fill="#2D60B3" fill-opacity="0.45"/>
<path d="M240.689 418.769L230.062 424.313L244.623 446.645L268.501 433.306L280.837 426.415L272.812 418.769H240.689Z" fill="#2D60B3" fill-opacity="0.45"/>
<path d="M297.241 455.927L304.872 449.317L280.837 426.415L268.501 433.306L278.92 455.927H297.241Z" fill="#2D60B3" fill-opacity="0.45"/>
<path d="M393.429 418.769H318.616C322.186 420.918 326.618 423.587 331.312 426.415C346.357 435.48 364.096 446.18 364.782 446.645L379.105 432.707L393.429 418.769Z" fill="#2D60B3" fill-opacity="0.45"/>
<path d="M393.429 486.723V444.737L383.51 449.317L389.72 472.739L393.429 486.723Z" fill="#2D60B3" fill-opacity="0.45"/>
<path d="M355.244 472.739C355.244 489.385 350.016 493.888 335.3 493.843L359.458 509.285L370.908 516.604L368.704 503.9L362.129 466.012L355.244 464.333V472.739Z" fill="#2D60B3" fill-opacity="0.45"/>
<path d="M370.908 516.604L393.429 531V498.174L368.704 503.9L370.908 516.604Z" fill="#2D60B3" fill-opacity="0.45"/>
<path d="M337.319 531L344.19 524.261L317.034 498.174L317.457 506.953L318.616 531H337.319Z" fill="#2D60B3" fill-opacity="0.45"/>
<path d="M272.812 531L306.783 512.702L272.812 498.7L254.129 520.108L244.623 531H272.812Z" fill="#2D60B3" fill-opacity="0.45"/>
<path d="M225.864 496.627L215.206 493.825L198.659 493.827C190.169 496.624 172.808 502.088 171.281 501.564L189.984 507.984L219.23 518.022L225.864 496.627Z" fill="#2D60B3" fill-opacity="0.45"/>
<path d="M116.317 531H173.19C174.281 529.597 175.602 527.887 177.018 526.038L151.576 506.571L132.038 520.108L121.661 527.298L116.317 531Z" fill="#2D60B3" fill-opacity="0.45"/>
<path d="M132.038 520.108L133.071 502.373L114.027 493.839C103.224 493.841 96.761 493.843 96.761 493.843L90.7433 497.048C92.885 499.108 95.4806 501.609 98.2473 504.281C108.63 514.309 121.42 526.743 121.661 527.298L132.038 520.108Z" fill="#2D60B3" fill-opacity="0.45"/>
<path d="M51.3649 518.022L27 531H64.4062L59.9642 513.442L51.3649 518.022Z" fill="#2D60B3" fill-opacity="0.45"/>
<path d="M52.3509 493.843C52.2363 496.609 52.0773 500.46 51.9202 504.281L62.4978 493.843L66.9382 476.417L67.8852 471.074L52.3509 493.843Z" fill="#2D60B3" fill-opacity="0.45"/>
<path d="M72.8036 496.762L101.747 486.342L105.553 480.616L100.286 480.043L86.2457 478.517L66.9382 476.417L62.4978 493.843L72.8036 496.762Z" fill="#2D60B3" fill-opacity="0.45"/>
<path d="M105.553 480.616L116.464 464.203L115.455 452.752L115.018 447.79L97.6138 454.623L100.286 480.043L105.553 480.616Z" fill="#2D60B3" fill-opacity="0.45"/>
<path d="M113.263 427.872L88.7968 445.5L87.7941 458.478L97.6138 454.623L115.018 447.79L113.263 427.872Z" fill="#2D60B3" fill-opacity="0.45"/>
<path d="M132.703 439.775L120.054 422.98L113.263 427.872L115.018 447.79L115.455 452.752L130.44 443.179L132.703 439.775Z" fill="#2D60B3" fill-opacity="0.45"/>
<path d="M146.731 397.025L126.623 399.731L131.392 412.674L149.503 404.658L146.731 397.025Z" fill="#2D60B3" fill-opacity="0.45"/>
<path d="M151.815 361.049L142.272 362.043L132.208 376.795L138.837 375.283L162.557 369.876L151.815 361.049Z" fill="#2D60B3" fill-opacity="0.45"/>
<path d="M186.549 358.773L186.667 351.984C186.673 351.64 179.885 349.906 172.045 348.025L173.687 358.773L176.091 374.504L186.549 358.773Z" fill="#2D60B3" fill-opacity="0.45"/>
<path d="M187.312 314.829L170.489 320.685L154.603 343.969C155.867 344.255 157.281 344.576 158.791 344.922L187.151 324.121L187.312 314.829Z" fill="#2D60B3" fill-opacity="0.45"/>
<path d="M217.438 293.203L214.056 281.371L199.145 285.046L196.296 307.326L218.747 297.783L217.438 293.203Z" fill="#2D60B3" fill-opacity="0.45"/>
<path d="M222.445 269.92C220.546 279.654 217.957 292.453 217.438 293.203L218.747 297.783L221.256 306.562L234.704 286.333L222.445 269.92Z" fill="#2D60B3" fill-opacity="0.45"/>
<path d="M214.056 281.371L209.113 264.073L193.926 286.333L199.145 285.046L214.056 281.371Z" fill="#2D60B3" fill-opacity="0.45"/>
<path d="M27 256.179V301.231H44.9397L43.7618 288.241L40.3594 250.723L27 256.179Z" fill="#3066BE" fill-opacity="0.55"/>
<path d="M107.92 229.949L113.267 212.578L96.4688 207.056C95.858 208.184 86.0357 222.788 81.2009 229.949H107.92Z" fill="#3066BE" fill-opacity="0.55"/>
<path d="M44.9397 301.231H91.5067L85.7341 292.058L73.9636 273.355L43.7618 288.241L44.9397 301.231Z" fill="#3066BE" fill-opacity="0.55"/>
<path d="M58.4315 220.299L68.1222 229.949H81.2009C86.0357 222.788 95.858 208.184 96.4688 207.056L63.6084 196.252L58.4315 220.299Z" fill="#3066BE" fill-opacity="0.55"/>
<path d="M267.528 196.634L266.324 189H212.123C210.728 194.198 208.65 201.87 206.825 208.467C204.821 215.706 203.122 221.65 202.962 221.606C208.761 223.214 214.459 224.792 219.757 226.257L267.528 196.634Z" fill="#3066BE" fill-opacity="0.55"/>
<path fill-rule="evenodd" clip-rule="evenodd" d="M375.871 189H335.792C332.739 195.489 326.555 209.137 326.25 211.819L338.846 219.745L346.862 215.23L362.129 206.63C361.213 207.146 370.908 195.092 375.871 189ZM289.989 189L304.875 198.368L272.046 225.261L267.528 196.634L266.324 189H289.989ZM202.962 221.606C191.82 218.516 180.302 215.314 170.518 212.578C156.723 208.721 146.373 205.792 145.381 205.413L155.632 189H178.915L206.825 208.467C204.821 215.706 203.122 221.65 202.962 221.606Z" fill="#3066BE" fill-opacity="0.55"/>
<path d="M362.129 206.63L393.429 189H375.871C370.908 195.092 361.213 207.146 362.129 206.63Z" fill="#3066BE" fill-opacity="0.55"/>
<path d="M293.042 303.601L286.025 320.304L307.667 318.013L316.326 304.987L312.891 304.783L293.042 303.601Z" fill="#3066BE" fill-opacity="0.55"/>
<path d="M236.8 364.199L236.228 356.183L213.65 389.913L215.206 422.98L238.622 389.772L237.453 373.359L236.8 364.199Z" fill="#3066BE" fill-opacity="0.55"/>
<path fill-rule="evenodd" clip-rule="evenodd" d="M240.689 418.769L254.129 398.551L255.659 388.246L260.598 354.967L236.8 364.199L237.453 373.359L238.622 389.772L240.689 418.769ZM273.576 349.933L290.92 343.205L307.667 318.013L286.025 320.304L278.167 339.007L273.576 349.933ZM295.106 276.027C296.013 275.778 299.007 273.277 302.716 269.928C308.103 265.065 314.998 258.414 319.206 254.27L320.73 269.928C322.662 270.227 334.985 268.775 340.906 268.011L350.04 254.27L349.077 242.438L318.234 244.285L310.837 244.728L297.887 264.073C297.117 267.376 296.136 271.59 295.106 276.027Z" fill="#3066BE" fill-opacity="0.55"/>
<path fill-rule="evenodd" clip-rule="evenodd" d="M355.244 455.927L364.782 446.645L379.105 432.707L383.51 449.317L389.72 472.739L393.429 486.723V498.174L368.704 503.9L362.129 466.012L355.244 464.333V455.927ZM250.674 455.927H278.92L268.501 433.306L244.623 446.645L250.674 455.927Z" fill="#3066BE" fill-opacity="0.55"/>
<path d="M317.034 498.174L312.509 493.827C299.108 493.823 281.017 493.822 260.98 493.822L272.812 498.7L306.783 512.702L317.457 506.953L317.034 498.174Z" fill="#3066BE" fill-opacity="0.55"/>
<path fill-rule="evenodd" clip-rule="evenodd" d="M77.3839 531H64.4062L59.9642 513.442L78.9107 503.35L80.8192 526.601L77.3839 531ZM177.018 526.038L151.576 506.571L162.938 498.7L171.281 501.564L189.984 507.984L219.23 518.022L215.206 531H203.344H173.19C174.281 529.597 175.602 527.887 177.018 526.038Z" fill="#3066BE" fill-opacity="0.55"/>
<path d="M51.9202 504.281C51.6558 510.714 51.3968 517.065 51.3649 518.022L59.9642 513.442L78.9107 503.35L86.4789 499.319L72.8036 496.762L62.4978 493.843L51.9202 504.281Z" fill="#3066BE" fill-opacity="0.55"/>
<path d="M138.837 375.283L132.208 376.795L115.541 401.223L126.623 399.731L146.731 397.025L138.837 375.283Z" fill="#3066BE" fill-opacity="0.55"/>
<path fill-rule="evenodd" clip-rule="evenodd" d="M196.296 307.326L218.747 297.783L221.256 306.562L211.868 320.685L207.542 318.335L195.71 311.906L196.296 307.326ZM186.959 335.19L187.151 324.121L158.791 344.922C162.855 345.854 167.617 346.963 172.045 348.025C179.885 349.906 186.673 351.64 186.667 351.984L186.959 335.19ZM162.557 369.876L138.837 375.283L146.731 397.025L149.503 404.658L151.815 411.024L173.3 378.703L162.557 369.876ZM131.392 412.674L133.362 418.018H116.317H104.083L115.541 401.223L126.623 399.731L131.392 412.674ZM86.2457 478.517L87.7941 458.478L97.6138 454.623L100.286 480.043L86.2457 478.517ZM72.8036 496.762L101.747 486.342L96.761 493.843L90.7433 497.048L86.4789 499.319L72.8036 496.762Z" fill="#3066BE" fill-opacity="0.55"/>
<path d="M195.71 311.906L187.312 314.829L187.151 324.121L186.959 335.19L207.542 318.335L195.71 311.906Z" fill="#3066BE" fill-opacity="0.55"/>
<path d="M223.574 264.073H209.113L214.056 281.371L217.438 293.203C217.957 292.453 220.546 279.654 222.445 269.92C222.865 267.766 223.251 265.763 223.574 264.073Z" fill="#3066BE" fill-opacity="0.55"/>
<path d="M68.1222 264.073L73.9636 273.355L85.7341 292.058L109.446 290.819L133.875 264.073H68.1222Z" fill="#336ECC" fill-opacity="0.5"/>
<path d="M158.791 288.241C164.575 282.013 167.139 274.243 167.538 264.073H133.875L109.446 290.819L158.791 288.241Z" fill="#336ECC" fill-opacity="0.5"/>
<path d="M68.1222 239.384V229.949L58.4315 220.299L55.6272 217.507L27 237.475V256.179L40.3594 250.723L68.1222 239.384Z" fill="#336ECC" fill-opacity="0.5"/>
<path d="M27 189L55.6272 217.507L58.4315 220.299L63.6084 196.252L65.1696 189H27Z" fill="#336ECC" fill-opacity="0.5"/>
<path fill-rule="evenodd" clip-rule="evenodd" d="M289.989 189L304.875 198.368L272.046 225.261L266.324 229.949H233.116H175.098L170.518 212.578C180.302 215.314 191.82 218.516 202.962 221.606C208.761 223.214 214.459 224.792 219.757 226.257L267.528 196.634L266.324 189H289.989ZM155.632 189L145.381 205.413L135.269 221.606L130.058 229.949H107.92L113.267 212.578L116.06 203.504L100.667 189H155.632Z" fill="#336ECC" fill-opacity="0.5"/>
<path fill-rule="evenodd" clip-rule="evenodd" d="M240.689 418.769L230.062 424.313L205.074 437.348L207.924 433.306L195.347 417.254L213.65 389.913L215.206 422.98L238.622 389.772L240.689 418.769ZM278.167 339.007L286.025 320.304L293.042 303.601L312.891 304.783L302.716 269.928C299.007 273.277 296.013 275.778 295.106 276.027C292.273 288.223 289.068 302.1 288.844 303.351L272.255 302.364L266.324 311.225L248.748 337.48L275.238 332.136L278.167 339.007ZM320.73 269.928L323.144 294.73L340.906 268.011C334.985 268.775 322.662 270.227 320.73 269.928ZM350.04 254.27L370.339 223.734L393.429 189L362.129 206.63L346.862 215.23L347.554 223.734L349.077 242.438L350.04 254.27Z" fill="#336ECC" fill-opacity="0.5"/>
<path fill-rule="evenodd" clip-rule="evenodd" d="M272.812 418.769H318.616C322.186 420.918 326.618 423.587 331.312 426.415C346.357 435.48 364.096 446.18 364.782 446.645L355.244 455.927H297.241L304.872 449.317L280.837 426.415L272.812 418.769ZM383.51 449.317L379.105 432.707L393.429 418.769V444.737L383.51 449.317ZM230.062 424.313L244.623 446.645L250.674 455.927H169.459L205.074 437.348L230.062 424.313Z" fill="#336ECC" fill-opacity="0.5"/>
<path fill-rule="evenodd" clip-rule="evenodd" d="M116.317 531H77.3839L80.8192 526.601L78.9107 503.35L86.4789 499.319L90.7433 497.048C92.885 499.108 95.4806 501.609 98.2473 504.281C108.63 514.309 121.42 526.743 121.661 527.298L116.317 531ZM133.071 502.373L114.027 493.839C123.011 493.838 134.997 493.836 148.761 493.833C163.801 493.831 180.965 493.829 198.659 493.827C190.169 496.624 172.808 502.088 171.281 501.564L162.938 498.7L151.576 506.571L132.038 520.108L133.071 502.373ZM215.206 531L219.23 518.022L225.864 496.627L215.206 493.825C225.09 493.824 234.986 493.823 244.623 493.823C250.178 493.823 255.648 493.822 260.98 493.822L272.812 498.7L254.129 520.108L244.623 531H215.206ZM317.034 498.174L312.509 493.827C324.581 493.83 332.847 493.835 335.3 493.843L359.458 509.285L370.908 516.604L393.429 531H337.319L344.19 524.261L317.034 498.174ZM306.783 512.702L317.457 506.953L318.616 531H272.812L306.783 512.702Z" fill="#336ECC" fill-opacity="0.5"/>
<path fill-rule="evenodd" clip-rule="evenodd" d="M223.574 264.073C223.251 265.763 222.865 267.766 222.445 269.92L234.704 286.333L249.501 264.073H223.574ZM196.296 307.326L199.145 285.046L193.926 286.333L170.489 320.685L187.312 314.829L195.71 311.906L196.296 307.326ZM186.549 358.773L211.868 320.685L207.542 318.335L186.959 335.19L186.667 351.984L186.549 358.773ZM154.603 343.969C155.867 344.255 157.281 344.576 158.791 344.922C162.855 345.854 167.617 346.963 172.045 348.025L173.687 358.773L176.091 374.504L173.3 378.703L162.557 369.876L151.815 361.049L142.272 362.043L154.603 343.969ZM151.815 411.024L149.503 404.658L131.392 412.674L133.362 418.018H116.317H104.083L89.2392 439.775L67.8852 471.074L66.9382 476.417L86.2457 478.517L87.7941 458.478L88.7968 445.5L113.263 427.872L120.054 422.98L132.703 439.775L138.285 431.377L151.815 411.024ZM116.464 464.203L130.44 443.179L115.455 452.752L116.464 464.203ZM52.3509 493.843C52.2363 496.609 52.0773 500.46 51.9202 504.281C51.6558 510.714 51.3968 517.065 51.3649 518.022L27 531L52.3509 493.843Z" fill="#336ECC" fill-opacity="0.5"/>
<g filter="url(#filter0_d_2_37)">
<rect y="310" width="420" height="100" fill="#242743"/>
</g>
<path d="M175.508 344.534H188.456C191.355 343.593 193.413 342.499 194.814 341.116L180.656 341.795L173.852 342.121L175.508 344.534Z" fill="#2D60B3"/>
<path d="M168.799 334.756V328.259L160.833 331.243L161.809 341.116L170.475 337.199L168.799 334.756Z" fill="#2D60B3"/>
<path d="M165.214 322.502L157 315V327.757L165.214 322.502Z" fill="#2D60B3"/>
<path d="M182.553 318.817L178.137 315H167.952L167.504 316.908L176.932 319.751L181.752 321.205L182.553 318.817Z" fill="#2D60B3"/>
<path d="M198.178 321.205C194.22 320.19 191.251 319.419 190.966 319.319L188.065 323.58L186.57 325.776H199.493L198.178 321.205Z" fill="#2D60B3"/>
<path d="M208.596 320.123C209.119 318.387 209.715 316.368 210.116 315H200.588L208.596 320.123Z" fill="#2D60B3"/>
<path d="M232.457 315L236.728 317.465L242.861 321.005C242.949 320.299 244.723 316.708 245.599 315H232.457Z" fill="#2D60B3"/>
<path d="M241.278 325.776L246.475 323.091L242.861 321.005L236.728 317.465L227.309 324.542L225.667 325.776H241.278Z" fill="#2D60B3"/>
<path d="M246.475 323.091L241.278 325.776L238.439 329.665L240.562 329.549L249.411 329.062L248.974 324.141L248.775 321.903L246.475 323.091Z" fill="#2D60B3"/>
<path d="M240.014 345.523L241.97 342.824L241.278 336.297L240.84 332.176C239.633 333.267 237.655 335.017 236.109 336.297L239.028 345.469L240.014 345.523Z" fill="#2D60B3"/>
<path d="M227.369 344.833L232.129 345.092C232.193 344.763 233.113 341.111 233.925 337.902C234.221 336.734 234.503 335.625 234.724 334.756L227.369 344.833Z" fill="#2D60B3"/>
<path d="M217.032 358.996L217.196 361.105L224.024 358.676L227.748 357.351L229.065 354.475L228.225 352.667L220.624 354.074L217.032 358.996Z" fill="#2D60B3"/>
<path d="M232.724 355.58L227.748 357.351L224.024 358.676L222.607 367.433L222.168 370.145L232.724 355.58Z" fill="#2D60B3"/>
<path d="M197.875 385.244L208.093 380.355L208.911 379.291L205.302 375.067L197.875 385.244Z" fill="#2D60B3"/>
<path d="M218.312 375.466L215.263 376.924L219.441 382.801L226.292 379.291L229.831 377.478L227.529 375.466H218.312Z" fill="#2D60B3"/>
<path d="M234.538 385.244L236.728 383.504L229.831 377.478L226.292 379.291L229.281 385.244H234.538Z" fill="#2D60B3"/>
<path d="M262.136 375.466H240.671C241.695 376.031 242.967 376.733 244.314 377.478C248.631 379.863 253.72 382.679 253.917 382.801L258.027 379.133L262.136 375.466Z" fill="#2D60B3"/>
<path d="M262.136 393.348V382.299L259.29 383.504L261.072 389.668L262.136 393.348Z" fill="#2D60B3"/>
<path d="M251.18 389.668C251.18 394.049 249.68 395.234 245.458 395.222L252.389 399.285L255.675 401.212L255.042 397.868L253.156 387.898L251.18 387.456V389.668Z" fill="#2D60B3"/>
<path d="M255.675 401.212L262.136 405V396.362L255.042 397.868L255.675 401.212Z" fill="#2D60B3"/>
<path d="M246.037 405L248.009 403.227L240.217 396.362L240.339 398.672L240.671 405H246.037Z" fill="#2D60B3"/>
<path d="M227.529 405L237.276 400.185L227.529 396.5L222.168 402.134L219.441 405H227.529Z" fill="#2D60B3"/>
<path d="M214.058 395.955L211 395.217L206.253 395.218C203.817 395.954 198.836 397.392 198.397 397.254L203.764 398.943L212.155 401.585L214.058 395.955Z" fill="#2D60B3"/>
<path d="M182.627 405H198.945C199.258 404.631 199.637 404.181 200.043 403.694L192.744 398.571L187.138 402.134L184.16 404.026L182.627 405Z" fill="#2D60B3"/>
<path d="M187.138 402.134L187.434 397.467L181.97 395.221C178.87 395.221 177.016 395.222 177.016 395.222L175.289 396.065C175.904 396.607 176.649 397.266 177.442 397.969C180.421 400.608 184.091 403.88 184.16 404.026L187.138 402.134Z" fill="#2D60B3"/>
<path d="M163.991 401.585L157 405H167.733L166.458 400.379L163.991 401.585Z" fill="#2D60B3"/>
<path d="M164.274 395.222C164.241 395.95 164.195 396.963 164.15 397.969L167.185 395.222L168.459 390.636L168.731 389.23L164.274 395.222Z" fill="#2D60B3"/>
<path d="M170.142 395.99L178.447 393.248L179.539 391.741L178.027 391.59L173.999 391.189L168.459 390.636L167.185 395.222L170.142 395.99Z" fill="#2D60B3"/>
<path d="M179.539 391.741L182.669 387.422L182.38 384.408L182.254 383.103L177.261 384.901L178.027 391.59L179.539 391.741Z" fill="#2D60B3"/>
<path d="M181.751 377.861L174.731 382.5L174.443 385.915L177.261 384.901L182.254 383.103L181.751 377.861Z" fill="#2D60B3"/>
<path d="M187.328 380.993L183.699 376.574L181.751 377.861L182.254 383.103L182.38 384.408L186.679 381.889L187.328 380.993Z" fill="#2D60B3"/>
<path d="M191.354 369.743L185.584 370.456L186.952 373.862L192.149 371.752L191.354 369.743Z" fill="#2D60B3"/>
<path d="M192.812 360.276L190.074 360.538L187.186 364.42L189.088 364.022L195.894 362.599L192.812 360.276Z" fill="#2D60B3"/>
<path d="M202.778 359.677L202.812 357.891C202.814 357.8 200.866 357.344 198.616 356.849L199.088 359.677L199.778 363.817L202.778 359.677Z" fill="#2D60B3"/>
<path d="M202.997 348.113L198.17 349.654L193.612 355.781C193.975 355.856 194.38 355.941 194.814 356.032L202.951 350.558L202.997 348.113Z" fill="#2D60B3"/>
<path d="M211.641 342.422L210.671 339.308L206.392 340.275L205.575 346.138L212.016 343.627L211.641 342.422Z" fill="#2D60B3"/>
<path d="M213.077 336.295C212.532 338.856 211.79 342.224 211.641 342.422L212.016 343.627L212.736 345.937L216.595 340.614L213.077 336.295Z" fill="#2D60B3"/>
<path d="M210.671 339.308L209.252 334.756L204.895 340.614L206.392 340.275L210.671 339.308Z" fill="#2D60B3"/>
<path d="M157 332.679V344.534H162.147L161.809 341.116L160.833 331.243L157 332.679Z" fill="#3066BE"/>
<path d="M180.218 325.776L181.752 321.205L176.932 319.751C176.757 320.049 173.939 323.892 172.551 325.776H180.218Z" fill="#3066BE"/>
<path d="M162.147 344.534H175.508L173.852 342.121L170.475 337.199L161.809 341.116L162.147 344.534Z" fill="#3066BE"/>
<path d="M166.018 323.237L168.799 325.776H172.551C173.939 323.892 176.757 320.049 176.932 319.751L167.504 316.908L166.018 323.237Z" fill="#3066BE"/>
<path d="M226.013 317.009L225.667 315H210.116C209.715 316.368 209.119 318.387 208.596 320.123C208.021 322.028 207.533 323.592 207.487 323.58C209.151 324.004 210.786 324.419 212.306 324.805L226.013 317.009Z" fill="#3066BE"/>
<path fill-rule="evenodd" clip-rule="evenodd" d="M257.099 315H245.599C244.723 316.708 242.949 320.299 242.861 321.005L246.475 323.091L248.775 321.903L253.156 319.639C252.893 319.775 255.675 316.603 257.099 315ZM232.457 315L236.728 317.465L227.309 324.542L226.013 317.009L225.667 315H232.457ZM207.487 323.58C204.291 322.767 200.986 321.925 198.178 321.205C194.22 320.19 191.251 319.419 190.966 319.319L193.907 315H200.588L208.596 320.123C208.021 322.028 207.533 323.592 207.487 323.58Z" fill="#3066BE"/>
<path d="M253.156 319.639L262.136 315H257.099C255.675 316.603 252.893 319.775 253.156 319.639Z" fill="#3066BE"/>
<path d="M233.333 345.158L231.32 349.554L237.529 348.951L240.014 345.523L239.028 345.469L233.333 345.158Z" fill="#3066BE"/>
<path d="M217.196 361.105L217.032 358.996L210.554 367.872L211 376.574L217.719 367.835L217.383 363.516L217.196 361.105Z" fill="#3066BE"/>
<path fill-rule="evenodd" clip-rule="evenodd" d="M218.312 375.466L222.168 370.145L222.607 367.433L224.024 358.676L217.196 361.105L217.383 363.516L217.719 367.835L218.312 375.466ZM227.748 357.351L232.724 355.58L237.529 348.951L231.32 349.554L229.065 354.475L227.748 357.351ZM233.925 337.902C234.186 337.836 235.045 337.178 236.109 336.297C237.655 335.017 239.633 333.267 240.84 332.176L241.278 336.297C241.832 336.375 245.368 335.993 247.066 335.792L249.687 332.176L249.411 329.062L240.562 329.549L238.439 329.665L234.724 334.756C234.503 335.625 234.221 336.734 233.925 337.902Z" fill="#3066BE"/>
<path fill-rule="evenodd" clip-rule="evenodd" d="M251.18 385.244L253.917 382.801L258.027 379.133L259.29 383.504L261.072 389.668L262.136 393.348V396.362L255.042 397.868L253.156 387.898L251.18 387.456V385.244ZM221.177 385.244H229.281L226.292 379.291L219.441 382.801L221.177 385.244Z" fill="#3066BE"/>
<path d="M240.217 396.362L238.919 395.218C235.074 395.217 229.883 395.216 224.134 395.216L227.529 396.5L237.276 400.185L240.339 398.672L240.217 396.362Z" fill="#3066BE"/>
<path fill-rule="evenodd" clip-rule="evenodd" d="M171.456 405H167.733L166.458 400.379L171.894 397.724L172.442 403.842L171.456 405ZM200.043 403.694L192.744 398.571L196.004 396.5L198.397 397.254L203.764 398.943L212.155 401.585L211 405H207.597H198.945C199.258 404.631 199.637 404.181 200.043 403.694Z" fill="#3066BE"/>
<path d="M164.15 397.969C164.074 399.662 164 401.333 163.991 401.585L166.458 400.379L171.894 397.724L174.066 396.663L170.142 395.99L167.185 395.222L164.15 397.969Z" fill="#3066BE"/>
<path d="M189.088 364.022L187.186 364.42L182.404 370.848L185.584 370.456L191.354 369.743L189.088 364.022Z" fill="#3066BE"/>
<path fill-rule="evenodd" clip-rule="evenodd" d="M205.575 346.138L212.016 343.627L212.736 345.937L210.043 349.654L208.802 349.036L205.407 347.344L205.575 346.138ZM202.896 353.471L202.951 350.558L194.814 356.032C195.98 356.277 197.346 356.569 198.616 356.849C200.866 357.344 202.814 357.8 202.812 357.891L202.896 353.471ZM195.894 362.599L189.088 364.022L191.354 369.743L192.149 371.752L192.812 373.427L198.977 364.922L195.894 362.599ZM186.952 373.862L187.517 375.268H182.627H179.117L182.404 370.848L185.584 370.456L186.952 373.862ZM173.999 391.189L174.443 385.915L177.261 384.901L178.027 391.59L173.999 391.189ZM170.142 395.99L178.447 393.248L177.016 395.222L175.289 396.065L174.066 396.663L170.142 395.99Z" fill="#3066BE"/>
<path d="M205.407 347.344L202.997 348.113L202.951 350.558L202.896 353.471L208.802 349.036L205.407 347.344Z" fill="#3066BE"/>
<path d="M213.401 334.756H209.252L210.671 339.308L211.641 342.422C211.79 342.224 212.532 338.856 213.077 336.295C213.198 335.728 213.309 335.201 213.401 334.756Z" fill="#3066BE"/>
<path d="M168.799 334.756L170.475 337.199L173.852 342.121L180.656 341.795L187.665 334.756H168.799Z" fill="#336ECC"/>
<path d="M194.814 341.116C196.473 339.477 197.209 337.432 197.323 334.756H187.665L180.656 341.795L194.814 341.116Z" fill="#336ECC"/>
<path d="M168.799 328.259V325.776L166.018 323.237L165.214 322.502L157 327.757V332.679L160.833 331.243L168.799 328.259Z" fill="#336ECC"/>
<path d="M157 315L165.214 322.502L166.018 323.237L167.504 316.908L167.952 315H157Z" fill="#336ECC"/>
<path fill-rule="evenodd" clip-rule="evenodd" d="M232.457 315L236.728 317.465L227.309 324.542L225.667 325.776H216.139H199.493L198.178 321.205C200.986 321.925 204.291 322.767 207.487 323.58C209.151 324.004 210.786 324.419 212.306 324.805L226.013 317.009L225.667 315H232.457ZM193.907 315L190.966 319.319L188.065 323.58L186.57 325.776H180.218L181.752 321.205L182.553 318.817L178.137 315H193.907Z" fill="#336ECC"/>
<path fill-rule="evenodd" clip-rule="evenodd" d="M218.312 375.466L215.263 376.924L208.093 380.355L208.911 379.291L205.302 375.067L210.554 367.872L211 376.574L217.719 367.835L218.312 375.466ZM229.065 354.475L231.32 349.554L233.333 345.158L239.028 345.469L236.109 336.297C235.045 337.178 234.186 337.836 233.925 337.902C233.113 341.111 232.193 344.763 232.129 345.092L227.369 344.833L225.667 347.164L220.624 354.074L228.225 352.667L229.065 354.475ZM241.278 336.297L241.97 342.824L247.066 335.792C245.368 335.993 241.832 336.375 241.278 336.297ZM249.687 332.176L255.511 324.141L262.136 315L253.156 319.639L248.775 321.903L248.974 324.141L249.411 329.062L249.687 332.176Z" fill="#336ECC"/>
<path fill-rule="evenodd" clip-rule="evenodd" d="M227.529 375.466H240.671C241.695 376.031 242.967 376.733 244.314 377.478C248.631 379.863 253.72 382.679 253.917 382.801L251.18 385.244H234.538L236.728 383.504L229.831 377.478L227.529 375.466ZM259.29 383.504L258.027 379.133L262.136 375.466V382.299L259.29 383.504ZM215.263 376.924L219.441 382.801L221.177 385.244H197.875L208.093 380.355L215.263 376.924Z" fill="#336ECC"/>
<path fill-rule="evenodd" clip-rule="evenodd" d="M182.627 405H171.456L172.442 403.842L171.894 397.724L174.066 396.663L175.289 396.065C175.904 396.607 176.649 397.266 177.442 397.969C180.421 400.608 184.091 403.88 184.16 404.026L182.627 405ZM187.434 397.467L181.97 395.221C184.548 395.22 187.987 395.22 191.936 395.219C196.251 395.219 201.176 395.218 206.253 395.218C203.817 395.954 198.836 397.392 198.397 397.254L196.004 396.5L192.744 398.571L187.138 402.134L187.434 397.467ZM211 405L212.155 401.585L214.058 395.955L211 395.217C213.836 395.217 216.676 395.217 219.441 395.217C221.035 395.216 222.604 395.216 224.134 395.216L227.529 396.5L222.168 402.134L219.441 405H211ZM240.217 396.362L238.919 395.218C242.382 395.218 244.754 395.22 245.458 395.222L252.389 399.285L255.675 401.212L262.136 405H246.037L248.009 403.227L240.217 396.362ZM237.276 400.185L240.339 398.672L240.671 405H227.529L237.276 400.185Z" fill="#336ECC"/>
<path fill-rule="evenodd" clip-rule="evenodd" d="M213.401 334.756C213.309 335.201 213.198 335.728 213.077 336.295L216.595 340.614L220.84 334.756H213.401ZM205.575 346.138L206.392 340.275L204.895 340.614L198.17 349.654L202.997 348.113L205.407 347.344L205.575 346.138ZM202.778 359.677L210.043 349.654L208.802 349.036L202.896 353.471L202.812 357.891L202.778 359.677ZM193.612 355.781C193.975 355.856 194.38 355.941 194.814 356.032C195.98 356.277 197.346 356.569 198.616 356.849L199.088 359.677L199.778 363.817L198.977 364.922L195.894 362.599L192.812 360.276L190.074 360.538L193.612 355.781ZM192.812 373.427L192.149 371.752L186.952 373.862L187.517 375.268H182.627H179.117L174.858 380.993L168.731 389.23L168.459 390.636L173.999 391.189L174.443 385.915L174.731 382.5L181.751 377.861L183.699 376.574L187.328 380.993L188.93 378.783L192.812 373.427ZM182.669 387.422L186.679 381.889L182.38 384.408L182.669 387.422ZM164.274 395.222C164.241 395.95 164.195 396.963 164.15 397.969C164.074 399.662 164 401.333 163.991 401.585L157 405L164.274 395.222Z" fill="#336ECC"/>
</g>
<defs>
<filter id="filter0_d_2_37" x="-51" y="259" width="522" height="202" filterUnits="userSpaceOnUse" color-interpolation-filters="sRGB">
<feFlood flood-opacity="0" result="BackgroundImageFix"/>
<feColorMatrix in="SourceAlpha" type="matrix" values="0 0 0 0 0 0 0 0 0 0 0 0 0 0 0 0 0 0 127 0" result="hardAlpha"/>
<feMorphology radius="1" operator="dilate" in="SourceAlpha" result="effect1_dropShadow_2_37"/>
<feOffset/>
<feGaussianBlur stdDeviation="25"/>
<feComposite in2="hardAlpha" operator="out"/>
<feColorMatrix type="matrix" values="0 0 0 0 0.211765 0 0 0 0 0.219608 0 0 0 0 0.278431 0 0 0 0.3 0"/>
<feBlend mode="normal" in2="BackgroundImageFix" result="effect1_dropShadow_2_37"/>
<feBlend mode="normal" in="SourceGraphic" in2="effect1_dropShadow_2_37" result="shape"/>
</filter>
<clipPath id="clip0_2_37">
<rect width="420" height="720" rx="50" fill="white"/>
</clipPath>
</defs>
</svg>
