<svg width="420" height="720" viewBox="0 0 420 720" fill="none" xmlns="http://www.w3.org/2000/svg">
<g clip-path="url(#clip0_1047_459)">
<rect width="420" height="720" fill="#0EA5E9"/>
<rect x="8" y="8" width="404" height="704" rx="42" fill="#404148"/>
<path d="M173.219 331.837L178.046 324.194H108.863L126.561 296.441C132.997 286.787 138.628 284.374 156.326 284.374H237.173H286.647L250.246 342.697L213.844 401.019H315.607L297.909 428.773C291.474 438.426 285.843 440.84 268.145 440.84H140.237L183.677 369.646L210.425 327.01L223.799 305.692" stroke="#D8DBF2" stroke-width="20"/>
<path d="M167.617 326.234L172.444 318.592H103.261L120.959 290.838C127.394 281.185 133.025 278.771 150.723 278.771H231.571H281.044L244.643 337.094L208.242 395.417H310.005L292.307 423.17C285.871 432.824 280.24 435.237 262.542 435.237H134.634L178.075 364.043L204.823 321.407L218.197 300.089" stroke="url(#paint0_linear_1047_459)" stroke-width="20"/>
<path d="M379.022 298.216C413.036 391.671 364.851 495.007 271.395 529.022C177.94 563.037 74.6046 514.851 40.5896 421.395C6.57459 327.94 54.7606 224.605 148.216 190.59C241.671 156.575 345.007 204.761 379.022 298.216ZM53.6674 416.635C85.0536 502.868 180.402 547.33 266.635 515.944C352.868 484.558 397.33 389.209 365.944 302.976C334.558 216.743 239.209 172.281 152.976 203.667C66.7432 235.054 22.2813 330.403 53.6674 416.635Z" fill="url(#paint1_linear_1047_459)"/>
</g>
<defs>
<linearGradient id="paint0_linear_1047_459" x1="283.56" y1="278.771" x2="258.168" y2="446.48" gradientUnits="userSpaceOnUse">
<stop stop-color="#E50402"/>
<stop offset="0.21631" stop-color="#FE8C01"/>
<stop offset="0.329771" stop-color="#F9E803"/>
<stop offset="0.489355" stop-color="#12B90F"/>
<stop offset="0.640292" stop-color="#02772D"/>
<stop offset="0.788703" stop-color="#034DFC"/>
<stop offset="0.991562" stop-color="#78078B"/>
</linearGradient>
<linearGradient id="paint1_linear_1047_459" x1="327.556" y1="221.531" x2="120.844" y2="517.944" gradientUnits="userSpaceOnUse">
<stop stop-color="#E50402"/>
<stop offset="0.156166" stop-color="#FE8C01"/>
<stop offset="0.344664" stop-color="#F9E803"/>
<stop offset="0.583833" stop-color="#027828"/>
<stop offset="0.824349" stop-color="#034DFC"/>
<stop offset="0.97835" stop-color="#78078B"/>
</linearGradient>
<clipPath id="clip0_1047_459">
<rect width="420" height="720" rx="50" fill="white"/>
</clipPath>
</defs>
</svg>
