<svg width="420" height="720" viewBox="0 0 420 720" fill="none" xmlns="http://www.w3.org/2000/svg">
<path d="M52.208 97.644C47.5467 97.644 43.3147 96.6933 39.512 94.792C35.7707 92.8293 32.6427 90.008 30.128 86.328L37.672 78.048C40.3093 80.992 42.6707 82.9853 44.756 84.028C46.9027 85.0707 49.264 85.592 51.84 85.592C53.9867 85.592 55.888 85.1627 57.544 84.304C59.2613 83.384 60.6107 82.1267 61.592 80.532C62.5733 78.9373 63.064 77.1893 63.064 75.288C63.064 73.264 62.5733 71.4547 61.592 69.86C60.6107 68.204 59.292 66.916 57.636 65.996C56.0413 65.076 54.2013 64.616 52.116 64.616C50.828 64.616 49.6013 64.708 48.436 64.892C47.332 65.076 46.0747 65.4747 44.664 66.088C43.2533 66.64 41.5053 67.468 39.42 68.572L33.164 60.2L37.12 32.232H73.368V44.192H44.204L47.516 40.144L44.48 60.384L40.156 58.268C41.076 57.4093 42.3333 56.6427 43.928 55.968C45.584 55.232 47.332 54.6493 49.172 54.22C51.0733 53.7293 52.944 53.484 54.784 53.484C58.832 53.484 62.42 54.404 65.548 56.244C68.7373 58.084 71.252 60.6293 73.092 63.88C74.932 67.1307 75.852 70.872 75.852 75.104C75.852 79.336 74.8093 83.1693 72.724 86.604C70.6387 89.9773 67.8173 92.676 64.26 94.7C60.7027 96.6627 56.6853 97.644 52.208 97.644Z" fill="#F4F4F5"/>
<path d="M367.792 622.356C372.453 622.356 376.685 623.307 380.488 625.208C384.229 627.171 387.357 629.992 389.872 633.672L382.328 641.952C379.691 639.008 377.329 637.015 375.244 635.972C373.097 634.929 370.736 634.408 368.16 634.408C366.013 634.408 364.112 634.837 362.456 635.696C360.739 636.616 359.389 637.873 358.408 639.468C357.427 641.063 356.936 642.811 356.936 644.712C356.936 646.736 357.427 648.545 358.408 650.14C359.389 651.796 360.708 653.084 362.364 654.004C363.959 654.924 365.799 655.384 367.884 655.384C369.172 655.384 370.399 655.292 371.564 655.108C372.668 654.924 373.925 654.525 375.336 653.912C376.747 653.36 378.495 652.532 380.58 651.428L386.836 659.8L382.88 687.768H346.632V675.808H375.796L372.484 679.856L375.52 659.616L379.844 661.732C378.924 662.591 377.667 663.357 376.072 664.032C374.416 664.768 372.668 665.351 370.828 665.78C368.927 666.271 367.056 666.516 365.216 666.516C361.168 666.516 357.58 665.596 354.452 663.756C351.263 661.916 348.748 659.371 346.908 656.12C345.068 652.869 344.148 649.128 344.148 644.896C344.148 640.664 345.191 636.831 347.276 633.396C349.361 630.023 352.183 627.324 355.74 625.3C359.297 623.337 363.315 622.356 367.792 622.356Z" fill="#F4F4F5"/>
</svg>
