<svg width="420" height="720" viewBox="0 0 420 720" fill="none" xmlns="http://www.w3.org/2000/svg">
<g clip-path="url(#clip0_17_1967)">
<rect width="420" height="720" fill="#293A60"/>
<rect x="8" y="8" width="404" height="704" rx="42" fill="#404148"/>
<path d="M91.5067 301.231H136.634C146.736 297.654 153.91 293.496 158.791 288.241L109.446 290.819L85.7341 292.058L91.5067 301.231Z" fill="#2D60B3" fill-opacity="0.55"/>
<path d="M68.1222 264.073V239.384L40.3594 250.723L43.7618 288.241L73.9636 273.355L68.1222 264.073Z" fill="#2D60B3" fill-opacity="0.55"/>
<path d="M55.6272 217.507L27 189V237.475L55.6272 217.507Z" fill="#2D60B3" fill-opacity="0.55"/>
<path d="M116.06 203.504L100.667 189H65.1696L63.6084 196.252L96.4688 207.056L113.267 212.578L116.06 203.504Z" fill="#2D60B3" fill-opacity="0.55"/>
<path d="M170.518 212.578C156.723 208.721 146.373 205.792 145.381 205.413L135.269 221.606L130.058 229.949H175.098L170.518 212.578Z" fill="#2D60B3" fill-opacity="0.55"/>
<path d="M206.825 208.467C208.65 201.87 210.728 194.198 212.123 189H178.915L206.825 208.467Z" fill="#2D60B3" fill-opacity="0.55"/>
<path d="M289.989 189L304.875 198.368L326.25 211.819C326.555 209.137 332.739 195.489 335.792 189H289.989Z" fill="#2D60B3" fill-opacity="0.55"/>
<path d="M320.73 229.949L338.846 219.745L326.25 211.819L304.875 198.368L272.046 225.261L266.324 229.949H320.73Z" fill="#2D60B3" fill-opacity="0.55"/>
<path d="M338.846 219.745L320.73 229.949L310.837 244.728L318.234 244.285L349.077 242.438L347.554 223.734L346.862 215.23L338.846 219.745Z" fill="#2D60B3" fill-opacity="0.55"/>
<path d="M316.326 304.987L323.144 294.73L320.73 269.928L319.206 254.27C314.998 258.414 308.103 265.065 302.716 269.928L312.891 304.783L316.326 304.987Z" fill="#2D60B3" fill-opacity="0.55"/>
<path d="M272.255 302.364L288.844 303.351C289.068 302.1 292.273 288.223 295.106 276.027C296.136 271.59 297.117 267.376 297.887 264.073L272.255 302.364Z" fill="#2D60B3" fill-opacity="0.55"/>
<path d="M236.228 356.183L236.8 364.199L260.598 354.967L273.576 349.933L278.167 339.007L275.238 332.136L248.748 337.48L236.228 356.183Z" fill="#2D60B3" fill-opacity="0.55"/>
<path d="M290.92 343.205L273.576 349.933L260.598 354.967L255.659 388.246L254.129 398.551L290.92 343.205Z" fill="#2D60B3" fill-opacity="0.55"/>
<path d="M169.459 455.927L205.074 437.348L207.924 433.306L195.347 417.254L169.459 455.927Z" fill="#2D60B3" fill-opacity="0.55"/>
<path d="M240.689 418.769L230.062 424.313L244.623 446.645L268.501 433.306L280.837 426.415L272.812 418.769H240.689Z" fill="#2D60B3" fill-opacity="0.55"/>
<path d="M297.241 455.927L304.872 449.317L280.837 426.415L268.501 433.306L278.92 455.927H297.241Z" fill="#2D60B3" fill-opacity="0.55"/>
<path d="M393.429 418.769H318.616C322.186 420.918 326.618 423.587 331.312 426.415C346.357 435.48 364.096 446.18 364.782 446.645L379.105 432.707L393.429 418.769Z" fill="#2D60B3" fill-opacity="0.55"/>
<path d="M393.429 486.723V444.737L383.51 449.317L389.72 472.739L393.429 486.723Z" fill="#2D60B3" fill-opacity="0.55"/>
<path d="M355.244 472.739C355.244 489.385 350.016 493.888 335.3 493.843L359.458 509.285L370.908 516.604L368.704 503.9L362.129 466.012L355.244 464.333V472.739Z" fill="#2D60B3" fill-opacity="0.55"/>
<path d="M370.908 516.604L393.429 531V498.174L368.704 503.9L370.908 516.604Z" fill="#2D60B3" fill-opacity="0.55"/>
<path d="M337.319 531L344.19 524.261L317.034 498.174L317.457 506.953L318.616 531H337.319Z" fill="#2D60B3" fill-opacity="0.55"/>
<path d="M272.812 531L306.783 512.702L272.812 498.7L254.129 520.108L244.623 531H272.812Z" fill="#2D60B3" fill-opacity="0.55"/>
<path d="M225.864 496.627L215.206 493.825L198.659 493.827C190.169 496.624 172.808 502.088 171.281 501.564L189.984 507.984L219.23 518.022L225.864 496.627Z" fill="#2D60B3" fill-opacity="0.55"/>
<path d="M116.317 531H173.19C174.281 529.597 175.602 527.887 177.018 526.038L151.576 506.571L132.038 520.108L121.661 527.298L116.317 531Z" fill="#2D60B3" fill-opacity="0.55"/>
<path d="M132.038 520.108L133.071 502.373L114.027 493.839C103.224 493.841 96.761 493.843 96.761 493.843L90.7433 497.048C92.885 499.108 95.4806 501.609 98.2473 504.281C108.63 514.309 121.42 526.743 121.661 527.298L132.038 520.108Z" fill="#2D60B3" fill-opacity="0.55"/>
<path d="M51.3649 518.022L27 531H64.4062L59.9642 513.442L51.3649 518.022Z" fill="#2D60B3" fill-opacity="0.55"/>
<path d="M52.3509 493.843C52.2363 496.609 52.0773 500.46 51.9202 504.281L62.4978 493.843L66.9382 476.417L67.8852 471.074L52.3509 493.843Z" fill="#2D60B3" fill-opacity="0.55"/>
<path d="M72.8036 496.762L101.747 486.342L105.553 480.616L100.286 480.043L86.2457 478.517L66.9382 476.417L62.4978 493.843L72.8036 496.762Z" fill="#2D60B3" fill-opacity="0.55"/>
<path d="M105.553 480.616L116.464 464.203L115.455 452.752L115.018 447.79L97.6138 454.623L100.286 480.043L105.553 480.616Z" fill="#2D60B3" fill-opacity="0.55"/>
<path d="M113.263 427.872L88.7968 445.5L87.7941 458.478L97.6138 454.623L115.018 447.79L113.263 427.872Z" fill="#2D60B3" fill-opacity="0.55"/>
<path d="M132.703 439.775L120.054 422.98L113.263 427.872L115.018 447.79L115.455 452.752L130.44 443.179L132.703 439.775Z" fill="#2D60B3" fill-opacity="0.55"/>
<path d="M146.731 397.025L126.623 399.731L131.392 412.674L149.503 404.658L146.731 397.025Z" fill="#2D60B3" fill-opacity="0.55"/>
<path d="M151.815 361.049L142.272 362.043L132.208 376.795L138.837 375.283L162.557 369.876L151.815 361.049Z" fill="#2D60B3" fill-opacity="0.55"/>
<path d="M186.549 358.773L186.667 351.984C186.673 351.64 179.885 349.906 172.045 348.025L173.687 358.773L176.091 374.504L186.549 358.773Z" fill="#2D60B3" fill-opacity="0.55"/>
<path d="M187.312 314.829L170.489 320.685L154.603 343.969C155.867 344.255 157.281 344.576 158.791 344.922L187.151 324.121L187.312 314.829Z" fill="#2D60B3" fill-opacity="0.55"/>
<path d="M217.438 293.203L214.056 281.371L199.145 285.046L196.296 307.326L218.747 297.783L217.438 293.203Z" fill="#2D60B3" fill-opacity="0.55"/>
<path d="M222.445 269.92C220.546 279.654 217.957 292.453 217.438 293.203L218.747 297.783L221.256 306.562L234.704 286.333L222.445 269.92Z" fill="#2D60B3" fill-opacity="0.55"/>
<path d="M214.056 281.371L209.113 264.073L193.926 286.333L199.145 285.046L214.056 281.371Z" fill="#2D60B3" fill-opacity="0.55"/>
<path d="M27 256.179V301.231H44.9397L43.7618 288.241L40.3594 250.723L27 256.179Z" fill="#3066BE" fill-opacity="0.65"/>
<path d="M107.92 229.949L113.267 212.578L96.4688 207.056C95.858 208.184 86.0357 222.788 81.2009 229.949H107.92Z" fill="#3066BE" fill-opacity="0.65"/>
<path d="M44.9397 301.231H91.5067L85.7341 292.058L73.9636 273.355L43.7618 288.241L44.9397 301.231Z" fill="#3066BE" fill-opacity="0.65"/>
<path d="M58.4315 220.299L68.1222 229.949H81.2009C86.0357 222.788 95.858 208.184 96.4688 207.056L63.6084 196.252L58.4315 220.299Z" fill="#3066BE" fill-opacity="0.65"/>
<path d="M267.528 196.634L266.324 189H212.123C210.728 194.198 208.65 201.87 206.825 208.467C204.821 215.706 203.122 221.65 202.962 221.606C208.761 223.214 214.459 224.792 219.757 226.257L267.528 196.634Z" fill="#3066BE" fill-opacity="0.65"/>
<path fill-rule="evenodd" clip-rule="evenodd" d="M375.871 189H335.792C332.739 195.489 326.555 209.137 326.25 211.819L338.846 219.745L346.862 215.23L362.129 206.63C361.213 207.146 370.908 195.092 375.871 189ZM289.989 189L304.875 198.368L272.046 225.261L267.528 196.634L266.324 189H289.989ZM202.962 221.606C191.82 218.516 180.302 215.314 170.518 212.578C156.723 208.721 146.373 205.792 145.381 205.413L155.632 189H178.915L206.825 208.467C204.821 215.706 203.122 221.65 202.962 221.606Z" fill="#3066BE" fill-opacity="0.65"/>
<path d="M362.129 206.63L393.429 189H375.871C370.908 195.092 361.213 207.146 362.129 206.63Z" fill="#3066BE" fill-opacity="0.65"/>
<path d="M293.042 303.601L286.025 320.304L307.667 318.013L316.326 304.987L312.891 304.783L293.042 303.601Z" fill="#3066BE" fill-opacity="0.65"/>
<path d="M236.8 364.199L236.228 356.183L213.65 389.913L215.206 422.98L238.622 389.772L237.453 373.359L236.8 364.199Z" fill="#3066BE" fill-opacity="0.65"/>
<path fill-rule="evenodd" clip-rule="evenodd" d="M240.689 418.769L254.129 398.551L255.659 388.246L260.598 354.967L236.8 364.199L237.453 373.359L238.622 389.772L240.689 418.769ZM273.576 349.933L290.92 343.205L307.667 318.013L286.025 320.304L278.167 339.007L273.576 349.933ZM295.106 276.027C296.013 275.778 299.007 273.277 302.716 269.928C308.103 265.065 314.998 258.414 319.206 254.27L320.73 269.928C322.662 270.227 334.985 268.775 340.906 268.011L350.04 254.27L349.077 242.438L318.234 244.285L310.837 244.728L297.887 264.073C297.117 267.376 296.136 271.59 295.106 276.027Z" fill="#3066BE" fill-opacity="0.65"/>
<path fill-rule="evenodd" clip-rule="evenodd" d="M355.244 455.927L364.782 446.645L379.105 432.707L383.51 449.317L389.72 472.739L393.429 486.723V498.174L368.704 503.9L362.129 466.012L355.244 464.333V455.927ZM250.674 455.927H278.92L268.501 433.306L244.623 446.645L250.674 455.927Z" fill="#3066BE" fill-opacity="0.65"/>
<path d="M317.034 498.174L312.509 493.827C299.108 493.823 281.017 493.822 260.98 493.822L272.812 498.7L306.783 512.702L317.457 506.953L317.034 498.174Z" fill="#3066BE" fill-opacity="0.65"/>
<path fill-rule="evenodd" clip-rule="evenodd" d="M77.3839 531H64.4062L59.9642 513.442L78.9107 503.35L80.8192 526.601L77.3839 531ZM177.018 526.038L151.576 506.571L162.938 498.7L171.281 501.564L189.984 507.984L219.23 518.022L215.206 531H203.344H173.19C174.281 529.597 175.602 527.887 177.018 526.038Z" fill="#3066BE" fill-opacity="0.65"/>
<path d="M51.9202 504.281C51.6558 510.714 51.3968 517.065 51.3649 518.022L59.9642 513.442L78.9107 503.35L86.4789 499.319L72.8036 496.762L62.4978 493.843L51.9202 504.281Z" fill="#3066BE" fill-opacity="0.65"/>
<path d="M138.837 375.283L132.208 376.795L115.541 401.223L126.623 399.731L146.731 397.025L138.837 375.283Z" fill="#3066BE" fill-opacity="0.65"/>
<path fill-rule="evenodd" clip-rule="evenodd" d="M196.296 307.326L218.747 297.783L221.256 306.562L211.868 320.685L207.542 318.335L195.71 311.906L196.296 307.326ZM186.959 335.19L187.151 324.121L158.791 344.922C162.855 345.854 167.617 346.963 172.045 348.025C179.885 349.906 186.673 351.64 186.667 351.984L186.959 335.19ZM162.557 369.876L138.837 375.283L146.731 397.025L149.503 404.658L151.815 411.024L173.3 378.703L162.557 369.876ZM131.392 412.674L133.362 418.018H116.317H104.083L115.541 401.223L126.623 399.731L131.392 412.674ZM86.2457 478.517L87.7941 458.478L97.6138 454.623L100.286 480.043L86.2457 478.517ZM72.8036 496.762L101.747 486.342L96.761 493.843L90.7433 497.048L86.4789 499.319L72.8036 496.762Z" fill="#3066BE" fill-opacity="0.65"/>
<path d="M195.71 311.906L187.312 314.829L187.151 324.121L186.959 335.19L207.542 318.335L195.71 311.906Z" fill="#3066BE" fill-opacity="0.65"/>
<path d="M223.574 264.073H209.113L214.056 281.371L217.438 293.203C217.957 292.453 220.546 279.654 222.445 269.92C222.865 267.766 223.251 265.763 223.574 264.073Z" fill="#3066BE" fill-opacity="0.65"/>
<path d="M68.1222 264.073L73.9636 273.355L85.7341 292.058L109.446 290.819L133.875 264.073H68.1222Z" fill="#336ECC" fill-opacity="0.6"/>
<path d="M158.791 288.241C164.575 282.013 167.139 274.243 167.538 264.073H133.875L109.446 290.819L158.791 288.241Z" fill="#336ECC" fill-opacity="0.6"/>
<path d="M68.1222 239.384V229.949L58.4315 220.299L55.6272 217.507L27 237.475V256.179L40.3594 250.723L68.1222 239.384Z" fill="#336ECC" fill-opacity="0.6"/>
<path d="M27 189L55.6272 217.507L58.4315 220.299L63.6084 196.252L65.1696 189H27Z" fill="#336ECC" fill-opacity="0.6"/>
<path fill-rule="evenodd" clip-rule="evenodd" d="M289.989 189L304.875 198.368L272.046 225.261L266.324 229.949H233.116H175.098L170.518 212.578C180.302 215.314 191.82 218.516 202.962 221.606C208.761 223.214 214.459 224.792 219.757 226.257L267.528 196.634L266.324 189H289.989ZM155.632 189L145.381 205.413L135.269 221.606L130.058 229.949H107.92L113.267 212.578L116.06 203.504L100.667 189H155.632Z" fill="#336ECC" fill-opacity="0.6"/>
<path fill-rule="evenodd" clip-rule="evenodd" d="M240.689 418.769L230.062 424.313L205.074 437.348L207.924 433.306L195.347 417.254L213.65 389.913L215.206 422.98L238.622 389.772L240.689 418.769ZM278.167 339.007L286.025 320.304L293.042 303.601L312.891 304.783L302.716 269.928C299.007 273.277 296.013 275.778 295.106 276.027C292.273 288.223 289.068 302.1 288.844 303.351L272.255 302.364L266.324 311.225L248.748 337.48L275.238 332.136L278.167 339.007ZM320.73 269.928L323.144 294.73L340.906 268.011C334.985 268.775 322.662 270.227 320.73 269.928ZM350.04 254.27L370.339 223.734L393.429 189L362.129 206.63L346.862 215.23L347.554 223.734L349.077 242.438L350.04 254.27Z" fill="#336ECC" fill-opacity="0.6"/>
<path fill-rule="evenodd" clip-rule="evenodd" d="M272.812 418.769H318.616C322.186 420.918 326.618 423.587 331.312 426.415C346.357 435.48 364.096 446.18 364.782 446.645L355.244 455.927H297.241L304.872 449.317L280.837 426.415L272.812 418.769ZM383.51 449.317L379.105 432.707L393.429 418.769V444.737L383.51 449.317ZM230.062 424.313L244.623 446.645L250.674 455.927H169.459L205.074 437.348L230.062 424.313Z" fill="#336ECC" fill-opacity="0.6"/>
<path fill-rule="evenodd" clip-rule="evenodd" d="M116.317 531H77.3839L80.8192 526.601L78.9107 503.35L86.4789 499.319L90.7433 497.048C92.885 499.108 95.4806 501.609 98.2473 504.281C108.63 514.309 121.42 526.743 121.661 527.298L116.317 531ZM133.071 502.373L114.027 493.839C123.011 493.838 134.997 493.836 148.761 493.833C163.801 493.831 180.965 493.829 198.659 493.827C190.169 496.624 172.808 502.088 171.281 501.564L162.938 498.7L151.576 506.571L132.038 520.108L133.071 502.373ZM215.206 531L219.23 518.022L225.864 496.627L215.206 493.825C225.09 493.824 234.986 493.823 244.623 493.823C250.178 493.823 255.648 493.822 260.98 493.822L272.812 498.7L254.129 520.108L244.623 531H215.206ZM317.034 498.174L312.509 493.827C324.581 493.83 332.847 493.835 335.3 493.843L359.458 509.285L370.908 516.604L393.429 531H337.319L344.19 524.261L317.034 498.174ZM306.783 512.702L317.457 506.953L318.616 531H272.812L306.783 512.702Z" fill="#336ECC" fill-opacity="0.6"/>
<path fill-rule="evenodd" clip-rule="evenodd" d="M223.574 264.073C223.251 265.763 222.865 267.766 222.445 269.92L234.704 286.333L249.501 264.073H223.574ZM196.296 307.326L199.145 285.046L193.926 286.333L170.489 320.685L187.312 314.829L195.71 311.906L196.296 307.326ZM186.549 358.773L211.868 320.685L207.542 318.335L186.959 335.19L186.667 351.984L186.549 358.773ZM154.603 343.969C155.867 344.255 157.281 344.576 158.791 344.922C162.855 345.854 167.617 346.963 172.045 348.025L173.687 358.773L176.091 374.504L173.3 378.703L162.557 369.876L151.815 361.049L142.272 362.043L154.603 343.969ZM151.815 411.024L149.503 404.658L131.392 412.674L133.362 418.018H116.317H104.083L89.2392 439.775L67.8852 471.074L66.9382 476.417L86.2457 478.517L87.7941 458.478L88.7968 445.5L113.263 427.872L120.054 422.98L132.703 439.775L138.285 431.377L151.815 411.024ZM116.464 464.203L130.44 443.179L115.455 452.752L116.464 464.203ZM52.3509 493.843C52.2363 496.609 52.0773 500.46 51.9202 504.281C51.6558 510.714 51.3968 517.065 51.3649 518.022L27 531L52.3509 493.843Z" fill="#336ECC" fill-opacity="0.6"/>
<g filter="url(#filter0_d_17_1967)">
<rect width="420" height="120" fill="#293A60"/>
</g>
<g filter="url(#filter1_d_17_1967)">
<rect y="600" width="420" height="120" fill="#293A60"/>
</g>
<rect width="420" height="720" fill="#293A60"/>
<rect x="8" y="8" width="404" height="704" rx="42" fill="#404148"/>
<path d="M91.5067 301.231H136.634C146.736 297.654 153.91 293.496 158.791 288.241L109.446 290.819L85.7341 292.058L91.5067 301.231Z" fill="#2D60B3" fill-opacity="0.55"/>
<path d="M68.1222 264.073V239.384L40.3594 250.723L43.7618 288.241L73.9636 273.355L68.1222 264.073Z" fill="#2D60B3" fill-opacity="0.55"/>
<path d="M55.6272 217.507L27 189V237.475L55.6272 217.507Z" fill="#2D60B3" fill-opacity="0.55"/>
<path d="M116.06 203.504L100.667 189H65.1696L63.6084 196.252L96.4688 207.056L113.267 212.578L116.06 203.504Z" fill="#2D60B3" fill-opacity="0.55"/>
<path d="M170.518 212.578C156.723 208.721 146.373 205.792 145.381 205.413L135.269 221.606L130.058 229.949H175.098L170.518 212.578Z" fill="#2D60B3" fill-opacity="0.55"/>
<path d="M206.825 208.467C208.65 201.87 210.728 194.198 212.123 189H178.915L206.825 208.467Z" fill="#2D60B3" fill-opacity="0.55"/>
<path d="M289.989 189L304.875 198.368L326.25 211.819C326.555 209.137 332.739 195.489 335.792 189H289.989Z" fill="#2D60B3" fill-opacity="0.55"/>
<path d="M320.73 229.949L338.846 219.745L326.25 211.819L304.875 198.368L272.046 225.261L266.324 229.949H320.73Z" fill="#2D60B3" fill-opacity="0.55"/>
<path d="M338.846 219.745L320.73 229.949L310.837 244.728L318.234 244.285L349.077 242.438L347.554 223.734L346.862 215.23L338.846 219.745Z" fill="#2D60B3" fill-opacity="0.55"/>
<path d="M316.326 304.987L323.144 294.73L320.73 269.928L319.206 254.27C314.998 258.414 308.103 265.065 302.716 269.928L312.891 304.783L316.326 304.987Z" fill="#2D60B3" fill-opacity="0.55"/>
<path d="M272.255 302.364L288.844 303.351C289.068 302.1 292.273 288.223 295.106 276.027C296.136 271.59 297.117 267.376 297.887 264.073L272.255 302.364Z" fill="#2D60B3" fill-opacity="0.55"/>
<path d="M236.228 356.183L236.8 364.199L260.598 354.967L273.576 349.933L278.167 339.007L275.238 332.136L248.748 337.48L236.228 356.183Z" fill="#2D60B3" fill-opacity="0.55"/>
<path d="M290.92 343.205L273.576 349.933L260.598 354.967L255.659 388.246L254.129 398.551L290.92 343.205Z" fill="#2D60B3" fill-opacity="0.55"/>
<path d="M169.459 455.927L205.074 437.348L207.924 433.306L195.347 417.254L169.459 455.927Z" fill="#2D60B3" fill-opacity="0.55"/>
<path d="M240.689 418.769L230.063 424.313L244.623 446.645L268.501 433.306L280.837 426.415L272.813 418.769H240.689Z" fill="#2D60B3" fill-opacity="0.55"/>
<path d="M297.241 455.927L304.872 449.317L280.837 426.415L268.501 433.306L278.92 455.927H297.241Z" fill="#2D60B3" fill-opacity="0.55"/>
<path d="M393.429 418.769H318.616C322.186 420.918 326.618 423.587 331.312 426.415C346.357 435.48 364.096 446.18 364.782 446.645L379.105 432.707L393.429 418.769Z" fill="#2D60B3" fill-opacity="0.55"/>
<path d="M393.429 486.723V444.737L383.51 449.317L389.72 472.739L393.429 486.723Z" fill="#2D60B3" fill-opacity="0.55"/>
<path d="M355.244 472.739C355.244 489.385 350.016 493.888 335.3 493.843L359.458 509.285L370.908 516.604L368.704 503.9L362.129 466.012L355.244 464.333V472.739Z" fill="#2D60B3" fill-opacity="0.55"/>
<path d="M370.908 516.604L393.429 531V498.174L368.704 503.9L370.908 516.604Z" fill="#2D60B3" fill-opacity="0.55"/>
<path d="M337.319 531L344.19 524.261L317.034 498.174L317.457 506.953L318.616 531H337.319Z" fill="#2D60B3" fill-opacity="0.55"/>
<path d="M272.813 531L306.783 512.702L272.813 498.7L254.129 520.108L244.623 531H272.813Z" fill="#2D60B3" fill-opacity="0.55"/>
<path d="M225.864 496.627L215.206 493.825L198.659 493.827C190.169 496.624 172.808 502.088 171.281 501.564L189.984 507.984L219.23 518.022L225.864 496.627Z" fill="#2D60B3" fill-opacity="0.55"/>
<path d="M116.317 531H173.19C174.281 529.597 175.602 527.887 177.018 526.038L151.576 506.571L132.038 520.108L121.661 527.298L116.317 531Z" fill="#2D60B3" fill-opacity="0.55"/>
<path d="M132.038 520.108L133.071 502.373L114.027 493.839C103.224 493.841 96.761 493.843 96.761 493.843L90.7433 497.048C92.885 499.108 95.4806 501.609 98.2473 504.281C108.63 514.309 121.42 526.743 121.661 527.298L132.038 520.108Z" fill="#2D60B3" fill-opacity="0.55"/>
<path d="M51.3649 518.022L27 531H64.4063L59.9642 513.442L51.3649 518.022Z" fill="#2D60B3" fill-opacity="0.55"/>
<path d="M52.3509 493.843C52.2363 496.609 52.0773 500.46 51.9202 504.281L62.4978 493.843L66.9382 476.417L67.8852 471.074L52.3509 493.843Z" fill="#2D60B3" fill-opacity="0.55"/>
<path d="M72.8036 496.762L101.747 486.342L105.553 480.616L100.286 480.043L86.2457 478.517L66.9382 476.417L62.4978 493.843L72.8036 496.762Z" fill="#2D60B3" fill-opacity="0.55"/>
<path d="M105.553 480.616L116.464 464.203L115.455 452.752L115.018 447.79L97.6138 454.623L100.286 480.043L105.553 480.616Z" fill="#2D60B3" fill-opacity="0.55"/>
<path d="M113.263 427.872L88.7968 445.5L87.7941 458.478L97.6138 454.623L115.018 447.79L113.263 427.872Z" fill="#2D60B3" fill-opacity="0.55"/>
<path d="M132.703 439.775L120.054 422.98L113.263 427.872L115.018 447.79L115.455 452.752L130.44 443.179L132.703 439.775Z" fill="#2D60B3" fill-opacity="0.55"/>
<path d="M146.731 397.025L126.623 399.731L131.392 412.674L149.503 404.658L146.731 397.025Z" fill="#2D60B3" fill-opacity="0.55"/>
<path d="M151.815 361.049L142.272 362.043L132.208 376.795L138.837 375.283L162.557 369.876L151.815 361.049Z" fill="#2D60B3" fill-opacity="0.55"/>
<path d="M186.549 358.773L186.667 351.984C186.673 351.64 179.885 349.906 172.045 348.025L173.687 358.773L176.091 374.504L186.549 358.773Z" fill="#2D60B3" fill-opacity="0.55"/>
<path d="M187.313 314.829L170.489 320.685L154.603 343.969C155.867 344.255 157.281 344.576 158.791 344.922L187.151 324.121L187.313 314.829Z" fill="#2D60B3" fill-opacity="0.55"/>
<path d="M217.438 293.203L214.056 281.371L199.145 285.046L196.296 307.326L218.747 297.783L217.438 293.203Z" fill="#2D60B3" fill-opacity="0.55"/>
<path d="M222.445 269.92C220.546 279.654 217.957 292.453 217.438 293.203L218.747 297.783L221.256 306.563L234.704 286.333L222.445 269.92Z" fill="#2D60B3" fill-opacity="0.55"/>
<path d="M214.056 281.371L209.113 264.073L193.926 286.333L199.145 285.046L214.056 281.371Z" fill="#2D60B3" fill-opacity="0.55"/>
<path d="M27 256.179V301.231H44.9397L43.7618 288.241L40.3594 250.723L27 256.179Z" fill="#3066BE" fill-opacity="0.65"/>
<path d="M107.92 229.949L113.267 212.578L96.4688 207.056C95.858 208.184 86.0357 222.788 81.2009 229.949H107.92Z" fill="#3066BE" fill-opacity="0.65"/>
<path d="M44.9397 301.231H91.5067L85.7341 292.058L73.9636 273.355L43.7618 288.241L44.9397 301.231Z" fill="#3066BE" fill-opacity="0.65"/>
<path d="M58.4315 220.299L68.1222 229.949H81.2009C86.0357 222.788 95.858 208.184 96.4688 207.056L63.6084 196.252L58.4315 220.299Z" fill="#3066BE" fill-opacity="0.65"/>
<path d="M267.528 196.634L266.324 189H212.123C210.728 194.198 208.65 201.87 206.825 208.467C204.821 215.706 203.122 221.65 202.962 221.606C208.761 223.214 214.459 224.792 219.757 226.257L267.528 196.634Z" fill="#3066BE" fill-opacity="0.65"/>
<path fill-rule="evenodd" clip-rule="evenodd" d="M375.871 189H335.792C332.739 195.489 326.555 209.137 326.25 211.819L338.846 219.745L346.862 215.23L362.129 206.63C361.213 207.146 370.908 195.092 375.871 189ZM289.989 189L304.875 198.368L272.046 225.261L267.528 196.634L266.324 189H289.989ZM202.962 221.606C191.82 218.516 180.302 215.314 170.518 212.578C156.723 208.721 146.373 205.792 145.381 205.413L155.632 189H178.915L206.825 208.467C204.821 215.706 203.122 221.65 202.962 221.606Z" fill="#3066BE" fill-opacity="0.65"/>
<path d="M362.129 206.63L393.429 189H375.871C370.908 195.092 361.213 207.146 362.129 206.63Z" fill="#3066BE" fill-opacity="0.65"/>
<path d="M293.042 303.601L286.025 320.304L307.667 318.013L316.326 304.987L312.891 304.783L293.042 303.601Z" fill="#3066BE" fill-opacity="0.65"/>
<path d="M236.8 364.199L236.228 356.183L213.65 389.913L215.206 422.98L238.622 389.772L237.453 373.359L236.8 364.199Z" fill="#3066BE" fill-opacity="0.65"/>
<path fill-rule="evenodd" clip-rule="evenodd" d="M240.689 418.769L254.129 398.551L255.659 388.246L260.598 354.967L236.8 364.199L237.453 373.359L238.622 389.772L240.689 418.769ZM273.576 349.933L290.92 343.205L307.667 318.013L286.025 320.304L278.167 339.007L273.576 349.933ZM295.106 276.027C296.013 275.778 299.007 273.277 302.716 269.928C308.103 265.065 314.998 258.414 319.206 254.27L320.73 269.928C322.662 270.227 334.985 268.775 340.906 268.011L350.04 254.27L349.077 242.438L318.234 244.285L310.837 244.728L297.887 264.073C297.117 267.376 296.136 271.59 295.106 276.027Z" fill="#3066BE" fill-opacity="0.65"/>
<path fill-rule="evenodd" clip-rule="evenodd" d="M355.244 455.927L364.782 446.645L379.105 432.707L383.51 449.317L389.72 472.739L393.429 486.723V498.174L368.704 503.9L362.129 466.012L355.244 464.333V455.927ZM250.674 455.927H278.92L268.501 433.306L244.623 446.645L250.674 455.927Z" fill="#3066BE" fill-opacity="0.65"/>
<path d="M317.034 498.174L312.509 493.827C299.108 493.823 281.017 493.822 260.98 493.822L272.813 498.7L306.783 512.702L317.457 506.953L317.034 498.174Z" fill="#3066BE" fill-opacity="0.65"/>
<path fill-rule="evenodd" clip-rule="evenodd" d="M77.3839 531H64.4063L59.9642 513.442L78.9107 503.35L80.8192 526.601L77.3839 531ZM177.018 526.038L151.576 506.571L162.938 498.7L171.281 501.564L189.984 507.984L219.23 518.022L215.206 531H203.344H173.19C174.281 529.597 175.602 527.887 177.018 526.038Z" fill="#3066BE" fill-opacity="0.65"/>
<path d="M51.9202 504.281C51.6558 510.714 51.3968 517.065 51.3649 518.022L59.9642 513.442L78.9107 503.35L86.4789 499.319L72.8036 496.762L62.4978 493.843L51.9202 504.281Z" fill="#3066BE" fill-opacity="0.65"/>
<path d="M138.837 375.283L132.208 376.795L115.541 401.223L126.623 399.731L146.731 397.025L138.837 375.283Z" fill="#3066BE" fill-opacity="0.65"/>
<path fill-rule="evenodd" clip-rule="evenodd" d="M196.296 307.326L218.747 297.783L221.256 306.563L211.868 320.685L207.542 318.335L195.71 311.906L196.296 307.326ZM186.959 335.19L187.151 324.121L158.791 344.922C162.855 345.854 167.617 346.963 172.045 348.025C179.885 349.906 186.673 351.64 186.667 351.984L186.959 335.19ZM162.557 369.876L138.837 375.283L146.731 397.025L149.503 404.658L151.815 411.024L173.3 378.703L162.557 369.876ZM131.392 412.674L133.362 418.018H116.317H104.083L115.541 401.223L126.623 399.731L131.392 412.674ZM86.2457 478.517L87.7941 458.478L97.6138 454.623L100.286 480.043L86.2457 478.517ZM72.8036 496.762L101.747 486.342L96.761 493.843L90.7433 497.048L86.4789 499.319L72.8036 496.762Z" fill="#3066BE" fill-opacity="0.65"/>
<path d="M195.71 311.906L187.313 314.829L187.151 324.121L186.959 335.19L207.542 318.335L195.71 311.906Z" fill="#3066BE" fill-opacity="0.65"/>
<path d="M223.574 264.073H209.113L214.056 281.371L217.438 293.203C217.957 292.453 220.546 279.654 222.445 269.92C222.865 267.766 223.251 265.763 223.574 264.073Z" fill="#3066BE" fill-opacity="0.65"/>
<path d="M68.1222 264.073L73.9636 273.355L85.7341 292.058L109.446 290.819L133.875 264.073H68.1222Z" fill="#336ECC" fill-opacity="0.6"/>
<path d="M158.791 288.241C164.575 282.013 167.139 274.243 167.538 264.073H133.875L109.446 290.819L158.791 288.241Z" fill="#336ECC" fill-opacity="0.6"/>
<path d="M68.1222 239.384V229.949L58.4315 220.299L55.6272 217.507L27 237.475V256.179L40.3594 250.723L68.1222 239.384Z" fill="#336ECC" fill-opacity="0.6"/>
<path d="M27 189L55.6272 217.507L58.4315 220.299L63.6084 196.252L65.1696 189H27Z" fill="#336ECC" fill-opacity="0.6"/>
<path fill-rule="evenodd" clip-rule="evenodd" d="M289.989 189L304.875 198.368L272.046 225.261L266.324 229.949H233.116H175.098L170.518 212.578C180.302 215.314 191.82 218.516 202.962 221.606C208.761 223.214 214.459 224.792 219.757 226.257L267.528 196.634L266.324 189H289.989ZM155.632 189L145.381 205.413L135.269 221.606L130.058 229.949H107.92L113.267 212.578L116.06 203.504L100.667 189H155.632Z" fill="#336ECC" fill-opacity="0.6"/>
<path fill-rule="evenodd" clip-rule="evenodd" d="M240.689 418.769L230.063 424.313L205.074 437.348L207.924 433.306L195.347 417.254L213.65 389.913L215.206 422.98L238.622 389.772L240.689 418.769ZM278.167 339.007L286.025 320.304L293.042 303.601L312.891 304.783L302.716 269.928C299.007 273.277 296.013 275.778 295.106 276.027C292.273 288.223 289.068 302.1 288.844 303.351L272.255 302.364L266.324 311.225L248.748 337.48L275.238 332.136L278.167 339.007ZM320.73 269.928L323.144 294.73L340.906 268.011C334.985 268.775 322.662 270.227 320.73 269.928ZM350.04 254.27L370.339 223.734L393.429 189L362.129 206.63L346.862 215.23L347.554 223.734L349.077 242.438L350.04 254.27Z" fill="#336ECC" fill-opacity="0.6"/>
<path fill-rule="evenodd" clip-rule="evenodd" d="M272.813 418.769H318.616C322.186 420.918 326.618 423.587 331.312 426.415C346.357 435.48 364.096 446.18 364.782 446.645L355.244 455.927H297.241L304.872 449.317L280.837 426.415L272.813 418.769ZM383.51 449.317L379.105 432.707L393.429 418.769V444.737L383.51 449.317ZM230.063 424.313L244.623 446.645L250.674 455.927H169.459L205.074 437.348L230.063 424.313Z" fill="#336ECC" fill-opacity="0.6"/>
<path fill-rule="evenodd" clip-rule="evenodd" d="M116.317 531H77.3839L80.8192 526.601L78.9107 503.35L86.4789 499.319L90.7433 497.048C92.885 499.108 95.4806 501.609 98.2473 504.281C108.63 514.309 121.42 526.743 121.661 527.298L116.317 531ZM133.071 502.373L114.027 493.839C123.011 493.838 134.997 493.836 148.761 493.833C163.801 493.831 180.965 493.829 198.659 493.827C190.169 496.624 172.808 502.088 171.281 501.564L162.938 498.7L151.576 506.571L132.038 520.108L133.071 502.373ZM215.206 531L219.23 518.022L225.864 496.627L215.206 493.825C225.09 493.824 234.986 493.823 244.623 493.823C250.178 493.823 255.648 493.822 260.98 493.822L272.813 498.7L254.129 520.108L244.623 531H215.206ZM317.034 498.174L312.509 493.827C324.581 493.83 332.847 493.835 335.3 493.843L359.458 509.285L370.908 516.604L393.429 531H337.319L344.19 524.261L317.034 498.174ZM306.783 512.702L317.457 506.953L318.616 531H272.813L306.783 512.702Z" fill="#336ECC" fill-opacity="0.6"/>
<path fill-rule="evenodd" clip-rule="evenodd" d="M223.574 264.073C223.251 265.763 222.865 267.766 222.445 269.92L234.704 286.333L249.501 264.073H223.574ZM196.296 307.326L199.145 285.046L193.926 286.333L170.489 320.685L187.313 314.829L195.71 311.906L196.296 307.326ZM186.549 358.773L211.868 320.685L207.542 318.335L186.959 335.19L186.667 351.984L186.549 358.773ZM154.603 343.969C155.867 344.255 157.281 344.576 158.791 344.922C162.855 345.854 167.617 346.963 172.045 348.025L173.687 358.773L176.091 374.504L173.3 378.703L162.557 369.876L151.815 361.049L142.272 362.043L154.603 343.969ZM151.815 411.024L149.503 404.658L131.392 412.674L133.362 418.018H116.317H104.083L89.2392 439.775L67.8852 471.074L66.9382 476.417L86.2457 478.517L87.7941 458.478L88.7968 445.5L113.263 427.872L120.054 422.98L132.703 439.775L138.285 431.377L151.815 411.024ZM116.464 464.203L130.44 443.179L115.455 452.752L116.464 464.203ZM52.3509 493.843C52.2363 496.609 52.0773 500.46 51.9202 504.281C51.6558 510.714 51.3968 517.065 51.3649 518.022L27 531L52.3509 493.843Z" fill="#336ECC" fill-opacity="0.6"/>
<g filter="url(#filter2_d_17_1967)">
<rect width="420" height="120" fill="#293A60"/>
</g>
<g filter="url(#filter3_d_17_1967)">
<rect y="600" width="420" height="120" fill="#293A60"/>
</g>
</g>
<path d="M52.208 97.644C47.5467 97.644 43.3147 96.6933 39.512 94.792C35.7707 92.8293 32.6427 90.008 30.128 86.328L37.672 78.048C40.3093 80.992 42.6707 82.9853 44.756 84.028C46.9027 85.0707 49.264 85.592 51.84 85.592C53.9867 85.592 55.888 85.1627 57.544 84.304C59.2613 83.384 60.6107 82.1267 61.592 80.532C62.5733 78.9373 63.064 77.1893 63.064 75.288C63.064 73.264 62.5733 71.4547 61.592 69.86C60.6107 68.204 59.292 66.916 57.636 65.996C56.0413 65.076 54.2013 64.616 52.116 64.616C50.828 64.616 49.6013 64.708 48.436 64.892C47.332 65.076 46.0747 65.4747 44.664 66.088C43.2533 66.64 41.5053 67.468 39.42 68.572L33.164 60.2L37.12 32.232H73.368V44.192H44.204L47.516 40.144L44.48 60.384L40.156 58.268C41.076 57.4093 42.3333 56.6427 43.928 55.968C45.584 55.232 47.332 54.6493 49.172 54.22C51.0733 53.7293 52.944 53.484 54.784 53.484C58.832 53.484 62.42 54.404 65.548 56.244C68.7373 58.084 71.252 60.6293 73.092 63.88C74.932 67.1307 75.852 70.872 75.852 75.104C75.852 79.336 74.8093 83.1693 72.724 86.604C70.6387 89.9773 67.8173 92.676 64.26 94.7C60.7027 96.6627 56.6853 97.644 52.208 97.644Z" fill="#C2C2C2"/>
<path d="M367.792 622.356C372.453 622.356 376.685 623.307 380.488 625.208C384.229 627.171 387.357 629.992 389.872 633.672L382.328 641.952C379.691 639.008 377.329 637.015 375.244 635.972C373.097 634.929 370.736 634.408 368.16 634.408C366.013 634.408 364.112 634.837 362.456 635.696C360.739 636.616 359.389 637.873 358.408 639.468C357.427 641.063 356.936 642.811 356.936 644.712C356.936 646.736 357.427 648.545 358.408 650.14C359.389 651.796 360.708 653.084 362.364 654.004C363.959 654.924 365.799 655.384 367.884 655.384C369.172 655.384 370.399 655.292 371.564 655.108C372.668 654.924 373.925 654.525 375.336 653.912C376.747 653.36 378.495 652.532 380.58 651.428L386.836 659.8L382.88 687.768H346.632V675.808H375.796L372.484 679.856L375.52 659.616L379.844 661.732C378.924 662.591 377.667 663.357 376.072 664.032C374.416 664.768 372.668 665.351 370.828 665.78C368.927 666.271 367.056 666.516 365.216 666.516C361.168 666.516 357.58 665.596 354.452 663.756C351.263 661.916 348.748 659.371 346.908 656.12C345.068 652.869 344.148 649.128 344.148 644.896C344.148 640.664 345.191 636.831 347.276 633.396C349.361 630.023 352.183 627.324 355.74 625.3C359.297 623.337 363.315 622.356 367.792 622.356Z" fill="#C2C2C2"/>
<defs>
<filter id="filter0_d_17_1967" x="-51" y="-51" width="522" height="222" filterUnits="userSpaceOnUse" color-interpolation-filters="sRGB">
<feFlood flood-opacity="0" result="BackgroundImageFix"/>
<feColorMatrix in="SourceAlpha" type="matrix" values="0 0 0 0 0 0 0 0 0 0 0 0 0 0 0 0 0 0 127 0" result="hardAlpha"/>
<feMorphology radius="1" operator="dilate" in="SourceAlpha" result="effect1_dropShadow_17_1967"/>
<feOffset/>
<feGaussianBlur stdDeviation="25"/>
<feComposite in2="hardAlpha" operator="out"/>
<feColorMatrix type="matrix" values="0 0 0 0 0.211765 0 0 0 0 0.219608 0 0 0 0 0.278431 0 0 0 0.3 0"/>
<feBlend mode="normal" in2="BackgroundImageFix" result="effect1_dropShadow_17_1967"/>
<feBlend mode="normal" in="SourceGraphic" in2="effect1_dropShadow_17_1967" result="shape"/>
</filter>
<filter id="filter1_d_17_1967" x="-51" y="549" width="522" height="222" filterUnits="userSpaceOnUse" color-interpolation-filters="sRGB">
<feFlood flood-opacity="0" result="BackgroundImageFix"/>
<feColorMatrix in="SourceAlpha" type="matrix" values="0 0 0 0 0 0 0 0 0 0 0 0 0 0 0 0 0 0 127 0" result="hardAlpha"/>
<feMorphology radius="1" operator="dilate" in="SourceAlpha" result="effect1_dropShadow_17_1967"/>
<feOffset/>
<feGaussianBlur stdDeviation="25"/>
<feComposite in2="hardAlpha" operator="out"/>
<feColorMatrix type="matrix" values="0 0 0 0 0.211765 0 0 0 0 0.219608 0 0 0 0 0.278431 0 0 0 0.3 0"/>
<feBlend mode="normal" in2="BackgroundImageFix" result="effect1_dropShadow_17_1967"/>
<feBlend mode="normal" in="SourceGraphic" in2="effect1_dropShadow_17_1967" result="shape"/>
</filter>
<filter id="filter2_d_17_1967" x="-51" y="-51" width="522" height="222" filterUnits="userSpaceOnUse" color-interpolation-filters="sRGB">
<feFlood flood-opacity="0" result="BackgroundImageFix"/>
<feColorMatrix in="SourceAlpha" type="matrix" values="0 0 0 0 0 0 0 0 0 0 0 0 0 0 0 0 0 0 127 0" result="hardAlpha"/>
<feMorphology radius="1" operator="dilate" in="SourceAlpha" result="effect1_dropShadow_17_1967"/>
<feOffset/>
<feGaussianBlur stdDeviation="25"/>
<feComposite in2="hardAlpha" operator="out"/>
<feColorMatrix type="matrix" values="0 0 0 0 0.211765 0 0 0 0 0.219608 0 0 0 0 0.278431 0 0 0 0.3 0"/>
<feBlend mode="normal" in2="BackgroundImageFix" result="effect1_dropShadow_17_1967"/>
<feBlend mode="normal" in="SourceGraphic" in2="effect1_dropShadow_17_1967" result="shape"/>
</filter>
<filter id="filter3_d_17_1967" x="-51" y="549" width="522" height="222" filterUnits="userSpaceOnUse" color-interpolation-filters="sRGB">
<feFlood flood-opacity="0" result="BackgroundImageFix"/>
<feColorMatrix in="SourceAlpha" type="matrix" values="0 0 0 0 0 0 0 0 0 0 0 0 0 0 0 0 0 0 127 0" result="hardAlpha"/>
<feMorphology radius="1" operator="dilate" in="SourceAlpha" result="effect1_dropShadow_17_1967"/>
<feOffset/>
<feGaussianBlur stdDeviation="25"/>
<feComposite in2="hardAlpha" operator="out"/>
<feColorMatrix type="matrix" values="0 0 0 0 0.211765 0 0 0 0 0.219608 0 0 0 0 0.278431 0 0 0 0.3 0"/>
<feBlend mode="normal" in2="BackgroundImageFix" result="effect1_dropShadow_17_1967"/>
<feBlend mode="normal" in="SourceGraphic" in2="effect1_dropShadow_17_1967" result="shape"/>
</filter>
<clipPath id="clip0_17_1967">
<path d="M0 50C0 22.3857 22.3858 0 50 0H370C397.614 0 420 22.3858 420 50V670C420 697.614 397.614 720 370 720H50C22.3858 720 0 697.614 0 670V50Z" fill="white"/>
</clipPath>
</defs>
</svg>
