<svg width="420" height="720" viewBox="0 0 420 720" fill="none" xmlns="http://www.w3.org/2000/svg">
<g clip-path="url(#clip0_17_1975)">
<rect width="420" height="720" fill="#293A60"/>
<rect x="8" y="8" width="404" height="704" rx="42" fill="#404148"/>
<path d="M91.5067 301.231H136.634C146.736 297.654 153.91 293.496 158.791 288.241L109.446 290.819L85.7341 292.058L91.5067 301.231Z" fill="#2D60B3" fill-opacity="0.55"/>
<path d="M68.1222 264.073V239.384L40.3594 250.723L43.7618 288.241L73.9636 273.355L68.1222 264.073Z" fill="#2D60B3" fill-opacity="0.55"/>
<path d="M55.6272 217.507L27 189V237.475L55.6272 217.507Z" fill="#2D60B3" fill-opacity="0.55"/>
<path d="M116.06 203.504L100.667 189H65.1696L63.6084 196.252L96.4688 207.056L113.267 212.578L116.06 203.504Z" fill="#2D60B3" fill-opacity="0.55"/>
<path d="M170.518 212.578C156.723 208.721 146.373 205.792 145.381 205.413L135.269 221.606L130.058 229.949H175.098L170.518 212.578Z" fill="#2D60B3" fill-opacity="0.55"/>
<path d="M206.825 208.467C208.65 201.87 210.728 194.198 212.123 189H178.915L206.825 208.467Z" fill="#2D60B3" fill-opacity="0.55"/>
<path d="M289.989 189L304.875 198.368L326.25 211.819C326.555 209.137 332.739 195.489 335.792 189H289.989Z" fill="#2D60B3" fill-opacity="0.55"/>
<path d="M320.73 229.949L338.846 219.745L326.25 211.819L304.875 198.368L272.046 225.261L266.324 229.949H320.73Z" fill="#2D60B3" fill-opacity="0.55"/>
<path d="M338.846 219.745L320.73 229.949L310.837 244.728L318.234 244.285L349.077 242.438L347.554 223.734L346.862 215.23L338.846 219.745Z" fill="#2D60B3" fill-opacity="0.55"/>
<path d="M316.326 304.987L323.144 294.73L320.73 269.928L319.206 254.27C314.998 258.414 308.103 265.065 302.716 269.928L312.891 304.783L316.326 304.987Z" fill="#2D60B3" fill-opacity="0.55"/>
<path d="M272.255 302.364L288.844 303.351C289.068 302.1 292.273 288.223 295.106 276.027C296.136 271.59 297.117 267.376 297.887 264.073L272.255 302.364Z" fill="#2D60B3" fill-opacity="0.55"/>
<path d="M236.228 356.183L236.8 364.199L260.598 354.967L273.576 349.933L278.167 339.007L275.238 332.136L248.748 337.48L236.228 356.183Z" fill="#2D60B3" fill-opacity="0.55"/>
<path d="M290.92 343.205L273.576 349.933L260.598 354.967L255.659 388.246L254.129 398.551L290.92 343.205Z" fill="#2D60B3" fill-opacity="0.55"/>
<path d="M169.459 455.927L205.074 437.348L207.924 433.306L195.347 417.254L169.459 455.927Z" fill="#2D60B3" fill-opacity="0.55"/>
<path d="M240.689 418.769L230.062 424.313L244.623 446.645L268.501 433.306L280.837 426.415L272.812 418.769H240.689Z" fill="#2D60B3" fill-opacity="0.55"/>
<path d="M297.241 455.927L304.872 449.317L280.837 426.415L268.501 433.306L278.92 455.927H297.241Z" fill="#2D60B3" fill-opacity="0.55"/>
<path d="M393.429 418.769H318.616C322.186 420.918 326.618 423.587 331.312 426.415C346.357 435.48 364.096 446.18 364.782 446.645L379.105 432.707L393.429 418.769Z" fill="#2D60B3" fill-opacity="0.55"/>
<path d="M393.429 486.723V444.737L383.51 449.317L389.72 472.739L393.429 486.723Z" fill="#2D60B3" fill-opacity="0.55"/>
<path d="M355.244 472.739C355.244 489.385 350.016 493.888 335.3 493.843L359.458 509.285L370.908 516.604L368.704 503.9L362.129 466.012L355.244 464.333V472.739Z" fill="#2D60B3" fill-opacity="0.55"/>
<path d="M370.908 516.604L393.429 531V498.174L368.704 503.9L370.908 516.604Z" fill="#2D60B3" fill-opacity="0.55"/>
<path d="M337.319 531L344.19 524.261L317.034 498.174L317.457 506.953L318.616 531H337.319Z" fill="#2D60B3" fill-opacity="0.55"/>
<path d="M272.812 531L306.783 512.702L272.812 498.7L254.129 520.108L244.623 531H272.812Z" fill="#2D60B3" fill-opacity="0.55"/>
<path d="M225.864 496.627L215.206 493.825L198.659 493.827C190.169 496.624 172.808 502.088 171.281 501.564L189.984 507.984L219.23 518.022L225.864 496.627Z" fill="#2D60B3" fill-opacity="0.55"/>
<path d="M116.317 531H173.19C174.281 529.597 175.602 527.887 177.018 526.038L151.576 506.571L132.038 520.108L121.661 527.298L116.317 531Z" fill="#2D60B3" fill-opacity="0.55"/>
<path d="M132.038 520.108L133.071 502.373L114.027 493.839C103.224 493.841 96.761 493.843 96.761 493.843L90.7433 497.048C92.885 499.108 95.4806 501.609 98.2473 504.281C108.63 514.309 121.42 526.743 121.661 527.298L132.038 520.108Z" fill="#2D60B3" fill-opacity="0.55"/>
<path d="M51.3649 518.022L27 531H64.4062L59.9642 513.442L51.3649 518.022Z" fill="#2D60B3" fill-opacity="0.55"/>
<path d="M52.3509 493.843C52.2363 496.609 52.0773 500.46 51.9202 504.281L62.4978 493.843L66.9382 476.417L67.8852 471.074L52.3509 493.843Z" fill="#2D60B3" fill-opacity="0.55"/>
<path d="M72.8036 496.762L101.747 486.342L105.553 480.616L100.286 480.043L86.2457 478.517L66.9382 476.417L62.4978 493.843L72.8036 496.762Z" fill="#2D60B3" fill-opacity="0.55"/>
<path d="M105.553 480.616L116.464 464.203L115.455 452.752L115.018 447.79L97.6138 454.623L100.286 480.043L105.553 480.616Z" fill="#2D60B3" fill-opacity="0.55"/>
<path d="M113.263 427.872L88.7968 445.5L87.7941 458.478L97.6138 454.623L115.018 447.79L113.263 427.872Z" fill="#2D60B3" fill-opacity="0.55"/>
<path d="M132.703 439.775L120.054 422.98L113.263 427.872L115.018 447.79L115.455 452.752L130.44 443.179L132.703 439.775Z" fill="#2D60B3" fill-opacity="0.55"/>
<path d="M146.731 397.025L126.623 399.731L131.392 412.674L149.503 404.658L146.731 397.025Z" fill="#2D60B3" fill-opacity="0.55"/>
<path d="M151.815 361.049L142.272 362.043L132.208 376.795L138.837 375.283L162.557 369.876L151.815 361.049Z" fill="#2D60B3" fill-opacity="0.55"/>
<path d="M186.549 358.773L186.667 351.984C186.673 351.64 179.885 349.906 172.045 348.025L173.687 358.773L176.091 374.504L186.549 358.773Z" fill="#2D60B3" fill-opacity="0.55"/>
<path d="M187.312 314.829L170.489 320.685L154.603 343.969C155.867 344.255 157.281 344.576 158.791 344.922L187.151 324.121L187.312 314.829Z" fill="#2D60B3" fill-opacity="0.55"/>
<path d="M217.438 293.203L214.056 281.371L199.145 285.046L196.296 307.326L218.747 297.783L217.438 293.203Z" fill="#2D60B3" fill-opacity="0.55"/>
<path d="M222.445 269.92C220.546 279.654 217.957 292.453 217.438 293.203L218.747 297.783L221.256 306.562L234.704 286.333L222.445 269.92Z" fill="#2D60B3" fill-opacity="0.55"/>
<path d="M214.056 281.371L209.113 264.073L193.926 286.333L199.145 285.046L214.056 281.371Z" fill="#2D60B3" fill-opacity="0.55"/>
<path d="M27 256.179V301.231H44.9397L43.7618 288.241L40.3594 250.723L27 256.179Z" fill="#3066BE" fill-opacity="0.65"/>
<path d="M107.92 229.949L113.267 212.578L96.4688 207.056C95.858 208.184 86.0357 222.788 81.2009 229.949H107.92Z" fill="#3066BE" fill-opacity="0.65"/>
<path d="M44.9397 301.231H91.5067L85.7341 292.058L73.9636 273.355L43.7618 288.241L44.9397 301.231Z" fill="#3066BE" fill-opacity="0.65"/>
<path d="M58.4315 220.299L68.1222 229.949H81.2009C86.0357 222.788 95.858 208.184 96.4688 207.056L63.6084 196.252L58.4315 220.299Z" fill="#3066BE" fill-opacity="0.65"/>
<path d="M267.528 196.634L266.324 189H212.123C210.728 194.198 208.65 201.87 206.825 208.467C204.821 215.706 203.122 221.65 202.962 221.606C208.761 223.214 214.459 224.792 219.757 226.257L267.528 196.634Z" fill="#3066BE" fill-opacity="0.65"/>
<path fill-rule="evenodd" clip-rule="evenodd" d="M375.871 189H335.792C332.739 195.489 326.555 209.137 326.25 211.819L338.846 219.745L346.862 215.23L362.129 206.63C361.213 207.146 370.908 195.092 375.871 189ZM289.989 189L304.875 198.368L272.046 225.261L267.528 196.634L266.324 189H289.989ZM202.962 221.606C191.82 218.516 180.302 215.314 170.518 212.578C156.723 208.721 146.373 205.792 145.381 205.413L155.632 189H178.915L206.825 208.467C204.821 215.706 203.122 221.65 202.962 221.606Z" fill="#3066BE" fill-opacity="0.65"/>
<path d="M362.129 206.63L393.429 189H375.871C370.908 195.092 361.213 207.146 362.129 206.63Z" fill="#3066BE" fill-opacity="0.65"/>
<path d="M293.042 303.601L286.025 320.304L307.667 318.013L316.326 304.987L312.891 304.783L293.042 303.601Z" fill="#3066BE" fill-opacity="0.65"/>
<path d="M236.8 364.199L236.228 356.183L213.65 389.913L215.206 422.98L238.622 389.772L237.453 373.359L236.8 364.199Z" fill="#3066BE" fill-opacity="0.65"/>
<path fill-rule="evenodd" clip-rule="evenodd" d="M240.689 418.769L254.129 398.551L255.659 388.246L260.598 354.967L236.8 364.199L237.453 373.359L238.622 389.772L240.689 418.769ZM273.576 349.933L290.92 343.205L307.667 318.013L286.025 320.304L278.167 339.007L273.576 349.933ZM295.106 276.027C296.013 275.778 299.007 273.277 302.716 269.928C308.103 265.065 314.998 258.414 319.206 254.27L320.73 269.928C322.662 270.227 334.985 268.775 340.906 268.011L350.04 254.27L349.077 242.438L318.234 244.285L310.837 244.728L297.887 264.073C297.117 267.376 296.136 271.59 295.106 276.027Z" fill="#3066BE" fill-opacity="0.65"/>
<path fill-rule="evenodd" clip-rule="evenodd" d="M355.244 455.927L364.782 446.645L379.105 432.707L383.51 449.317L389.72 472.739L393.429 486.723V498.174L368.704 503.9L362.129 466.012L355.244 464.333V455.927ZM250.674 455.927H278.92L268.501 433.306L244.623 446.645L250.674 455.927Z" fill="#3066BE" fill-opacity="0.65"/>
<path d="M317.034 498.174L312.509 493.827C299.108 493.823 281.017 493.822 260.98 493.822L272.812 498.7L306.783 512.702L317.457 506.953L317.034 498.174Z" fill="#3066BE" fill-opacity="0.65"/>
<path fill-rule="evenodd" clip-rule="evenodd" d="M77.3839 531H64.4062L59.9642 513.442L78.9107 503.35L80.8192 526.601L77.3839 531ZM177.018 526.038L151.576 506.571L162.938 498.7L171.281 501.564L189.984 507.984L219.23 518.022L215.206 531H203.344H173.19C174.281 529.597 175.602 527.887 177.018 526.038Z" fill="#3066BE" fill-opacity="0.65"/>
<path d="M51.9202 504.281C51.6558 510.714 51.3968 517.065 51.3649 518.022L59.9642 513.442L78.9107 503.35L86.4789 499.319L72.8036 496.762L62.4978 493.843L51.9202 504.281Z" fill="#3066BE" fill-opacity="0.65"/>
<path d="M138.837 375.283L132.208 376.795L115.541 401.223L126.623 399.731L146.731 397.025L138.837 375.283Z" fill="#3066BE" fill-opacity="0.65"/>
<path fill-rule="evenodd" clip-rule="evenodd" d="M196.296 307.326L218.747 297.783L221.256 306.562L211.868 320.685L207.542 318.335L195.71 311.906L196.296 307.326ZM186.959 335.19L187.151 324.121L158.791 344.922C162.855 345.854 167.617 346.963 172.045 348.025C179.885 349.906 186.673 351.64 186.667 351.984L186.959 335.19ZM162.557 369.876L138.837 375.283L146.731 397.025L149.503 404.658L151.815 411.024L173.3 378.703L162.557 369.876ZM131.392 412.674L133.362 418.018H116.317H104.083L115.541 401.223L126.623 399.731L131.392 412.674ZM86.2457 478.517L87.7941 458.478L97.6138 454.623L100.286 480.043L86.2457 478.517ZM72.8036 496.762L101.747 486.342L96.761 493.843L90.7433 497.048L86.4789 499.319L72.8036 496.762Z" fill="#3066BE" fill-opacity="0.65"/>
<path d="M195.71 311.906L187.312 314.829L187.151 324.121L186.959 335.19L207.542 318.335L195.71 311.906Z" fill="#3066BE" fill-opacity="0.65"/>
<path d="M223.574 264.073H209.113L214.056 281.371L217.438 293.203C217.957 292.453 220.546 279.654 222.445 269.92C222.865 267.766 223.251 265.763 223.574 264.073Z" fill="#3066BE" fill-opacity="0.65"/>
<path d="M68.1222 264.073L73.9636 273.355L85.7341 292.058L109.446 290.819L133.875 264.073H68.1222Z" fill="#336ECC" fill-opacity="0.6"/>
<path d="M158.791 288.241C164.575 282.013 167.139 274.243 167.538 264.073H133.875L109.446 290.819L158.791 288.241Z" fill="#336ECC" fill-opacity="0.6"/>
<path d="M68.1222 239.384V229.949L58.4315 220.299L55.6272 217.507L27 237.475V256.179L40.3594 250.723L68.1222 239.384Z" fill="#336ECC" fill-opacity="0.6"/>
<path d="M27 189L55.6272 217.507L58.4315 220.299L63.6084 196.252L65.1696 189H27Z" fill="#336ECC" fill-opacity="0.6"/>
<path fill-rule="evenodd" clip-rule="evenodd" d="M289.989 189L304.875 198.368L272.046 225.261L266.324 229.949H233.116H175.098L170.518 212.578C180.302 215.314 191.82 218.516 202.962 221.606C208.761 223.214 214.459 224.792 219.757 226.257L267.528 196.634L266.324 189H289.989ZM155.632 189L145.381 205.413L135.269 221.606L130.058 229.949H107.92L113.267 212.578L116.06 203.504L100.667 189H155.632Z" fill="#336ECC" fill-opacity="0.6"/>
<path fill-rule="evenodd" clip-rule="evenodd" d="M240.689 418.769L230.062 424.313L205.074 437.348L207.924 433.306L195.347 417.254L213.65 389.913L215.206 422.98L238.622 389.772L240.689 418.769ZM278.167 339.007L286.025 320.304L293.042 303.601L312.891 304.783L302.716 269.928C299.007 273.277 296.013 275.778 295.106 276.027C292.273 288.223 289.068 302.1 288.844 303.351L272.255 302.364L266.324 311.225L248.748 337.48L275.238 332.136L278.167 339.007ZM320.73 269.928L323.144 294.73L340.906 268.011C334.985 268.775 322.662 270.227 320.73 269.928ZM350.04 254.27L370.339 223.734L393.429 189L362.129 206.63L346.862 215.23L347.554 223.734L349.077 242.438L350.04 254.27Z" fill="#336ECC" fill-opacity="0.6"/>
<path fill-rule="evenodd" clip-rule="evenodd" d="M272.812 418.769H318.616C322.186 420.918 326.618 423.587 331.312 426.415C346.357 435.48 364.096 446.18 364.782 446.645L355.244 455.927H297.241L304.872 449.317L280.837 426.415L272.812 418.769ZM383.51 449.317L379.105 432.707L393.429 418.769V444.737L383.51 449.317ZM230.062 424.313L244.623 446.645L250.674 455.927H169.459L205.074 437.348L230.062 424.313Z" fill="#336ECC" fill-opacity="0.6"/>
<path fill-rule="evenodd" clip-rule="evenodd" d="M116.317 531H77.3839L80.8192 526.601L78.9107 503.35L86.4789 499.319L90.7433 497.048C92.885 499.108 95.4806 501.609 98.2473 504.281C108.63 514.309 121.42 526.743 121.661 527.298L116.317 531ZM133.071 502.373L114.027 493.839C123.011 493.838 134.997 493.836 148.761 493.833C163.801 493.831 180.965 493.829 198.659 493.827C190.169 496.624 172.808 502.088 171.281 501.564L162.938 498.7L151.576 506.571L132.038 520.108L133.071 502.373ZM215.206 531L219.23 518.022L225.864 496.627L215.206 493.825C225.09 493.824 234.986 493.823 244.623 493.823C250.178 493.823 255.648 493.822 260.98 493.822L272.812 498.7L254.129 520.108L244.623 531H215.206ZM317.034 498.174L312.509 493.827C324.581 493.83 332.847 493.835 335.3 493.843L359.458 509.285L370.908 516.604L393.429 531H337.319L344.19 524.261L317.034 498.174ZM306.783 512.702L317.457 506.953L318.616 531H272.812L306.783 512.702Z" fill="#336ECC" fill-opacity="0.6"/>
<path fill-rule="evenodd" clip-rule="evenodd" d="M223.574 264.073C223.251 265.763 222.865 267.766 222.445 269.92L234.704 286.333L249.501 264.073H223.574ZM196.296 307.326L199.145 285.046L193.926 286.333L170.489 320.685L187.312 314.829L195.71 311.906L196.296 307.326ZM186.549 358.773L211.868 320.685L207.542 318.335L186.959 335.19L186.667 351.984L186.549 358.773ZM154.603 343.969C155.867 344.255 157.281 344.576 158.791 344.922C162.855 345.854 167.617 346.963 172.045 348.025L173.687 358.773L176.091 374.504L173.3 378.703L162.557 369.876L151.815 361.049L142.272 362.043L154.603 343.969ZM151.815 411.024L149.503 404.658L131.392 412.674L133.362 418.018H116.317H104.083L89.2392 439.775L67.8852 471.074L66.9382 476.417L86.2457 478.517L87.7941 458.478L88.7968 445.5L113.263 427.872L120.054 422.98L132.703 439.775L138.285 431.377L151.815 411.024ZM116.464 464.203L130.44 443.179L115.455 452.752L116.464 464.203ZM52.3509 493.843C52.2363 496.609 52.0773 500.46 51.9202 504.281C51.6558 510.714 51.3968 517.065 51.3649 518.022L27 531L52.3509 493.843Z" fill="#336ECC" fill-opacity="0.6"/>
<g filter="url(#filter0_d_17_1975)">
<rect width="420" height="120" fill="#293A60"/>
</g>
<g filter="url(#filter1_d_17_1975)">
<rect y="600" width="420" height="120" fill="#293A60"/>
</g>
<rect width="420" height="720" fill="#293A60"/>
<rect x="8" y="8" width="404" height="704" rx="42" fill="#404148"/>
<path d="M91.5067 301.231H136.634C146.736 297.654 153.91 293.496 158.791 288.241L109.446 290.819L85.7341 292.058L91.5067 301.231Z" fill="#2D60B3" fill-opacity="0.55"/>
<path d="M68.1222 264.073V239.384L40.3594 250.723L43.7618 288.241L73.9636 273.355L68.1222 264.073Z" fill="#2D60B3" fill-opacity="0.55"/>
<path d="M55.6272 217.507L27 189V237.475L55.6272 217.507Z" fill="#2D60B3" fill-opacity="0.55"/>
<path d="M116.06 203.504L100.667 189H65.1696L63.6084 196.252L96.4688 207.056L113.267 212.578L116.06 203.504Z" fill="#2D60B3" fill-opacity="0.55"/>
<path d="M170.518 212.578C156.723 208.721 146.373 205.792 145.381 205.413L135.269 221.606L130.058 229.949H175.098L170.518 212.578Z" fill="#2D60B3" fill-opacity="0.55"/>
<path d="M206.825 208.467C208.65 201.87 210.728 194.198 212.123 189H178.915L206.825 208.467Z" fill="#2D60B3" fill-opacity="0.55"/>
<path d="M289.989 189L304.875 198.368L326.25 211.819C326.555 209.137 332.739 195.489 335.792 189H289.989Z" fill="#2D60B3" fill-opacity="0.55"/>
<path d="M320.73 229.949L338.846 219.745L326.25 211.819L304.875 198.368L272.046 225.261L266.324 229.949H320.73Z" fill="#2D60B3" fill-opacity="0.55"/>
<path d="M338.846 219.745L320.73 229.949L310.837 244.728L318.234 244.285L349.077 242.438L347.554 223.734L346.862 215.23L338.846 219.745Z" fill="#2D60B3" fill-opacity="0.55"/>
<path d="M316.326 304.987L323.144 294.73L320.73 269.928L319.206 254.27C314.998 258.414 308.103 265.065 302.716 269.928L312.891 304.783L316.326 304.987Z" fill="#2D60B3" fill-opacity="0.55"/>
<path d="M272.255 302.364L288.844 303.351C289.068 302.1 292.273 288.223 295.106 276.027C296.136 271.59 297.117 267.376 297.887 264.073L272.255 302.364Z" fill="#2D60B3" fill-opacity="0.55"/>
<path d="M236.228 356.183L236.8 364.199L260.598 354.967L273.576 349.933L278.167 339.007L275.238 332.136L248.748 337.48L236.228 356.183Z" fill="#2D60B3" fill-opacity="0.55"/>
<path d="M290.92 343.205L273.576 349.933L260.598 354.967L255.659 388.246L254.129 398.551L290.92 343.205Z" fill="#2D60B3" fill-opacity="0.55"/>
<path d="M169.459 455.927L205.074 437.348L207.924 433.306L195.347 417.254L169.459 455.927Z" fill="#2D60B3" fill-opacity="0.55"/>
<path d="M240.689 418.769L230.063 424.313L244.623 446.645L268.501 433.306L280.837 426.415L272.813 418.769H240.689Z" fill="#2D60B3" fill-opacity="0.55"/>
<path d="M297.241 455.927L304.872 449.317L280.837 426.415L268.501 433.306L278.92 455.927H297.241Z" fill="#2D60B3" fill-opacity="0.55"/>
<path d="M393.429 418.769H318.616C322.186 420.918 326.618 423.587 331.312 426.415C346.357 435.48 364.096 446.18 364.782 446.645L379.105 432.707L393.429 418.769Z" fill="#2D60B3" fill-opacity="0.55"/>
<path d="M393.429 486.723V444.737L383.51 449.317L389.72 472.739L393.429 486.723Z" fill="#2D60B3" fill-opacity="0.55"/>
<path d="M355.244 472.739C355.244 489.385 350.016 493.888 335.3 493.843L359.458 509.285L370.908 516.604L368.704 503.9L362.129 466.012L355.244 464.333V472.739Z" fill="#2D60B3" fill-opacity="0.55"/>
<path d="M370.908 516.604L393.429 531V498.174L368.704 503.9L370.908 516.604Z" fill="#2D60B3" fill-opacity="0.55"/>
<path d="M337.319 531L344.19 524.261L317.034 498.174L317.457 506.953L318.616 531H337.319Z" fill="#2D60B3" fill-opacity="0.55"/>
<path d="M272.813 531L306.783 512.702L272.813 498.7L254.129 520.108L244.623 531H272.813Z" fill="#2D60B3" fill-opacity="0.55"/>
<path d="M225.864 496.627L215.206 493.825L198.659 493.827C190.169 496.624 172.808 502.088 171.281 501.564L189.984 507.984L219.23 518.022L225.864 496.627Z" fill="#2D60B3" fill-opacity="0.55"/>
<path d="M116.317 531H173.19C174.281 529.597 175.602 527.887 177.018 526.038L151.576 506.571L132.038 520.108L121.661 527.298L116.317 531Z" fill="#2D60B3" fill-opacity="0.55"/>
<path d="M132.038 520.108L133.071 502.373L114.027 493.839C103.224 493.841 96.761 493.843 96.761 493.843L90.7433 497.048C92.885 499.108 95.4806 501.609 98.2473 504.281C108.63 514.309 121.42 526.743 121.661 527.298L132.038 520.108Z" fill="#2D60B3" fill-opacity="0.55"/>
<path d="M51.3649 518.022L27 531H64.4063L59.9642 513.442L51.3649 518.022Z" fill="#2D60B3" fill-opacity="0.55"/>
<path d="M52.3509 493.843C52.2363 496.609 52.0773 500.46 51.9202 504.281L62.4978 493.843L66.9382 476.417L67.8852 471.074L52.3509 493.843Z" fill="#2D60B3" fill-opacity="0.55"/>
<path d="M72.8036 496.762L101.747 486.342L105.553 480.616L100.286 480.043L86.2457 478.517L66.9382 476.417L62.4978 493.843L72.8036 496.762Z" fill="#2D60B3" fill-opacity="0.55"/>
<path d="M105.553 480.616L116.464 464.203L115.455 452.752L115.018 447.79L97.6138 454.623L100.286 480.043L105.553 480.616Z" fill="#2D60B3" fill-opacity="0.55"/>
<path d="M113.263 427.872L88.7968 445.5L87.7941 458.478L97.6138 454.623L115.018 447.79L113.263 427.872Z" fill="#2D60B3" fill-opacity="0.55"/>
<path d="M132.703 439.775L120.054 422.98L113.263 427.872L115.018 447.79L115.455 452.752L130.44 443.179L132.703 439.775Z" fill="#2D60B3" fill-opacity="0.55"/>
<path d="M146.731 397.025L126.623 399.731L131.392 412.674L149.503 404.658L146.731 397.025Z" fill="#2D60B3" fill-opacity="0.55"/>
<path d="M151.815 361.049L142.272 362.043L132.208 376.795L138.837 375.283L162.557 369.876L151.815 361.049Z" fill="#2D60B3" fill-opacity="0.55"/>
<path d="M186.549 358.773L186.667 351.984C186.673 351.64 179.885 349.906 172.045 348.025L173.687 358.773L176.091 374.504L186.549 358.773Z" fill="#2D60B3" fill-opacity="0.55"/>
<path d="M187.313 314.829L170.489 320.685L154.603 343.969C155.867 344.255 157.281 344.576 158.791 344.922L187.151 324.121L187.313 314.829Z" fill="#2D60B3" fill-opacity="0.55"/>
<path d="M217.438 293.203L214.056 281.371L199.145 285.046L196.296 307.326L218.747 297.783L217.438 293.203Z" fill="#2D60B3" fill-opacity="0.55"/>
<path d="M222.445 269.92C220.546 279.654 217.957 292.453 217.438 293.203L218.747 297.783L221.256 306.563L234.704 286.333L222.445 269.92Z" fill="#2D60B3" fill-opacity="0.55"/>
<path d="M214.056 281.371L209.113 264.073L193.926 286.333L199.145 285.046L214.056 281.371Z" fill="#2D60B3" fill-opacity="0.55"/>
<path d="M27 256.179V301.231H44.9397L43.7618 288.241L40.3594 250.723L27 256.179Z" fill="#3066BE" fill-opacity="0.65"/>
<path d="M107.92 229.949L113.267 212.578L96.4688 207.056C95.858 208.184 86.0357 222.788 81.2009 229.949H107.92Z" fill="#3066BE" fill-opacity="0.65"/>
<path d="M44.9397 301.231H91.5067L85.7341 292.058L73.9636 273.355L43.7618 288.241L44.9397 301.231Z" fill="#3066BE" fill-opacity="0.65"/>
<path d="M58.4315 220.299L68.1222 229.949H81.2009C86.0357 222.788 95.858 208.184 96.4688 207.056L63.6084 196.252L58.4315 220.299Z" fill="#3066BE" fill-opacity="0.65"/>
<path d="M267.528 196.634L266.324 189H212.123C210.728 194.198 208.65 201.87 206.825 208.467C204.821 215.706 203.122 221.65 202.962 221.606C208.761 223.214 214.459 224.792 219.757 226.257L267.528 196.634Z" fill="#3066BE" fill-opacity="0.65"/>
<path fill-rule="evenodd" clip-rule="evenodd" d="M375.871 189H335.792C332.739 195.489 326.555 209.137 326.25 211.819L338.846 219.745L346.862 215.23L362.129 206.63C361.213 207.146 370.908 195.092 375.871 189ZM289.989 189L304.875 198.368L272.046 225.261L267.528 196.634L266.324 189H289.989ZM202.962 221.606C191.82 218.516 180.302 215.314 170.518 212.578C156.723 208.721 146.373 205.792 145.381 205.413L155.632 189H178.915L206.825 208.467C204.821 215.706 203.122 221.65 202.962 221.606Z" fill="#3066BE" fill-opacity="0.65"/>
<path d="M362.129 206.63L393.429 189H375.871C370.908 195.092 361.213 207.146 362.129 206.63Z" fill="#3066BE" fill-opacity="0.65"/>
<path d="M293.042 303.601L286.025 320.304L307.667 318.013L316.326 304.987L312.891 304.783L293.042 303.601Z" fill="#3066BE" fill-opacity="0.65"/>
<path d="M236.8 364.199L236.228 356.183L213.65 389.913L215.206 422.98L238.622 389.772L237.453 373.359L236.8 364.199Z" fill="#3066BE" fill-opacity="0.65"/>
<path fill-rule="evenodd" clip-rule="evenodd" d="M240.689 418.769L254.129 398.551L255.659 388.246L260.598 354.967L236.8 364.199L237.453 373.359L238.622 389.772L240.689 418.769ZM273.576 349.933L290.92 343.205L307.667 318.013L286.025 320.304L278.167 339.007L273.576 349.933ZM295.106 276.027C296.013 275.778 299.007 273.277 302.716 269.928C308.103 265.065 314.998 258.414 319.206 254.27L320.73 269.928C322.662 270.227 334.985 268.775 340.906 268.011L350.04 254.27L349.077 242.438L318.234 244.285L310.837 244.728L297.887 264.073C297.117 267.376 296.136 271.59 295.106 276.027Z" fill="#3066BE" fill-opacity="0.65"/>
<path fill-rule="evenodd" clip-rule="evenodd" d="M355.244 455.927L364.782 446.645L379.105 432.707L383.51 449.317L389.72 472.739L393.429 486.723V498.174L368.704 503.9L362.129 466.012L355.244 464.333V455.927ZM250.674 455.927H278.92L268.501 433.306L244.623 446.645L250.674 455.927Z" fill="#3066BE" fill-opacity="0.65"/>
<path d="M317.034 498.174L312.509 493.827C299.108 493.823 281.017 493.822 260.98 493.822L272.813 498.7L306.783 512.702L317.457 506.953L317.034 498.174Z" fill="#3066BE" fill-opacity="0.65"/>
<path fill-rule="evenodd" clip-rule="evenodd" d="M77.3839 531H64.4063L59.9642 513.442L78.9107 503.35L80.8192 526.601L77.3839 531ZM177.018 526.038L151.576 506.571L162.938 498.7L171.281 501.564L189.984 507.984L219.23 518.022L215.206 531H203.344H173.19C174.281 529.597 175.602 527.887 177.018 526.038Z" fill="#3066BE" fill-opacity="0.65"/>
<path d="M51.9202 504.281C51.6558 510.714 51.3968 517.065 51.3649 518.022L59.9642 513.442L78.9107 503.35L86.4789 499.319L72.8036 496.762L62.4978 493.843L51.9202 504.281Z" fill="#3066BE" fill-opacity="0.65"/>
<path d="M138.837 375.283L132.208 376.795L115.541 401.223L126.623 399.731L146.731 397.025L138.837 375.283Z" fill="#3066BE" fill-opacity="0.65"/>
<path fill-rule="evenodd" clip-rule="evenodd" d="M196.296 307.326L218.747 297.783L221.256 306.563L211.868 320.685L207.542 318.335L195.71 311.906L196.296 307.326ZM186.959 335.19L187.151 324.121L158.791 344.922C162.855 345.854 167.617 346.963 172.045 348.025C179.885 349.906 186.673 351.64 186.667 351.984L186.959 335.19ZM162.557 369.876L138.837 375.283L146.731 397.025L149.503 404.658L151.815 411.024L173.3 378.703L162.557 369.876ZM131.392 412.674L133.362 418.018H116.317H104.083L115.541 401.223L126.623 399.731L131.392 412.674ZM86.2457 478.517L87.7941 458.478L97.6138 454.623L100.286 480.043L86.2457 478.517ZM72.8036 496.762L101.747 486.342L96.761 493.843L90.7433 497.048L86.4789 499.319L72.8036 496.762Z" fill="#3066BE" fill-opacity="0.65"/>
<path d="M195.71 311.906L187.313 314.829L187.151 324.121L186.959 335.19L207.542 318.335L195.71 311.906Z" fill="#3066BE" fill-opacity="0.65"/>
<path d="M223.574 264.073H209.113L214.056 281.371L217.438 293.203C217.957 292.453 220.546 279.654 222.445 269.92C222.865 267.766 223.251 265.763 223.574 264.073Z" fill="#3066BE" fill-opacity="0.65"/>
<path d="M68.1222 264.073L73.9636 273.355L85.7341 292.058L109.446 290.819L133.875 264.073H68.1222Z" fill="#336ECC" fill-opacity="0.6"/>
<path d="M158.791 288.241C164.575 282.013 167.139 274.243 167.538 264.073H133.875L109.446 290.819L158.791 288.241Z" fill="#336ECC" fill-opacity="0.6"/>
<path d="M68.1222 239.384V229.949L58.4315 220.299L55.6272 217.507L27 237.475V256.179L40.3594 250.723L68.1222 239.384Z" fill="#336ECC" fill-opacity="0.6"/>
<path d="M27 189L55.6272 217.507L58.4315 220.299L63.6084 196.252L65.1696 189H27Z" fill="#336ECC" fill-opacity="0.6"/>
<path fill-rule="evenodd" clip-rule="evenodd" d="M289.989 189L304.875 198.368L272.046 225.261L266.324 229.949H233.116H175.098L170.518 212.578C180.302 215.314 191.82 218.516 202.962 221.606C208.761 223.214 214.459 224.792 219.757 226.257L267.528 196.634L266.324 189H289.989ZM155.632 189L145.381 205.413L135.269 221.606L130.058 229.949H107.92L113.267 212.578L116.06 203.504L100.667 189H155.632Z" fill="#336ECC" fill-opacity="0.6"/>
<path fill-rule="evenodd" clip-rule="evenodd" d="M240.689 418.769L230.063 424.313L205.074 437.348L207.924 433.306L195.347 417.254L213.65 389.913L215.206 422.98L238.622 389.772L240.689 418.769ZM278.167 339.007L286.025 320.304L293.042 303.601L312.891 304.783L302.716 269.928C299.007 273.277 296.013 275.778 295.106 276.027C292.273 288.223 289.068 302.1 288.844 303.351L272.255 302.364L266.324 311.225L248.748 337.48L275.238 332.136L278.167 339.007ZM320.73 269.928L323.144 294.73L340.906 268.011C334.985 268.775 322.662 270.227 320.73 269.928ZM350.04 254.27L370.339 223.734L393.429 189L362.129 206.63L346.862 215.23L347.554 223.734L349.077 242.438L350.04 254.27Z" fill="#336ECC" fill-opacity="0.6"/>
<path fill-rule="evenodd" clip-rule="evenodd" d="M272.813 418.769H318.616C322.186 420.918 326.618 423.587 331.312 426.415C346.357 435.48 364.096 446.18 364.782 446.645L355.244 455.927H297.241L304.872 449.317L280.837 426.415L272.813 418.769ZM383.51 449.317L379.105 432.707L393.429 418.769V444.737L383.51 449.317ZM230.063 424.313L244.623 446.645L250.674 455.927H169.459L205.074 437.348L230.063 424.313Z" fill="#336ECC" fill-opacity="0.6"/>
<path fill-rule="evenodd" clip-rule="evenodd" d="M116.317 531H77.3839L80.8192 526.601L78.9107 503.35L86.4789 499.319L90.7433 497.048C92.885 499.108 95.4806 501.609 98.2473 504.281C108.63 514.309 121.42 526.743 121.661 527.298L116.317 531ZM133.071 502.373L114.027 493.839C123.011 493.838 134.997 493.836 148.761 493.833C163.801 493.831 180.965 493.829 198.659 493.827C190.169 496.624 172.808 502.088 171.281 501.564L162.938 498.7L151.576 506.571L132.038 520.108L133.071 502.373ZM215.206 531L219.23 518.022L225.864 496.627L215.206 493.825C225.09 493.824 234.986 493.823 244.623 493.823C250.178 493.823 255.648 493.822 260.98 493.822L272.813 498.7L254.129 520.108L244.623 531H215.206ZM317.034 498.174L312.509 493.827C324.581 493.83 332.847 493.835 335.3 493.843L359.458 509.285L370.908 516.604L393.429 531H337.319L344.19 524.261L317.034 498.174ZM306.783 512.702L317.457 506.953L318.616 531H272.813L306.783 512.702Z" fill="#336ECC" fill-opacity="0.6"/>
<path fill-rule="evenodd" clip-rule="evenodd" d="M223.574 264.073C223.251 265.763 222.865 267.766 222.445 269.92L234.704 286.333L249.501 264.073H223.574ZM196.296 307.326L199.145 285.046L193.926 286.333L170.489 320.685L187.313 314.829L195.71 311.906L196.296 307.326ZM186.549 358.773L211.868 320.685L207.542 318.335L186.959 335.19L186.667 351.984L186.549 358.773ZM154.603 343.969C155.867 344.255 157.281 344.576 158.791 344.922C162.855 345.854 167.617 346.963 172.045 348.025L173.687 358.773L176.091 374.504L173.3 378.703L162.557 369.876L151.815 361.049L142.272 362.043L154.603 343.969ZM151.815 411.024L149.503 404.658L131.392 412.674L133.362 418.018H116.317H104.083L89.2392 439.775L67.8852 471.074L66.9382 476.417L86.2457 478.517L87.7941 458.478L88.7968 445.5L113.263 427.872L120.054 422.98L132.703 439.775L138.285 431.377L151.815 411.024ZM116.464 464.203L130.44 443.179L115.455 452.752L116.464 464.203ZM52.3509 493.843C52.2363 496.609 52.0773 500.46 51.9202 504.281C51.6558 510.714 51.3968 517.065 51.3649 518.022L27 531L52.3509 493.843Z" fill="#336ECC" fill-opacity="0.6"/>
<g filter="url(#filter2_d_17_1975)">
<rect width="420" height="120" fill="#293A60"/>
</g>
<g filter="url(#filter3_d_17_1975)">
<rect y="600" width="420" height="120" fill="#293A60"/>
</g>
</g>
<path d="M46.688 97L46.32 96.08L66.192 55.324L68.032 61.672C66.9893 64.3707 65.4253 66.7627 63.34 68.848C61.316 70.872 59.016 72.4667 56.44 73.632C53.9253 74.736 51.472 75.288 49.08 75.288C45.584 75.288 42.364 74.3373 39.42 72.436C36.476 70.5347 34.1147 68.02 32.336 64.892C30.5573 61.764 29.668 58.3907 29.668 54.772C29.668 50.2947 30.7107 46.308 32.796 42.812C34.8813 39.2547 37.672 36.4333 41.168 34.348C44.7253 32.2627 48.7427 31.22 53.22 31.22C56.4093 31.22 59.4147 31.8027 62.236 32.968C65.0573 34.072 67.5413 35.636 69.688 37.66C71.8347 39.684 73.4907 42.0453 74.656 44.744C75.8827 47.3813 76.496 50.2027 76.496 53.208C76.496 55.1707 76.312 57.164 75.944 59.188C75.6373 61.1507 75.0853 63.236 74.288 65.444C73.552 67.5907 72.632 69.952 71.528 72.528C70.424 75.0427 69.136 77.8947 67.664 81.084L59.66 97H46.688ZM52.3 63.88C54.3853 63.88 56.2253 63.4507 57.82 62.592C59.4147 61.672 60.672 60.4453 61.592 58.912C62.512 57.3173 62.972 55.5693 62.972 53.668C62.972 51.5827 62.512 49.7427 61.592 48.148C60.7333 46.492 59.5067 45.204 57.912 44.284C56.3173 43.3027 54.508 42.812 52.484 42.812C50.5213 42.812 48.7733 43.272 47.24 44.192C45.768 45.112 44.6027 46.3693 43.744 47.964C42.8853 49.5587 42.456 51.4293 42.456 53.576C42.456 55.3547 42.8853 57.0413 43.744 58.636C44.664 60.2307 45.86 61.5187 47.332 62.5C48.8653 63.42 50.5213 63.88 52.3 63.88Z" fill="#C2C2C2"/>
<path d="M373.312 623L373.68 623.92L353.808 664.676L351.968 658.328C353.011 655.629 354.575 653.237 356.66 651.152C358.684 649.128 360.984 647.533 363.56 646.368C366.075 645.264 368.528 644.712 370.92 644.712C374.416 644.712 377.636 645.663 380.58 647.564C383.524 649.465 385.885 651.98 387.664 655.108C389.443 658.236 390.332 661.609 390.332 665.228C390.332 669.705 389.289 673.692 387.204 677.188C385.119 680.745 382.328 683.567 378.832 685.652C375.275 687.737 371.257 688.78 366.78 688.78C363.591 688.78 360.585 688.197 357.764 687.032C354.943 685.928 352.459 684.364 350.312 682.34C348.165 680.316 346.509 677.955 345.344 675.256C344.117 672.619 343.504 669.797 343.504 666.792C343.504 664.829 343.688 662.836 344.056 660.812C344.363 658.849 344.915 656.764 345.712 654.556C346.448 652.409 347.368 650.048 348.472 647.472C349.576 644.957 350.864 642.105 352.336 638.916L360.34 623H373.312ZM367.7 656.12C365.615 656.12 363.775 656.549 362.18 657.408C360.585 658.328 359.328 659.555 358.408 661.088C357.488 662.683 357.028 664.431 357.028 666.332C357.028 668.417 357.488 670.257 358.408 671.852C359.267 673.508 360.493 674.796 362.088 675.716C363.683 676.697 365.492 677.188 367.516 677.188C369.479 677.188 371.227 676.728 372.76 675.808C374.232 674.888 375.397 673.631 376.256 672.036C377.115 670.441 377.544 668.571 377.544 666.424C377.544 664.645 377.115 662.959 376.256 661.364C375.336 659.769 374.14 658.481 372.668 657.5C371.135 656.58 369.479 656.12 367.7 656.12Z" fill="#C2C2C2"/>
<defs>
<filter id="filter0_d_17_1975" x="-51" y="-51" width="522" height="222" filterUnits="userSpaceOnUse" color-interpolation-filters="sRGB">
<feFlood flood-opacity="0" result="BackgroundImageFix"/>
<feColorMatrix in="SourceAlpha" type="matrix" values="0 0 0 0 0 0 0 0 0 0 0 0 0 0 0 0 0 0 127 0" result="hardAlpha"/>
<feMorphology radius="1" operator="dilate" in="SourceAlpha" result="effect1_dropShadow_17_1975"/>
<feOffset/>
<feGaussianBlur stdDeviation="25"/>
<feComposite in2="hardAlpha" operator="out"/>
<feColorMatrix type="matrix" values="0 0 0 0 0.211765 0 0 0 0 0.219608 0 0 0 0 0.278431 0 0 0 0.3 0"/>
<feBlend mode="normal" in2="BackgroundImageFix" result="effect1_dropShadow_17_1975"/>
<feBlend mode="normal" in="SourceGraphic" in2="effect1_dropShadow_17_1975" result="shape"/>
</filter>
<filter id="filter1_d_17_1975" x="-51" y="549" width="522" height="222" filterUnits="userSpaceOnUse" color-interpolation-filters="sRGB">
<feFlood flood-opacity="0" result="BackgroundImageFix"/>
<feColorMatrix in="SourceAlpha" type="matrix" values="0 0 0 0 0 0 0 0 0 0 0 0 0 0 0 0 0 0 127 0" result="hardAlpha"/>
<feMorphology radius="1" operator="dilate" in="SourceAlpha" result="effect1_dropShadow_17_1975"/>
<feOffset/>
<feGaussianBlur stdDeviation="25"/>
<feComposite in2="hardAlpha" operator="out"/>
<feColorMatrix type="matrix" values="0 0 0 0 0.211765 0 0 0 0 0.219608 0 0 0 0 0.278431 0 0 0 0.3 0"/>
<feBlend mode="normal" in2="BackgroundImageFix" result="effect1_dropShadow_17_1975"/>
<feBlend mode="normal" in="SourceGraphic" in2="effect1_dropShadow_17_1975" result="shape"/>
</filter>
<filter id="filter2_d_17_1975" x="-51" y="-51" width="522" height="222" filterUnits="userSpaceOnUse" color-interpolation-filters="sRGB">
<feFlood flood-opacity="0" result="BackgroundImageFix"/>
<feColorMatrix in="SourceAlpha" type="matrix" values="0 0 0 0 0 0 0 0 0 0 0 0 0 0 0 0 0 0 127 0" result="hardAlpha"/>
<feMorphology radius="1" operator="dilate" in="SourceAlpha" result="effect1_dropShadow_17_1975"/>
<feOffset/>
<feGaussianBlur stdDeviation="25"/>
<feComposite in2="hardAlpha" operator="out"/>
<feColorMatrix type="matrix" values="0 0 0 0 0.211765 0 0 0 0 0.219608 0 0 0 0 0.278431 0 0 0 0.3 0"/>
<feBlend mode="normal" in2="BackgroundImageFix" result="effect1_dropShadow_17_1975"/>
<feBlend mode="normal" in="SourceGraphic" in2="effect1_dropShadow_17_1975" result="shape"/>
</filter>
<filter id="filter3_d_17_1975" x="-51" y="549" width="522" height="222" filterUnits="userSpaceOnUse" color-interpolation-filters="sRGB">
<feFlood flood-opacity="0" result="BackgroundImageFix"/>
<feColorMatrix in="SourceAlpha" type="matrix" values="0 0 0 0 0 0 0 0 0 0 0 0 0 0 0 0 0 0 127 0" result="hardAlpha"/>
<feMorphology radius="1" operator="dilate" in="SourceAlpha" result="effect1_dropShadow_17_1975"/>
<feOffset/>
<feGaussianBlur stdDeviation="25"/>
<feComposite in2="hardAlpha" operator="out"/>
<feColorMatrix type="matrix" values="0 0 0 0 0.211765 0 0 0 0 0.219608 0 0 0 0 0.278431 0 0 0 0.3 0"/>
<feBlend mode="normal" in2="BackgroundImageFix" result="effect1_dropShadow_17_1975"/>
<feBlend mode="normal" in="SourceGraphic" in2="effect1_dropShadow_17_1975" result="shape"/>
</filter>
<clipPath id="clip0_17_1975">
<path d="M0 50C0 22.3857 22.3858 0 50 0H370C397.614 0 420 22.3858 420 50V670C420 697.614 397.614 720 370 720H50C22.3858 720 0 697.614 0 670V50Z" fill="white"/>
</clipPath>
</defs>
</svg>
