<svg width="420" height="720" viewBox="0 0 420 720" fill="none" xmlns="http://www.w3.org/2000/svg">
<rect x="8" y="8" width="404" height="704" rx="42" fill="#353550"/>
<path d="M0 50C0 22.3858 22.3858 0 50 0H370C397.614 0 420 22.3858 420 50V120H0V50Z" fill="#E91802"/>
<path d="M0 600H420V670C420 697.614 397.614 720 370 720H50C22.3858 720 0 697.614 0 670V600Z" fill="#E91802"/>
<rect x="4" y="4" width="412" height="712" rx="46" stroke="#DEDEDE" stroke-width="8"/>
<g opacity="0.6">
<path d="M154.757 317.219L162.054 305.666H57.4694L84.2235 263.711C93.9522 249.118 102.465 245.469 129.219 245.469H251.437H326.227L271.198 333.636L216.17 421.803H370.006L343.252 463.758C333.523 478.352 325.01 482 298.256 482H104.897L170.566 374.375L211.001 309.922L231.219 277.696" stroke="#D8DBF2" stroke-width="34"/>
<path d="M146.288 308.75L153.584 297.197H49L75.7541 255.241C85.4829 240.648 93.9955 237 120.75 237H242.967H317.757L262.729 325.167L207.7 413.334H361.537L334.783 455.289C325.054 469.882 316.541 473.531 289.787 473.531H96.4277L162.097 365.906L202.532 301.453L222.75 269.227" stroke="url(#paint0_linear_1047_44)" stroke-width="34"/>
</g>
<defs>
<linearGradient id="paint0_linear_1047_44" x1="321.56" y1="237" x2="283.174" y2="490.526" gradientUnits="userSpaceOnUse">
<stop stop-color="#E50402"/>
<stop offset="0.21631" stop-color="#FE8C01"/>
<stop offset="0.329771" stop-color="#F9E803"/>
<stop offset="0.489355" stop-color="#12B90F"/>
<stop offset="0.640292" stop-color="#02772D"/>
<stop offset="0.788703" stop-color="#034DFC"/>
<stop offset="0.991562" stop-color="#78078B"/>
</linearGradient>
</defs>
</svg>
