<svg width="420" height="720" viewBox="0 0 420 720" fill="none" xmlns="http://www.w3.org/2000/svg">
<path d="M33.624 97L30.496 89.364L49.356 68.296C50.46 67.192 51.5947 65.904 52.76 64.432C53.9867 62.96 55.152 61.4573 56.256 59.924C57.36 58.3293 58.2493 56.796 58.924 55.324C59.5987 53.852 59.936 52.5027 59.936 51.276C59.936 49.804 59.6293 48.5467 59.016 47.504C58.464 46.4 57.6053 45.572 56.44 45.02C55.2747 44.4067 53.8333 44.1 52.116 44.1C50.5827 44.1 49.1107 44.5293 47.7 45.388C46.2893 46.1853 44.9707 47.3813 43.744 48.976C42.5173 50.5707 41.444 52.5333 40.524 54.864L30.22 48.976C31.4467 45.4187 33.1947 42.3213 35.464 39.684C37.7333 36.9853 40.432 34.9 43.56 33.428C46.688 31.956 50.0307 31.2507 53.588 31.312C57.3293 31.312 60.672 32.1093 63.616 33.704C66.6213 35.2373 68.9827 37.384 70.7 40.144C72.4173 42.904 73.276 46.0933 73.276 49.712C73.276 51.4293 73.0307 53.208 72.54 55.048C72.1107 56.8267 71.3747 58.728 70.332 60.752C69.2893 62.7147 67.94 64.8307 66.284 67.1C64.628 69.3693 62.6347 71.792 60.304 74.368L45.86 90.1L44.02 84.58H75.852V97H33.624Z" fill="#F4F4F5"/>
<path d="M386.376 623L389.504 630.636L370.644 651.704C369.54 652.808 368.405 654.096 367.24 655.568C366.013 657.04 364.848 658.543 363.744 660.076C362.64 661.671 361.751 663.204 361.076 664.676C360.401 666.148 360.064 667.497 360.064 668.724C360.064 670.196 360.371 671.453 360.984 672.496C361.536 673.6 362.395 674.428 363.56 674.98C364.725 675.593 366.167 675.9 367.884 675.9C369.417 675.9 370.889 675.471 372.3 674.612C373.711 673.815 375.029 672.619 376.256 671.024C377.483 669.429 378.556 667.467 379.476 665.136L389.78 671.024C388.553 674.581 386.805 677.679 384.536 680.316C382.267 683.015 379.568 685.1 376.44 686.572C373.312 688.044 369.969 688.749 366.412 688.688C362.671 688.688 359.328 687.891 356.384 686.296C353.379 684.763 351.017 682.616 349.3 679.856C347.583 677.096 346.724 673.907 346.724 670.288C346.724 668.571 346.969 666.792 347.46 664.952C347.889 663.173 348.625 661.272 349.668 659.248C350.711 657.285 352.06 655.169 353.716 652.9C355.372 650.631 357.365 648.208 359.696 645.632L374.14 629.9L375.98 635.42H344.148V623H386.376Z" fill="#F4F4F5"/>
</svg>
