<svg width="420" height="720" viewBox="0 0 420 720" fill="none" xmlns="http://www.w3.org/2000/svg">
<path d="M56.9 97.92C51.4413 97.92 46.7493 96.6013 42.824 93.964C38.96 91.2653 35.9853 87.4627 33.9 82.556C31.876 77.588 30.864 71.6693 30.864 64.8C30.864 57.9307 31.876 52.0427 33.9 47.136C35.9853 42.168 38.96 38.3653 42.824 35.728C46.7493 33.0293 51.4413 31.68 56.9 31.68C62.3587 31.68 67.02 33.0293 70.884 35.728C74.8093 38.3653 77.784 42.168 79.808 47.136C81.8933 52.0427 82.936 57.9307 82.936 64.8C82.936 71.6693 81.8933 77.588 79.808 82.556C77.784 87.4627 74.8093 91.2653 70.884 93.964C67.02 96.6013 62.3587 97.92 56.9 97.92ZM56.9 86.052C61.0093 86.052 64.168 84.212 66.376 80.532C68.6453 76.7907 69.78 71.5467 69.78 64.8C69.78 57.8693 68.6453 52.5333 66.376 48.792C64.168 45.0507 61.0093 43.18 56.9 43.18C52.7907 43.18 49.6013 45.0507 47.332 48.792C45.124 52.5333 44.02 57.8693 44.02 64.8C44.02 71.5467 45.124 76.7907 47.332 80.532C49.6013 84.212 52.7907 86.052 56.9 86.052Z" fill="#F4F4F5"/>
<path d="M363.1 622.08C368.559 622.08 373.251 623.399 377.176 626.036C381.04 628.735 384.015 632.537 386.1 637.444C388.124 642.412 389.136 648.331 389.136 655.2C389.136 662.069 388.124 667.957 386.1 672.864C384.015 677.832 381.04 681.635 377.176 684.272C373.251 686.971 368.559 688.32 363.1 688.32C357.641 688.32 352.98 686.971 349.116 684.272C345.191 681.635 342.216 677.832 340.192 672.864C338.107 667.957 337.064 662.069 337.064 655.2C337.064 648.331 338.107 642.412 340.192 637.444C342.216 632.537 345.191 628.735 349.116 626.036C352.98 623.399 357.641 622.08 363.1 622.08ZM363.1 633.948C358.991 633.948 355.832 635.788 353.624 639.468C351.355 643.209 350.22 648.453 350.22 655.2C350.22 662.131 351.355 667.467 353.624 671.208C355.832 674.949 358.991 676.82 363.1 676.82C367.209 676.82 370.399 674.949 372.668 671.208C374.876 667.467 375.98 662.131 375.98 655.2C375.98 648.453 374.876 643.209 372.668 639.468C370.399 635.788 367.209 633.948 363.1 633.948Z" fill="#F4F4F5"/>
</svg>
