<svg width="420" height="720" viewBox="0 0 420 720" fill="none" xmlns="http://www.w3.org/2000/svg">
<g clip-path="url(#clip0_17_973)">
<rect width="420" height="720" fill="#417617"/>
<rect x="8" y="8" width="404" height="704" rx="42" fill="#404148"/>
<path d="M91.5067 301.231H136.634C146.736 297.654 153.91 293.496 158.791 288.241L109.446 290.819L85.7341 292.058L91.5067 301.231Z" fill="#2D60B3" fill-opacity="0.55"/>
<path d="M68.1222 264.073V239.384L40.3594 250.723L43.7618 288.241L73.9636 273.355L68.1222 264.073Z" fill="#2D60B3" fill-opacity="0.55"/>
<path d="M55.6272 217.507L27 189V237.475L55.6272 217.507Z" fill="#2D60B3" fill-opacity="0.55"/>
<path d="M116.06 203.504L100.667 189H65.1696L63.6084 196.252L96.4688 207.056L113.267 212.578L116.06 203.504Z" fill="#2D60B3" fill-opacity="0.55"/>
<path d="M170.518 212.578C156.723 208.721 146.373 205.792 145.381 205.413L135.269 221.606L130.058 229.949H175.098L170.518 212.578Z" fill="#2D60B3" fill-opacity="0.55"/>
<path d="M206.825 208.467C208.65 201.87 210.728 194.198 212.123 189H178.915L206.825 208.467Z" fill="#2D60B3" fill-opacity="0.55"/>
<path d="M289.989 189L304.875 198.368L326.25 211.819C326.555 209.137 332.739 195.489 335.792 189H289.989Z" fill="#2D60B3" fill-opacity="0.55"/>
<path d="M320.73 229.949L338.846 219.745L326.25 211.819L304.875 198.368L272.046 225.261L266.324 229.949H320.73Z" fill="#2D60B3" fill-opacity="0.55"/>
<path d="M338.846 219.745L320.73 229.949L310.837 244.728L318.234 244.285L349.077 242.438L347.554 223.734L346.862 215.23L338.846 219.745Z" fill="#2D60B3" fill-opacity="0.55"/>
<path d="M316.326 304.987L323.144 294.73L320.73 269.928L319.206 254.27C314.998 258.414 308.103 265.065 302.716 269.928L312.891 304.783L316.326 304.987Z" fill="#2D60B3" fill-opacity="0.55"/>
<path d="M272.255 302.364L288.844 303.351C289.068 302.1 292.273 288.223 295.106 276.027C296.136 271.59 297.117 267.376 297.887 264.073L272.255 302.364Z" fill="#2D60B3" fill-opacity="0.55"/>
<path d="M236.228 356.183L236.8 364.199L260.598 354.967L273.576 349.933L278.167 339.007L275.238 332.136L248.748 337.48L236.228 356.183Z" fill="#2D60B3" fill-opacity="0.55"/>
<path d="M290.92 343.205L273.576 349.933L260.598 354.967L255.659 388.246L254.129 398.551L290.92 343.205Z" fill="#2D60B3" fill-opacity="0.55"/>
<path d="M169.459 455.927L205.074 437.348L207.924 433.306L195.347 417.254L169.459 455.927Z" fill="#2D60B3" fill-opacity="0.55"/>
<path d="M240.689 418.769L230.062 424.313L244.623 446.645L268.501 433.306L280.837 426.415L272.812 418.769H240.689Z" fill="#2D60B3" fill-opacity="0.55"/>
<path d="M297.241 455.927L304.872 449.317L280.837 426.415L268.501 433.306L278.92 455.927H297.241Z" fill="#2D60B3" fill-opacity="0.55"/>
<path d="M393.429 418.769H318.616C322.186 420.918 326.618 423.587 331.312 426.415C346.357 435.48 364.096 446.18 364.782 446.645L379.105 432.707L393.429 418.769Z" fill="#2D60B3" fill-opacity="0.55"/>
<path d="M393.429 486.723V444.737L383.51 449.317L389.72 472.739L393.429 486.723Z" fill="#2D60B3" fill-opacity="0.55"/>
<path d="M355.244 472.739C355.244 489.385 350.016 493.888 335.3 493.843L359.458 509.285L370.908 516.604L368.704 503.9L362.129 466.012L355.244 464.333V472.739Z" fill="#2D60B3" fill-opacity="0.55"/>
<path d="M370.908 516.604L393.429 531V498.174L368.704 503.9L370.908 516.604Z" fill="#2D60B3" fill-opacity="0.55"/>
<path d="M337.319 531L344.19 524.261L317.034 498.174L317.457 506.953L318.616 531H337.319Z" fill="#2D60B3" fill-opacity="0.55"/>
<path d="M272.812 531L306.783 512.702L272.812 498.7L254.129 520.108L244.623 531H272.812Z" fill="#2D60B3" fill-opacity="0.55"/>
<path d="M225.864 496.627L215.206 493.825L198.659 493.827C190.169 496.624 172.808 502.088 171.281 501.564L189.984 507.984L219.23 518.022L225.864 496.627Z" fill="#2D60B3" fill-opacity="0.55"/>
<path d="M116.317 531H173.19C174.281 529.597 175.602 527.887 177.018 526.038L151.576 506.571L132.038 520.108L121.661 527.298L116.317 531Z" fill="#2D60B3" fill-opacity="0.55"/>
<path d="M132.038 520.108L133.071 502.373L114.027 493.839C103.224 493.841 96.761 493.843 96.761 493.843L90.7433 497.048C92.885 499.108 95.4806 501.609 98.2473 504.281C108.63 514.309 121.42 526.743 121.661 527.298L132.038 520.108Z" fill="#2D60B3" fill-opacity="0.55"/>
<path d="M51.3649 518.022L27 531H64.4062L59.9642 513.442L51.3649 518.022Z" fill="#2D60B3" fill-opacity="0.55"/>
<path d="M52.3509 493.843C52.2363 496.609 52.0773 500.46 51.9202 504.281L62.4978 493.843L66.9382 476.417L67.8852 471.074L52.3509 493.843Z" fill="#2D60B3" fill-opacity="0.55"/>
<path d="M72.8036 496.762L101.747 486.342L105.553 480.616L100.286 480.043L86.2457 478.517L66.9382 476.417L62.4978 493.843L72.8036 496.762Z" fill="#2D60B3" fill-opacity="0.55"/>
<path d="M105.553 480.616L116.464 464.203L115.455 452.752L115.018 447.79L97.6138 454.623L100.286 480.043L105.553 480.616Z" fill="#2D60B3" fill-opacity="0.55"/>
<path d="M113.263 427.872L88.7968 445.5L87.7941 458.478L97.6138 454.623L115.018 447.79L113.263 427.872Z" fill="#2D60B3" fill-opacity="0.55"/>
<path d="M132.703 439.775L120.054 422.98L113.263 427.872L115.018 447.79L115.455 452.752L130.44 443.179L132.703 439.775Z" fill="#2D60B3" fill-opacity="0.55"/>
<path d="M146.731 397.025L126.623 399.731L131.392 412.674L149.503 404.658L146.731 397.025Z" fill="#2D60B3" fill-opacity="0.55"/>
<path d="M151.815 361.049L142.272 362.043L132.208 376.795L138.837 375.283L162.557 369.876L151.815 361.049Z" fill="#2D60B3" fill-opacity="0.55"/>
<path d="M186.549 358.773L186.667 351.984C186.673 351.64 179.885 349.906 172.045 348.025L173.687 358.773L176.091 374.504L186.549 358.773Z" fill="#2D60B3" fill-opacity="0.55"/>
<path d="M187.312 314.829L170.489 320.685L154.603 343.969C155.867 344.255 157.281 344.576 158.791 344.922L187.151 324.121L187.312 314.829Z" fill="#2D60B3" fill-opacity="0.55"/>
<path d="M217.438 293.203L214.056 281.371L199.145 285.046L196.296 307.326L218.747 297.783L217.438 293.203Z" fill="#2D60B3" fill-opacity="0.55"/>
<path d="M222.445 269.92C220.546 279.654 217.957 292.453 217.438 293.203L218.747 297.783L221.256 306.562L234.704 286.333L222.445 269.92Z" fill="#2D60B3" fill-opacity="0.55"/>
<path d="M214.056 281.371L209.113 264.073L193.926 286.333L199.145 285.046L214.056 281.371Z" fill="#2D60B3" fill-opacity="0.55"/>
<path d="M27 256.179V301.231H44.9397L43.7618 288.241L40.3594 250.723L27 256.179Z" fill="#3066BE" fill-opacity="0.65"/>
<path d="M107.92 229.949L113.267 212.578L96.4688 207.056C95.858 208.184 86.0357 222.788 81.2009 229.949H107.92Z" fill="#3066BE" fill-opacity="0.65"/>
<path d="M44.9397 301.231H91.5067L85.7341 292.058L73.9636 273.355L43.7618 288.241L44.9397 301.231Z" fill="#3066BE" fill-opacity="0.65"/>
<path d="M58.4315 220.299L68.1222 229.949H81.2009C86.0357 222.788 95.858 208.184 96.4688 207.056L63.6084 196.252L58.4315 220.299Z" fill="#3066BE" fill-opacity="0.65"/>
<path d="M267.528 196.634L266.324 189H212.123C210.728 194.198 208.65 201.87 206.825 208.467C204.821 215.706 203.122 221.65 202.962 221.606C208.761 223.214 214.459 224.792 219.757 226.257L267.528 196.634Z" fill="#3066BE" fill-opacity="0.65"/>
<path fill-rule="evenodd" clip-rule="evenodd" d="M375.871 189H335.792C332.739 195.489 326.555 209.137 326.25 211.819L338.846 219.745L346.862 215.23L362.129 206.63C361.213 207.146 370.908 195.092 375.871 189ZM289.989 189L304.875 198.368L272.046 225.261L267.528 196.634L266.324 189H289.989ZM202.962 221.606C191.82 218.516 180.302 215.314 170.518 212.578C156.723 208.721 146.373 205.792 145.381 205.413L155.632 189H178.915L206.825 208.467C204.821 215.706 203.122 221.65 202.962 221.606Z" fill="#3066BE" fill-opacity="0.65"/>
<path d="M362.129 206.63L393.429 189H375.871C370.908 195.092 361.213 207.146 362.129 206.63Z" fill="#3066BE" fill-opacity="0.65"/>
<path d="M293.042 303.601L286.025 320.304L307.667 318.013L316.326 304.987L312.891 304.783L293.042 303.601Z" fill="#3066BE" fill-opacity="0.65"/>
<path d="M236.8 364.199L236.228 356.183L213.65 389.913L215.206 422.98L238.622 389.772L237.453 373.359L236.8 364.199Z" fill="#3066BE" fill-opacity="0.65"/>
<path fill-rule="evenodd" clip-rule="evenodd" d="M240.689 418.769L254.129 398.551L255.659 388.246L260.598 354.967L236.8 364.199L237.453 373.359L238.622 389.772L240.689 418.769ZM273.576 349.933L290.92 343.205L307.667 318.013L286.025 320.304L278.167 339.007L273.576 349.933ZM295.106 276.027C296.013 275.778 299.007 273.277 302.716 269.928C308.103 265.065 314.998 258.414 319.206 254.27L320.73 269.928C322.662 270.227 334.985 268.775 340.906 268.011L350.04 254.27L349.077 242.438L318.234 244.285L310.837 244.728L297.887 264.073C297.117 267.376 296.136 271.59 295.106 276.027Z" fill="#3066BE" fill-opacity="0.65"/>
<path fill-rule="evenodd" clip-rule="evenodd" d="M355.244 455.927L364.782 446.645L379.105 432.707L383.51 449.317L389.72 472.739L393.429 486.723V498.174L368.704 503.9L362.129 466.012L355.244 464.333V455.927ZM250.674 455.927H278.92L268.501 433.306L244.623 446.645L250.674 455.927Z" fill="#3066BE" fill-opacity="0.65"/>
<path d="M317.034 498.174L312.509 493.827C299.108 493.823 281.017 493.822 260.98 493.822L272.812 498.7L306.783 512.702L317.457 506.953L317.034 498.174Z" fill="#3066BE" fill-opacity="0.65"/>
<path fill-rule="evenodd" clip-rule="evenodd" d="M77.3839 531H64.4062L59.9642 513.442L78.9107 503.35L80.8192 526.601L77.3839 531ZM177.018 526.038L151.576 506.571L162.938 498.7L171.281 501.564L189.984 507.984L219.23 518.022L215.206 531H203.344H173.19C174.281 529.597 175.602 527.887 177.018 526.038Z" fill="#3066BE" fill-opacity="0.65"/>
<path d="M51.9202 504.281C51.6558 510.714 51.3968 517.065 51.3649 518.022L59.9642 513.442L78.9107 503.35L86.4789 499.319L72.8036 496.762L62.4978 493.843L51.9202 504.281Z" fill="#3066BE" fill-opacity="0.65"/>
<path d="M138.837 375.283L132.208 376.795L115.541 401.223L126.623 399.731L146.731 397.025L138.837 375.283Z" fill="#3066BE" fill-opacity="0.65"/>
<path fill-rule="evenodd" clip-rule="evenodd" d="M196.296 307.326L218.747 297.783L221.256 306.562L211.868 320.685L207.542 318.335L195.71 311.906L196.296 307.326ZM186.959 335.19L187.151 324.121L158.791 344.922C162.855 345.854 167.617 346.963 172.045 348.025C179.885 349.906 186.673 351.64 186.667 351.984L186.959 335.19ZM162.557 369.876L138.837 375.283L146.731 397.025L149.503 404.658L151.815 411.024L173.3 378.703L162.557 369.876ZM131.392 412.674L133.362 418.018H116.317H104.083L115.541 401.223L126.623 399.731L131.392 412.674ZM86.2457 478.517L87.7941 458.478L97.6138 454.623L100.286 480.043L86.2457 478.517ZM72.8036 496.762L101.747 486.342L96.761 493.843L90.7433 497.048L86.4789 499.319L72.8036 496.762Z" fill="#3066BE" fill-opacity="0.65"/>
<path d="M195.71 311.906L187.312 314.829L187.151 324.121L186.959 335.19L207.542 318.335L195.71 311.906Z" fill="#3066BE" fill-opacity="0.65"/>
<path d="M223.574 264.073H209.113L214.056 281.371L217.438 293.203C217.957 292.453 220.546 279.654 222.445 269.92C222.865 267.766 223.251 265.763 223.574 264.073Z" fill="#3066BE" fill-opacity="0.65"/>
<path d="M68.1222 264.073L73.9636 273.355L85.7341 292.058L109.446 290.819L133.875 264.073H68.1222Z" fill="#336ECC" fill-opacity="0.6"/>
<path d="M158.791 288.241C164.575 282.013 167.139 274.243 167.538 264.073H133.875L109.446 290.819L158.791 288.241Z" fill="#336ECC" fill-opacity="0.6"/>
<path d="M68.1222 239.384V229.949L58.4315 220.299L55.6272 217.507L27 237.475V256.179L40.3594 250.723L68.1222 239.384Z" fill="#336ECC" fill-opacity="0.6"/>
<path d="M27 189L55.6272 217.507L58.4315 220.299L63.6084 196.252L65.1696 189H27Z" fill="#336ECC" fill-opacity="0.6"/>
<path fill-rule="evenodd" clip-rule="evenodd" d="M289.989 189L304.875 198.368L272.046 225.261L266.324 229.949H233.116H175.098L170.518 212.578C180.302 215.314 191.82 218.516 202.962 221.606C208.761 223.214 214.459 224.792 219.757 226.257L267.528 196.634L266.324 189H289.989ZM155.632 189L145.381 205.413L135.269 221.606L130.058 229.949H107.92L113.267 212.578L116.06 203.504L100.667 189H155.632Z" fill="#336ECC" fill-opacity="0.6"/>
<path fill-rule="evenodd" clip-rule="evenodd" d="M240.689 418.769L230.062 424.313L205.074 437.348L207.924 433.306L195.347 417.254L213.65 389.913L215.206 422.98L238.622 389.772L240.689 418.769ZM278.167 339.007L286.025 320.304L293.042 303.601L312.891 304.783L302.716 269.928C299.007 273.277 296.013 275.778 295.106 276.027C292.273 288.223 289.068 302.1 288.844 303.351L272.255 302.364L266.324 311.225L248.748 337.48L275.238 332.136L278.167 339.007ZM320.73 269.928L323.144 294.73L340.906 268.011C334.985 268.775 322.662 270.227 320.73 269.928ZM350.04 254.27L370.339 223.734L393.429 189L362.129 206.63L346.862 215.23L347.554 223.734L349.077 242.438L350.04 254.27Z" fill="#336ECC" fill-opacity="0.6"/>
<path fill-rule="evenodd" clip-rule="evenodd" d="M272.812 418.769H318.616C322.186 420.918 326.618 423.587 331.312 426.415C346.357 435.48 364.096 446.18 364.782 446.645L355.244 455.927H297.241L304.872 449.317L280.837 426.415L272.812 418.769ZM383.51 449.317L379.105 432.707L393.429 418.769V444.737L383.51 449.317ZM230.062 424.313L244.623 446.645L250.674 455.927H169.459L205.074 437.348L230.062 424.313Z" fill="#336ECC" fill-opacity="0.6"/>
<path fill-rule="evenodd" clip-rule="evenodd" d="M116.317 531H77.3839L80.8192 526.601L78.9107 503.35L86.4789 499.319L90.7433 497.048C92.885 499.108 95.4806 501.609 98.2473 504.281C108.63 514.309 121.42 526.743 121.661 527.298L116.317 531ZM133.071 502.373L114.027 493.839C123.011 493.838 134.997 493.836 148.761 493.833C163.801 493.831 180.965 493.829 198.659 493.827C190.169 496.624 172.808 502.088 171.281 501.564L162.938 498.7L151.576 506.571L132.038 520.108L133.071 502.373ZM215.206 531L219.23 518.022L225.864 496.627L215.206 493.825C225.09 493.824 234.986 493.823 244.623 493.823C250.178 493.823 255.648 493.822 260.98 493.822L272.812 498.7L254.129 520.108L244.623 531H215.206ZM317.034 498.174L312.509 493.827C324.581 493.83 332.847 493.835 335.3 493.843L359.458 509.285L370.908 516.604L393.429 531H337.319L344.19 524.261L317.034 498.174ZM306.783 512.702L317.457 506.953L318.616 531H272.812L306.783 512.702Z" fill="#336ECC" fill-opacity="0.6"/>
<path fill-rule="evenodd" clip-rule="evenodd" d="M223.574 264.073C223.251 265.763 222.865 267.766 222.445 269.92L234.704 286.333L249.501 264.073H223.574ZM196.296 307.326L199.145 285.046L193.926 286.333L170.489 320.685L187.312 314.829L195.71 311.906L196.296 307.326ZM186.549 358.773L211.868 320.685L207.542 318.335L186.959 335.19L186.667 351.984L186.549 358.773ZM154.603 343.969C155.867 344.255 157.281 344.576 158.791 344.922C162.855 345.854 167.617 346.963 172.045 348.025L173.687 358.773L176.091 374.504L173.3 378.703L162.557 369.876L151.815 361.049L142.272 362.043L154.603 343.969ZM151.815 411.024L149.503 404.658L131.392 412.674L133.362 418.018H116.317H104.083L89.2392 439.775L67.8852 471.074L66.9382 476.417L86.2457 478.517L87.7941 458.478L88.7968 445.5L113.263 427.872L120.054 422.98L132.703 439.775L138.285 431.377L151.815 411.024ZM116.464 464.203L130.44 443.179L115.455 452.752L116.464 464.203ZM52.3509 493.843C52.2363 496.609 52.0773 500.46 51.9202 504.281C51.6558 510.714 51.3968 517.065 51.3649 518.022L27 531L52.3509 493.843Z" fill="#336ECC" fill-opacity="0.6"/>
<g filter="url(#filter0_d_17_973)">
<rect width="420" height="120" fill="#417617"/>
</g>
<g filter="url(#filter1_d_17_973)">
<rect y="600" width="420" height="120" fill="#417617"/>
</g>
<rect width="420" height="720" fill="#417617"/>
<rect x="8" y="8" width="404" height="704" rx="42" fill="#404148"/>
<path d="M91.5067 301.231H136.634C146.736 297.654 153.91 293.496 158.791 288.241L109.446 290.819L85.7341 292.058L91.5067 301.231Z" fill="#2D60B3" fill-opacity="0.55"/>
<path d="M68.1222 264.073V239.384L40.3594 250.723L43.7618 288.241L73.9636 273.355L68.1222 264.073Z" fill="#2D60B3" fill-opacity="0.55"/>
<path d="M55.6272 217.507L27 189V237.475L55.6272 217.507Z" fill="#2D60B3" fill-opacity="0.55"/>
<path d="M116.06 203.504L100.667 189H65.1696L63.6084 196.252L96.4688 207.056L113.267 212.578L116.06 203.504Z" fill="#2D60B3" fill-opacity="0.55"/>
<path d="M170.518 212.578C156.723 208.721 146.373 205.792 145.381 205.413L135.269 221.606L130.058 229.949H175.098L170.518 212.578Z" fill="#2D60B3" fill-opacity="0.55"/>
<path d="M206.825 208.467C208.65 201.87 210.728 194.198 212.123 189H178.915L206.825 208.467Z" fill="#2D60B3" fill-opacity="0.55"/>
<path d="M289.989 189L304.875 198.368L326.25 211.819C326.555 209.137 332.739 195.489 335.792 189H289.989Z" fill="#2D60B3" fill-opacity="0.55"/>
<path d="M320.73 229.949L338.846 219.745L326.25 211.819L304.875 198.368L272.046 225.261L266.324 229.949H320.73Z" fill="#2D60B3" fill-opacity="0.55"/>
<path d="M338.846 219.745L320.73 229.949L310.837 244.728L318.234 244.285L349.077 242.438L347.554 223.734L346.862 215.23L338.846 219.745Z" fill="#2D60B3" fill-opacity="0.55"/>
<path d="M316.326 304.987L323.144 294.73L320.73 269.928L319.206 254.27C314.998 258.414 308.103 265.065 302.716 269.928L312.891 304.783L316.326 304.987Z" fill="#2D60B3" fill-opacity="0.55"/>
<path d="M272.255 302.364L288.844 303.351C289.068 302.1 292.273 288.223 295.106 276.027C296.136 271.59 297.117 267.376 297.887 264.073L272.255 302.364Z" fill="#2D60B3" fill-opacity="0.55"/>
<path d="M236.228 356.183L236.8 364.199L260.598 354.967L273.576 349.933L278.167 339.007L275.238 332.136L248.748 337.48L236.228 356.183Z" fill="#2D60B3" fill-opacity="0.55"/>
<path d="M290.92 343.205L273.576 349.933L260.598 354.967L255.659 388.246L254.129 398.551L290.92 343.205Z" fill="#2D60B3" fill-opacity="0.55"/>
<path d="M169.459 455.927L205.074 437.348L207.924 433.306L195.347 417.254L169.459 455.927Z" fill="#2D60B3" fill-opacity="0.55"/>
<path d="M240.689 418.769L230.062 424.313L244.623 446.645L268.501 433.306L280.837 426.415L272.812 418.769H240.689Z" fill="#2D60B3" fill-opacity="0.55"/>
<path d="M297.241 455.927L304.872 449.317L280.837 426.415L268.501 433.306L278.92 455.927H297.241Z" fill="#2D60B3" fill-opacity="0.55"/>
<path d="M393.429 418.769H318.616C322.186 420.918 326.618 423.587 331.312 426.415C346.357 435.48 364.096 446.18 364.782 446.645L379.105 432.707L393.429 418.769Z" fill="#2D60B3" fill-opacity="0.55"/>
<path d="M393.429 486.723V444.737L383.51 449.317L389.72 472.739L393.429 486.723Z" fill="#2D60B3" fill-opacity="0.55"/>
<path d="M355.244 472.739C355.244 489.385 350.016 493.888 335.3 493.843L359.458 509.285L370.908 516.604L368.704 503.9L362.129 466.012L355.244 464.333V472.739Z" fill="#2D60B3" fill-opacity="0.55"/>
<path d="M370.908 516.604L393.429 531V498.174L368.704 503.9L370.908 516.604Z" fill="#2D60B3" fill-opacity="0.55"/>
<path d="M337.319 531L344.19 524.261L317.034 498.174L317.457 506.953L318.616 531H337.319Z" fill="#2D60B3" fill-opacity="0.55"/>
<path d="M272.812 531L306.783 512.702L272.812 498.7L254.129 520.108L244.623 531H272.812Z" fill="#2D60B3" fill-opacity="0.55"/>
<path d="M225.864 496.627L215.206 493.825L198.659 493.827C190.169 496.624 172.808 502.088 171.281 501.564L189.984 507.984L219.23 518.022L225.864 496.627Z" fill="#2D60B3" fill-opacity="0.55"/>
<path d="M116.317 531H173.19C174.281 529.597 175.602 527.887 177.018 526.038L151.576 506.571L132.038 520.108L121.661 527.298L116.317 531Z" fill="#2D60B3" fill-opacity="0.55"/>
<path d="M132.038 520.108L133.071 502.373L114.027 493.839C103.224 493.841 96.761 493.843 96.761 493.843L90.7433 497.048C92.885 499.108 95.4806 501.609 98.2473 504.281C108.63 514.309 121.42 526.743 121.661 527.298L132.038 520.108Z" fill="#2D60B3" fill-opacity="0.55"/>
<path d="M51.3649 518.022L27 531H64.4062L59.9642 513.442L51.3649 518.022Z" fill="#2D60B3" fill-opacity="0.55"/>
<path d="M52.3509 493.843C52.2363 496.609 52.0773 500.46 51.9202 504.281L62.4978 493.843L66.9382 476.417L67.8852 471.074L52.3509 493.843Z" fill="#2D60B3" fill-opacity="0.55"/>
<path d="M72.8036 496.762L101.747 486.342L105.553 480.616L100.286 480.043L86.2457 478.517L66.9382 476.417L62.4978 493.843L72.8036 496.762Z" fill="#2D60B3" fill-opacity="0.55"/>
<path d="M105.553 480.616L116.464 464.203L115.455 452.752L115.018 447.79L97.6138 454.623L100.286 480.043L105.553 480.616Z" fill="#2D60B3" fill-opacity="0.55"/>
<path d="M113.263 427.872L88.7968 445.5L87.7941 458.478L97.6138 454.623L115.018 447.79L113.263 427.872Z" fill="#2D60B3" fill-opacity="0.55"/>
<path d="M132.703 439.775L120.054 422.98L113.263 427.872L115.018 447.79L115.455 452.752L130.44 443.179L132.703 439.775Z" fill="#2D60B3" fill-opacity="0.55"/>
<path d="M146.731 397.025L126.623 399.731L131.392 412.674L149.503 404.658L146.731 397.025Z" fill="#2D60B3" fill-opacity="0.55"/>
<path d="M151.815 361.049L142.272 362.043L132.208 376.795L138.837 375.283L162.557 369.876L151.815 361.049Z" fill="#2D60B3" fill-opacity="0.55"/>
<path d="M186.549 358.773L186.667 351.984C186.673 351.64 179.885 349.906 172.045 348.025L173.687 358.773L176.091 374.504L186.549 358.773Z" fill="#2D60B3" fill-opacity="0.55"/>
<path d="M187.312 314.829L170.489 320.685L154.603 343.969C155.867 344.255 157.281 344.576 158.791 344.922L187.151 324.121L187.312 314.829Z" fill="#2D60B3" fill-opacity="0.55"/>
<path d="M217.438 293.203L214.056 281.371L199.145 285.046L196.296 307.326L218.747 297.783L217.438 293.203Z" fill="#2D60B3" fill-opacity="0.55"/>
<path d="M222.445 269.92C220.546 279.654 217.957 292.453 217.438 293.203L218.747 297.783L221.256 306.562L234.704 286.333L222.445 269.92Z" fill="#2D60B3" fill-opacity="0.55"/>
<path d="M214.056 281.371L209.113 264.073L193.926 286.333L199.145 285.046L214.056 281.371Z" fill="#2D60B3" fill-opacity="0.55"/>
<path d="M27 256.179V301.231H44.9397L43.7618 288.241L40.3594 250.723L27 256.179Z" fill="#3066BE" fill-opacity="0.65"/>
<path d="M107.92 229.949L113.267 212.578L96.4688 207.056C95.858 208.184 86.0357 222.788 81.2009 229.949H107.92Z" fill="#3066BE" fill-opacity="0.65"/>
<path d="M44.9397 301.231H91.5067L85.7341 292.058L73.9636 273.355L43.7618 288.241L44.9397 301.231Z" fill="#3066BE" fill-opacity="0.65"/>
<path d="M58.4315 220.299L68.1222 229.949H81.2009C86.0357 222.788 95.858 208.184 96.4688 207.056L63.6084 196.252L58.4315 220.299Z" fill="#3066BE" fill-opacity="0.65"/>
<path d="M267.528 196.634L266.324 189H212.123C210.728 194.198 208.65 201.87 206.825 208.467C204.821 215.706 203.122 221.65 202.962 221.606C208.761 223.214 214.459 224.792 219.757 226.257L267.528 196.634Z" fill="#3066BE" fill-opacity="0.65"/>
<path fill-rule="evenodd" clip-rule="evenodd" d="M375.871 189H335.792C332.739 195.489 326.555 209.137 326.25 211.819L338.846 219.745L346.862 215.23L362.129 206.63C361.213 207.146 370.908 195.092 375.871 189ZM289.989 189L304.875 198.368L272.046 225.261L267.528 196.634L266.324 189H289.989ZM202.962 221.606C191.82 218.516 180.302 215.314 170.518 212.578C156.723 208.721 146.373 205.792 145.381 205.413L155.632 189H178.915L206.825 208.467C204.821 215.706 203.122 221.65 202.962 221.606Z" fill="#3066BE" fill-opacity="0.65"/>
<path d="M362.129 206.63L393.429 189H375.871C370.908 195.092 361.213 207.146 362.129 206.63Z" fill="#3066BE" fill-opacity="0.65"/>
<path d="M293.042 303.601L286.025 320.304L307.667 318.013L316.326 304.987L312.891 304.783L293.042 303.601Z" fill="#3066BE" fill-opacity="0.65"/>
<path d="M236.8 364.199L236.228 356.183L213.65 389.913L215.206 422.98L238.622 389.772L237.453 373.359L236.8 364.199Z" fill="#3066BE" fill-opacity="0.65"/>
<path fill-rule="evenodd" clip-rule="evenodd" d="M240.689 418.769L254.129 398.551L255.659 388.246L260.598 354.967L236.8 364.199L237.453 373.359L238.622 389.772L240.689 418.769ZM273.576 349.933L290.92 343.205L307.667 318.013L286.025 320.304L278.167 339.007L273.576 349.933ZM295.106 276.027C296.013 275.778 299.007 273.277 302.716 269.928C308.103 265.065 314.998 258.414 319.206 254.27L320.73 269.928C322.662 270.227 334.985 268.775 340.906 268.011L350.04 254.27L349.077 242.438L318.234 244.285L310.837 244.728L297.887 264.073C297.117 267.376 296.136 271.59 295.106 276.027Z" fill="#3066BE" fill-opacity="0.65"/>
<path fill-rule="evenodd" clip-rule="evenodd" d="M355.244 455.927L364.782 446.645L379.105 432.707L383.51 449.317L389.72 472.739L393.429 486.723V498.174L368.704 503.9L362.129 466.012L355.244 464.333V455.927ZM250.674 455.927H278.92L268.501 433.306L244.623 446.645L250.674 455.927Z" fill="#3066BE" fill-opacity="0.65"/>
<path d="M317.034 498.174L312.509 493.827C299.108 493.823 281.017 493.822 260.98 493.822L272.812 498.7L306.783 512.702L317.457 506.953L317.034 498.174Z" fill="#3066BE" fill-opacity="0.65"/>
<path fill-rule="evenodd" clip-rule="evenodd" d="M77.3839 531H64.4062L59.9642 513.442L78.9107 503.35L80.8192 526.601L77.3839 531ZM177.018 526.038L151.576 506.571L162.938 498.7L171.281 501.564L189.984 507.984L219.23 518.022L215.206 531H203.344H173.19C174.281 529.597 175.602 527.887 177.018 526.038Z" fill="#3066BE" fill-opacity="0.65"/>
<path d="M51.9202 504.281C51.6558 510.714 51.3968 517.065 51.3649 518.022L59.9642 513.442L78.9107 503.35L86.4789 499.319L72.8036 496.762L62.4978 493.843L51.9202 504.281Z" fill="#3066BE" fill-opacity="0.65"/>
<path d="M138.837 375.283L132.208 376.795L115.541 401.223L126.623 399.731L146.731 397.025L138.837 375.283Z" fill="#3066BE" fill-opacity="0.65"/>
<path fill-rule="evenodd" clip-rule="evenodd" d="M196.296 307.326L218.747 297.783L221.256 306.562L211.868 320.685L207.542 318.335L195.71 311.906L196.296 307.326ZM186.959 335.19L187.151 324.121L158.791 344.922C162.855 345.854 167.617 346.963 172.045 348.025C179.885 349.906 186.673 351.64 186.667 351.984L186.959 335.19ZM162.557 369.876L138.837 375.283L146.731 397.025L149.503 404.658L151.815 411.024L173.3 378.703L162.557 369.876ZM131.392 412.674L133.362 418.018H116.317H104.083L115.541 401.223L126.623 399.731L131.392 412.674ZM86.2457 478.517L87.7941 458.478L97.6138 454.623L100.286 480.043L86.2457 478.517ZM72.8036 496.762L101.747 486.342L96.761 493.843L90.7433 497.048L86.4789 499.319L72.8036 496.762Z" fill="#3066BE" fill-opacity="0.65"/>
<path d="M195.71 311.906L187.312 314.829L187.151 324.121L186.959 335.19L207.542 318.335L195.71 311.906Z" fill="#3066BE" fill-opacity="0.65"/>
<path d="M223.574 264.073H209.113L214.056 281.371L217.438 293.203C217.957 292.453 220.546 279.654 222.445 269.92C222.865 267.766 223.251 265.763 223.574 264.073Z" fill="#3066BE" fill-opacity="0.65"/>
<path d="M68.1222 264.073L73.9636 273.355L85.7341 292.058L109.446 290.819L133.875 264.073H68.1222Z" fill="#336ECC" fill-opacity="0.6"/>
<path d="M158.791 288.241C164.575 282.013 167.139 274.243 167.538 264.073H133.875L109.446 290.819L158.791 288.241Z" fill="#336ECC" fill-opacity="0.6"/>
<path d="M68.1222 239.384V229.949L58.4315 220.299L55.6272 217.507L27 237.475V256.179L40.3594 250.723L68.1222 239.384Z" fill="#336ECC" fill-opacity="0.6"/>
<path d="M27 189L55.6272 217.507L58.4315 220.299L63.6084 196.252L65.1696 189H27Z" fill="#336ECC" fill-opacity="0.6"/>
<path fill-rule="evenodd" clip-rule="evenodd" d="M289.989 189L304.875 198.368L272.046 225.261L266.324 229.949H233.116H175.098L170.518 212.578C180.302 215.314 191.82 218.516 202.962 221.606C208.761 223.214 214.459 224.792 219.757 226.257L267.528 196.634L266.324 189H289.989ZM155.632 189L145.381 205.413L135.269 221.606L130.058 229.949H107.92L113.267 212.578L116.06 203.504L100.667 189H155.632Z" fill="#336ECC" fill-opacity="0.6"/>
<path fill-rule="evenodd" clip-rule="evenodd" d="M240.689 418.769L230.062 424.313L205.074 437.348L207.924 433.306L195.347 417.254L213.65 389.913L215.206 422.98L238.622 389.772L240.689 418.769ZM278.167 339.007L286.025 320.304L293.042 303.601L312.891 304.783L302.716 269.928C299.007 273.277 296.013 275.778 295.106 276.027C292.273 288.223 289.068 302.1 288.844 303.351L272.255 302.364L266.324 311.225L248.748 337.48L275.238 332.136L278.167 339.007ZM320.73 269.928L323.144 294.73L340.906 268.011C334.985 268.775 322.662 270.227 320.73 269.928ZM350.04 254.27L370.339 223.734L393.429 189L362.129 206.63L346.862 215.23L347.554 223.734L349.077 242.438L350.04 254.27Z" fill="#336ECC" fill-opacity="0.6"/>
<path fill-rule="evenodd" clip-rule="evenodd" d="M272.812 418.769H318.616C322.186 420.918 326.618 423.587 331.312 426.415C346.357 435.48 364.096 446.18 364.782 446.645L355.244 455.927H297.241L304.872 449.317L280.837 426.415L272.812 418.769ZM383.51 449.317L379.105 432.707L393.429 418.769V444.737L383.51 449.317ZM230.062 424.313L244.623 446.645L250.674 455.927H169.459L205.074 437.348L230.062 424.313Z" fill="#336ECC" fill-opacity="0.6"/>
<path fill-rule="evenodd" clip-rule="evenodd" d="M116.317 531H77.3839L80.8192 526.601L78.9107 503.35L86.4789 499.319L90.7433 497.048C92.885 499.108 95.4806 501.609 98.2473 504.281C108.63 514.309 121.42 526.743 121.661 527.298L116.317 531ZM133.071 502.373L114.027 493.839C123.011 493.838 134.997 493.836 148.761 493.833C163.801 493.831 180.965 493.829 198.659 493.827C190.169 496.624 172.808 502.088 171.281 501.564L162.938 498.7L151.576 506.571L132.038 520.108L133.071 502.373ZM215.206 531L219.23 518.022L225.864 496.627L215.206 493.825C225.09 493.824 234.986 493.823 244.623 493.823C250.178 493.823 255.648 493.822 260.98 493.822L272.812 498.7L254.129 520.108L244.623 531H215.206ZM317.034 498.174L312.509 493.827C324.581 493.83 332.847 493.835 335.3 493.843L359.458 509.285L370.908 516.604L393.429 531H337.319L344.19 524.261L317.034 498.174ZM306.783 512.702L317.457 506.953L318.616 531H272.812L306.783 512.702Z" fill="#336ECC" fill-opacity="0.6"/>
<path fill-rule="evenodd" clip-rule="evenodd" d="M223.574 264.073C223.251 265.763 222.865 267.766 222.445 269.92L234.704 286.333L249.501 264.073H223.574ZM196.296 307.326L199.145 285.046L193.926 286.333L170.489 320.685L187.312 314.829L195.71 311.906L196.296 307.326ZM186.549 358.773L211.868 320.685L207.542 318.335L186.959 335.19L186.667 351.984L186.549 358.773ZM154.603 343.969C155.867 344.255 157.281 344.576 158.791 344.922C162.855 345.854 167.617 346.963 172.045 348.025L173.687 358.773L176.091 374.504L173.3 378.703L162.557 369.876L151.815 361.049L142.272 362.043L154.603 343.969ZM151.815 411.024L149.503 404.658L131.392 412.674L133.362 418.018H116.317H104.083L89.2392 439.775L67.8852 471.074L66.9382 476.417L86.2457 478.517L87.7941 458.478L88.7968 445.5L113.263 427.872L120.054 422.98L132.703 439.775L138.285 431.377L151.815 411.024ZM116.464 464.203L130.44 443.179L115.455 452.752L116.464 464.203ZM52.3509 493.843C52.2363 496.609 52.0773 500.46 51.9202 504.281C51.6558 510.714 51.3968 517.065 51.3649 518.022L27 531L52.3509 493.843Z" fill="#336ECC" fill-opacity="0.6"/>
<g filter="url(#filter2_d_17_973)">
<rect width="420" height="120" fill="#417617"/>
</g>
<g filter="url(#filter3_d_17_973)">
<rect y="600" width="420" height="120" fill="#417617"/>
</g>
</g>
<path d="M54.14 97.276C49.908 97.276 46.044 96.448 42.548 94.792C39.052 93.0747 36.2613 90.8053 34.176 87.984C32.0907 85.1013 31.048 81.8813 31.048 78.324C31.048 76.0547 31.324 74.0307 31.876 72.252C32.4893 70.412 33.3787 68.756 34.544 67.284C35.7707 65.812 37.212 64.524 38.868 63.42C40.5853 62.316 42.548 61.3653 44.756 60.568L43.836 63.696C41.628 62.8373 39.696 61.7027 38.04 60.292C36.4453 58.8813 35.188 57.2867 34.268 55.508C33.4093 53.668 32.98 51.6747 32.98 49.528C32.98 46.1547 33.9307 43.1493 35.832 40.512C37.7333 37.8747 40.2787 35.7893 43.468 34.256C46.6573 32.7227 50.2147 31.956 54.14 31.956C58.0653 31.956 61.6227 32.7227 64.812 34.256C68.0627 35.7893 70.608 37.8747 72.448 40.512C74.3493 43.1493 75.3 46.1547 75.3 49.528C75.3 51.6747 74.8707 53.6373 74.012 55.416C73.2147 57.1947 71.988 58.7893 70.332 60.2C68.7373 61.5493 66.744 62.7147 64.352 63.696L63.708 60.936C66.4067 61.7333 68.768 62.96 70.792 64.616C72.816 66.2107 74.4107 68.1733 75.576 70.504C76.7413 72.8347 77.324 75.4413 77.324 78.324C77.324 81.8813 76.2813 85.1013 74.196 87.984C72.1107 90.8667 69.32 93.136 65.824 94.792C62.3893 96.448 58.4947 97.276 54.14 97.276ZM54.14 85.96C56.0413 85.96 57.728 85.592 59.2 84.856C60.7333 84.12 61.9293 83.108 62.788 81.82C63.6467 80.532 64.076 79.0907 64.076 77.496C64.076 75.7787 63.6467 74.276 62.788 72.988C61.9293 71.6387 60.764 70.596 59.292 69.86C57.82 69.0627 56.1027 68.664 54.14 68.664C52.3 68.664 50.644 69.0627 49.172 69.86C47.7 70.596 46.504 71.6387 45.584 72.988C44.7253 74.276 44.296 75.7787 44.296 77.496C44.296 79.0907 44.7253 80.532 45.584 81.82C46.504 83.0467 47.7 84.0587 49.172 84.856C50.644 85.592 52.3 85.96 54.14 85.96ZM54.14 57.348C55.796 57.348 57.268 57.0413 58.556 56.428C59.9053 55.8147 60.948 54.956 61.684 53.852C62.42 52.748 62.788 51.4907 62.788 50.08C62.788 48.608 62.42 47.32 61.684 46.216C60.948 45.112 59.9053 44.2533 58.556 43.64C57.268 42.9653 55.8267 42.628 54.232 42.628C52.5147 42.628 51.012 42.9653 49.724 43.64C48.436 44.2533 47.424 45.112 46.688 46.216C45.952 47.32 45.584 48.608 45.584 50.08C45.584 51.4907 45.952 52.748 46.688 53.852C47.424 54.956 48.436 55.8147 49.724 56.428C51.012 57.0413 52.484 57.348 54.14 57.348Z" fill="#C2C2C2"/>
<path d="M365.86 622.724C370.092 622.724 373.956 623.552 377.452 625.208C380.948 626.925 383.739 629.195 385.824 632.016C387.909 634.899 388.952 638.119 388.952 641.676C388.952 643.945 388.676 645.969 388.124 647.748C387.511 649.588 386.621 651.244 385.456 652.716C384.229 654.188 382.788 655.476 381.132 656.58C379.415 657.684 377.452 658.635 375.244 659.432L376.164 656.304C378.372 657.163 380.304 658.297 381.96 659.708C383.555 661.119 384.812 662.713 385.732 664.492C386.591 666.332 387.02 668.325 387.02 670.472C387.02 673.845 386.069 676.851 384.168 679.488C382.267 682.125 379.721 684.211 376.532 685.744C373.343 687.277 369.785 688.044 365.86 688.044C361.935 688.044 358.377 687.277 355.188 685.744C351.937 684.211 349.392 682.125 347.552 679.488C345.651 676.851 344.7 673.845 344.7 670.472C344.7 668.325 345.129 666.363 345.988 664.584C346.785 662.805 348.012 661.211 349.668 659.8C351.263 658.451 353.256 657.285 355.648 656.304L356.292 659.064C353.593 658.267 351.232 657.04 349.208 655.384C347.184 653.789 345.589 651.827 344.424 649.496C343.259 647.165 342.676 644.559 342.676 641.676C342.676 638.119 343.719 634.899 345.804 632.016C347.889 629.133 350.68 626.864 354.176 625.208C357.611 623.552 361.505 622.724 365.86 622.724ZM365.86 634.04C363.959 634.04 362.272 634.408 360.8 635.144C359.267 635.88 358.071 636.892 357.212 638.18C356.353 639.468 355.924 640.909 355.924 642.504C355.924 644.221 356.353 645.724 357.212 647.012C358.071 648.361 359.236 649.404 360.708 650.14C362.18 650.937 363.897 651.336 365.86 651.336C367.7 651.336 369.356 650.937 370.828 650.14C372.3 649.404 373.496 648.361 374.416 647.012C375.275 645.724 375.704 644.221 375.704 642.504C375.704 640.909 375.275 639.468 374.416 638.18C373.496 636.953 372.3 635.941 370.828 635.144C369.356 634.408 367.7 634.04 365.86 634.04ZM365.86 662.652C364.204 662.652 362.732 662.959 361.444 663.572C360.095 664.185 359.052 665.044 358.316 666.148C357.58 667.252 357.212 668.509 357.212 669.92C357.212 671.392 357.58 672.68 358.316 673.784C359.052 674.888 360.095 675.747 361.444 676.36C362.732 677.035 364.173 677.372 365.768 677.372C367.485 677.372 368.988 677.035 370.276 676.36C371.564 675.747 372.576 674.888 373.312 673.784C374.048 672.68 374.416 671.392 374.416 669.92C374.416 668.509 374.048 667.252 373.312 666.148C372.576 665.044 371.564 664.185 370.276 663.572C368.988 662.959 367.516 662.652 365.86 662.652Z" fill="#C2C2C2"/>
<defs>
<filter id="filter0_d_17_973" x="-51" y="-51" width="522" height="222" filterUnits="userSpaceOnUse" color-interpolation-filters="sRGB">
<feFlood flood-opacity="0" result="BackgroundImageFix"/>
<feColorMatrix in="SourceAlpha" type="matrix" values="0 0 0 0 0 0 0 0 0 0 0 0 0 0 0 0 0 0 127 0" result="hardAlpha"/>
<feMorphology radius="1" operator="dilate" in="SourceAlpha" result="effect1_dropShadow_17_973"/>
<feOffset/>
<feGaussianBlur stdDeviation="25"/>
<feComposite in2="hardAlpha" operator="out"/>
<feColorMatrix type="matrix" values="0 0 0 0 0.211765 0 0 0 0 0.219608 0 0 0 0 0.278431 0 0 0 0.3 0"/>
<feBlend mode="normal" in2="BackgroundImageFix" result="effect1_dropShadow_17_973"/>
<feBlend mode="normal" in="SourceGraphic" in2="effect1_dropShadow_17_973" result="shape"/>
</filter>
<filter id="filter1_d_17_973" x="-51" y="549" width="522" height="222" filterUnits="userSpaceOnUse" color-interpolation-filters="sRGB">
<feFlood flood-opacity="0" result="BackgroundImageFix"/>
<feColorMatrix in="SourceAlpha" type="matrix" values="0 0 0 0 0 0 0 0 0 0 0 0 0 0 0 0 0 0 127 0" result="hardAlpha"/>
<feMorphology radius="1" operator="dilate" in="SourceAlpha" result="effect1_dropShadow_17_973"/>
<feOffset/>
<feGaussianBlur stdDeviation="25"/>
<feComposite in2="hardAlpha" operator="out"/>
<feColorMatrix type="matrix" values="0 0 0 0 0.211765 0 0 0 0 0.219608 0 0 0 0 0.278431 0 0 0 0.3 0"/>
<feBlend mode="normal" in2="BackgroundImageFix" result="effect1_dropShadow_17_973"/>
<feBlend mode="normal" in="SourceGraphic" in2="effect1_dropShadow_17_973" result="shape"/>
</filter>
<filter id="filter2_d_17_973" x="-51" y="-51" width="522" height="222" filterUnits="userSpaceOnUse" color-interpolation-filters="sRGB">
<feFlood flood-opacity="0" result="BackgroundImageFix"/>
<feColorMatrix in="SourceAlpha" type="matrix" values="0 0 0 0 0 0 0 0 0 0 0 0 0 0 0 0 0 0 127 0" result="hardAlpha"/>
<feMorphology radius="1" operator="dilate" in="SourceAlpha" result="effect1_dropShadow_17_973"/>
<feOffset/>
<feGaussianBlur stdDeviation="25"/>
<feComposite in2="hardAlpha" operator="out"/>
<feColorMatrix type="matrix" values="0 0 0 0 0.211765 0 0 0 0 0.219608 0 0 0 0 0.278431 0 0 0 0.3 0"/>
<feBlend mode="normal" in2="BackgroundImageFix" result="effect1_dropShadow_17_973"/>
<feBlend mode="normal" in="SourceGraphic" in2="effect1_dropShadow_17_973" result="shape"/>
</filter>
<filter id="filter3_d_17_973" x="-51" y="549" width="522" height="222" filterUnits="userSpaceOnUse" color-interpolation-filters="sRGB">
<feFlood flood-opacity="0" result="BackgroundImageFix"/>
<feColorMatrix in="SourceAlpha" type="matrix" values="0 0 0 0 0 0 0 0 0 0 0 0 0 0 0 0 0 0 127 0" result="hardAlpha"/>
<feMorphology radius="1" operator="dilate" in="SourceAlpha" result="effect1_dropShadow_17_973"/>
<feOffset/>
<feGaussianBlur stdDeviation="25"/>
<feComposite in2="hardAlpha" operator="out"/>
<feColorMatrix type="matrix" values="0 0 0 0 0.211765 0 0 0 0 0.219608 0 0 0 0 0.278431 0 0 0 0.3 0"/>
<feBlend mode="normal" in2="BackgroundImageFix" result="effect1_dropShadow_17_973"/>
<feBlend mode="normal" in="SourceGraphic" in2="effect1_dropShadow_17_973" result="shape"/>
</filter>
<clipPath id="clip0_17_973">
<path d="M0 50C0 22.3857 22.3858 0 50 0H370C397.614 0 420 22.3858 420 50V670C420 697.614 397.614 720 370 720H50C22.3858 720 0 697.614 0 670V50Z" fill="white"/>
</clipPath>
</defs>
</svg>
