<svg width="420" height="720" viewBox="0 0 420 720" fill="none" xmlns="http://www.w3.org/2000/svg">
<path d="M107 66C107 91.9574 85.7335 113 59.5 113C33.2665 113 12 91.9574 12 66C12 40.0426 33.2665 19 59.5 19C85.7335 19 107 40.0426 107 66ZM23.875 66C23.875 85.468 39.8249 101.25 59.5 101.25C79.1751 101.25 95.125 85.468 95.125 66C95.125 46.532 79.1751 30.75 59.5 30.75C39.8249 30.75 23.875 46.532 23.875 66Z" fill="#C2C2C2"/>
<line x1="29.9497" y1="36.0503" x2="90.4683" y2="96.5688" stroke="#C2C2C2" stroke-width="14"/>
<path d="M408 653C408 678.957 386.734 700 360.5 700C334.266 700 313 678.957 313 653C313 627.043 334.266 606 360.5 606C386.734 606 408 627.043 408 653ZM324.875 653C324.875 672.468 340.825 688.25 360.5 688.25C380.175 688.25 396.125 672.468 396.125 653C396.125 633.532 380.175 617.75 360.5 617.75C340.825 617.75 324.875 633.532 324.875 653Z" fill="#C2C2C2"/>
<line x1="330.95" y1="623.05" x2="391.468" y2="683.569" stroke="#C2C2C2" stroke-width="14"/>
</svg>
