<svg width="420" height="720" viewBox="0 0 420 720" fill="none" xmlns="http://www.w3.org/2000/svg">
<circle cx="210" cy="360" r="160" fill="#F4F4F5"/>
<path d="M210 210C190.302 210 170.796 213.88 152.597 221.418C134.399 228.956 117.863 240.005 103.934 253.934C90.0052 267.863 78.9563 284.399 71.4181 302.598C63.8799 320.796 60 340.302 60 360L210 360L210 210Z" fill="#4228C0"/>
<path d="M60 360C60 379.698 63.8799 399.204 71.4181 417.403C78.9563 435.601 90.0052 452.137 103.934 466.066C117.863 479.995 134.399 491.044 152.597 498.582C170.796 506.12 190.302 510 210 510L210 360L60 360Z" fill="#FBD003"/>
<path d="M210 510C229.698 510 249.204 506.12 267.403 498.582C285.601 491.044 302.137 479.995 316.066 466.066C329.995 452.137 341.044 435.601 348.582 417.403C356.12 399.204 360 379.698 360 360L210 360L210 510Z" fill="#02753A"/>
<path d="M360 360C360 340.302 356.12 320.796 348.582 302.597C341.044 284.399 329.995 267.863 316.066 253.934C302.137 240.005 285.601 228.956 267.402 221.418C249.204 213.88 229.698 210 210 210L210 360H360Z" fill="#E91802"/>
<path d="M31.232 76.392V65.72H77.416V76.392H31.232ZM48.252 93.228V48.608H60.396L60.304 93.228H48.252ZM113.823 97V45.204L119.987 45.572L97.7228 72.712L96.2508 70.504H137.835V82.188H89.4428L83.8308 71.332L116.031 32.232H127.071V97H113.823Z" fill="#F4F4F5"/>
<path d="M388.768 643.608V654.28H342.584V643.608H388.768ZM371.748 626.772V671.392H359.604L359.696 626.772H371.748ZM306.177 623V674.796L300.013 674.428L322.277 647.288L323.749 649.496H282.165V637.812H330.557L336.169 648.668L303.969 687.768H292.929V623H306.177Z" fill="#F4F4F5"/>
</svg>
