<svg width="420" height="720" viewBox="0 0 420 720" fill="none" xmlns="http://www.w3.org/2000/svg">
<path d="M31.232 76.392V65.72H77.416V76.392H31.232ZM48.252 93.228V48.608H60.396L60.304 93.228H48.252ZM88.3388 97L85.2108 89.364L104.071 68.296C105.175 67.192 106.31 65.904 107.475 64.432C108.702 62.96 109.867 61.4573 110.971 59.924C112.075 58.3293 112.964 56.796 113.639 55.324C114.314 53.852 114.651 52.5027 114.651 51.276C114.651 49.804 114.344 48.5467 113.731 47.504C113.179 46.4 112.32 45.572 111.155 45.02C109.99 44.4067 108.548 44.1 106.831 44.1C105.298 44.1 103.826 44.5293 102.415 45.388C101.004 46.1853 99.6855 47.3813 98.4588 48.976C97.2322 50.5707 96.1588 52.5333 95.2388 54.864L84.9348 48.976C86.1615 45.4187 87.9095 42.3213 90.1788 39.684C92.4482 36.9853 95.1468 34.9 98.2748 33.428C101.403 31.956 104.746 31.2507 108.303 31.312C112.044 31.312 115.387 32.1093 118.331 33.704C121.336 35.2373 123.698 37.384 125.415 40.144C127.132 42.904 127.991 46.0933 127.991 49.712C127.991 51.4293 127.746 53.208 127.255 55.048C126.826 56.8267 126.09 58.728 125.047 60.752C124.004 62.7147 122.655 64.8307 120.999 67.1C119.343 69.3693 117.35 71.792 115.019 74.368L100.575 90.1L98.7348 84.58H130.567V97H88.3388Z" fill="#F4F4F5"/>
<path d="M388.768 643.608V654.28H342.584V643.608H388.768ZM371.748 626.772V671.392H359.604L359.696 626.772H371.748ZM331.661 623L334.789 630.636L315.929 651.704C314.825 652.808 313.69 654.096 312.525 655.568C311.298 657.04 310.133 658.543 309.029 660.076C307.925 661.671 307.036 663.204 306.361 664.676C305.686 666.148 305.349 667.497 305.349 668.724C305.349 670.196 305.656 671.453 306.269 672.496C306.821 673.6 307.68 674.428 308.845 674.98C310.01 675.593 311.452 675.9 313.169 675.9C314.702 675.9 316.174 675.471 317.585 674.612C318.996 673.815 320.314 672.619 321.541 671.024C322.768 669.429 323.841 667.467 324.761 665.136L335.065 671.024C333.838 674.581 332.09 677.679 329.821 680.316C327.552 683.015 324.853 685.1 321.725 686.572C318.597 688.044 315.254 688.749 311.697 688.688C307.956 688.688 304.613 687.891 301.669 686.296C298.664 684.763 296.302 682.616 294.585 679.856C292.868 677.096 292.009 673.907 292.009 670.288C292.009 668.571 292.254 666.792 292.745 664.952C293.174 663.173 293.91 661.272 294.953 659.248C295.996 657.285 297.345 655.169 299.001 652.9C300.657 650.631 302.65 648.208 304.981 645.632L319.425 629.9L321.265 635.42H289.433V623H331.661Z" fill="#F4F4F5"/>
</svg>
